<svg width="84" height="85" viewBox="0 0 84 85" fill="none" xmlns="http://www.w3.org/2000/svg">
<path fill-rule="evenodd" clip-rule="evenodd" d="M18.0147 25.0142C15.4812 30.4781 16.4186 37.0501 18.1065 41.7264C15.3356 46.6784 13.4354 51.7066 12.2119 55.795L14.0961 56.3588C15.2322 52.5627 16.9512 47.9896 19.3968 43.4617C21.0193 45.106 23.0443 46.7639 25.3231 48.0683C25.7409 52.4604 27.6315 56.7388 30.9948 60.1021C37.222 66.3293 46.586 67.5078 54.0005 63.6376L56.9551 66.5922L57.6504 67.2875L58.3458 66.5922L60.4319 64.5061L60.6637 64.7379L69.4716 73.5458L70.8623 74.9365L72.253 73.5458L73.1802 72.6186L74.5709 71.2279L73.1802 69.8372L64.3723 61.0293L64.1405 60.7975L65.9948 58.9432L66.6901 58.2478L65.9948 57.5524L62.8013 54.359C66.1083 47.1058 64.7777 38.2559 58.8094 32.2876C57.4482 30.9265 55.9373 29.8066 54.3296 28.9279C54.4128 28.8341 54.4976 28.7411 54.5838 28.6492C56.3568 26.7584 58.7412 25.3001 61.9603 25.2396C62.521 25.229 63.0335 24.885 63.2005 24.3496C63.3675 23.8143 63.1469 23.2329 62.6616 22.9519C53.6376 17.7275 44.7292 15.6328 40.7386 15.4313C27.5327 14.7643 20.7926 19.0233 18.0147 25.0142ZM30.9948 32.2876C27.2764 36.006 25.3581 40.843 25.2401 45.7154C23.4032 44.5278 21.7524 43.1006 20.4034 41.6734C22.571 37.9771 25.2412 34.3846 28.4937 31.3508C32.3496 27.7541 37.013 24.9524 42.6277 23.6774C47.1226 22.6567 52.2667 22.6053 58.1455 23.9474C56.1171 24.6685 54.467 25.8984 53.1491 27.3038C52.9216 27.5465 52.7037 27.7945 52.4952 28.0463C45.3531 25.0612 36.8074 26.475 30.9948 32.2876ZM19.799 25.8415C17.8281 30.0922 18.218 35.2704 19.438 39.4659C21.5525 36.0557 24.1022 32.7575 27.1522 29.9125C31.2181 26.1201 36.1838 23.1239 42.1922 21.7594C46.0907 20.8742 50.4022 20.6818 55.1596 21.3846C48.8773 18.6825 43.3678 17.5334 40.6394 17.3956C27.8838 16.7514 22.1129 20.8513 19.799 25.8415ZM57.4186 33.6783C64.3313 40.591 64.3313 51.7987 57.4186 58.7114C50.5059 65.6241 39.2983 65.6241 32.3856 58.7114C25.4729 51.7987 25.4729 40.591 32.3856 33.6783C39.2983 26.7656 50.5059 26.7656 57.4186 33.6783ZM58.8094 60.1021C60.0099 58.9016 61.0228 57.5844 61.848 56.1872L63.9087 58.2478L57.6504 64.5061L55.7497 62.6054C56.8309 61.8891 57.8568 61.0547 58.8094 60.1021ZM54.1736 36.9233C59.2941 42.0439 59.2941 50.3458 54.1736 55.4664C49.0531 60.5869 40.7511 60.5869 35.6306 55.4664C33.7534 53.5891 32.5643 51.2843 32.0635 48.8654H36.7554H37.3632L37.635 48.3218L39.6023 44.3872L40.9323 45.9072L41.8969 47.0096L42.5519 45.6994L44.1658 42.4717L46.3241 48.2273L46.8604 49.6573L47.9403 48.5774L49.8673 46.6504L51.7943 48.5774L53.185 47.1867L50.5627 44.5643L49.8673 43.8689L49.1719 44.5643L47.6295 46.1068L45.2155 39.6696L44.4237 37.5581L43.4152 39.5751L41.4479 43.5097L40.1179 41.9897L39.1533 40.8873L38.4982 42.1975L36.1476 46.8986H31.809C31.6174 43.3125 32.8913 39.6627 35.6306 36.9233C40.7511 31.8028 49.0531 31.8028 54.1736 36.9233ZM55.5643 35.5326C61.4529 41.4212 61.4529 50.9685 55.5643 56.8571C49.6757 62.7457 40.1285 62.7457 34.2399 56.8571C28.3513 50.9685 28.3513 41.4212 34.2399 35.5326C40.1285 29.644 49.6757 29.644 55.5643 35.5326ZM62.0544 63.3471L62.9815 62.42L71.7895 71.2279L70.8623 72.1551L62.0544 63.3471Z" fill="white"/>
</svg>
