<svg width="64" height="64" viewBox="0 0 64 64" fill="none" xmlns="http://www.w3.org/2000/svg">
<path d="M27.7734 29.8056C25.9494 26.0421 23.7476 22.1051 21.47 17.4043C25.6385 17.4043 27.7044 17.4214 30.8141 17.4002C39.0959 17.3435 44.7209 19.4783 48.263 27.985C48.6046 28.8061 48.9612 29.7947 48.9612 29.7947L63.9993 29.7824C61.2216 16.6268 50.6814 5.66289 39.1608 5.56315L0 5.51465L8.39315 21.7737C13.8631 31.0093 15.8026 29.8671 27.7734 29.8056Z" fill="#14213D"/>
<path d="M48.263 36.065C44.7202 44.5709 39.0952 46.7071 30.8141 46.6498C27.7044 46.6286 25.6385 46.6463 21.47 46.6463C23.7476 41.9449 25.9494 38.0072 27.7734 34.245C15.8033 34.1829 13.8638 33.0399 8.39384 42.2762L0 58.4827L39.1608 58.4868C50.6807 58.387 61.2216 47.3712 63.9986 34.2157L48.9612 34.256C48.9619 34.2553 48.6046 35.2438 48.263 36.065Z" fill="#14213D"/>
</svg>
