<svg width="100" height="100" viewBox="0 0 100 100" fill="none" xmlns="http://www.w3.org/2000/svg">
<path d="M75.5 61.5H15H13L11.5 67.5L15 70.5L17 82L21.5 89.5L34.5 97.5L50.5 99L61.5 97.5L69.5 93L78.5 82L80 70.5L83 69V61.5H75.5Z" fill="#B6BDCC"/>
<path d="M73 9L69.5 12.5L78 20.5L83 15.5L88 10.5L87.5 5.5L85 3L80.5 2.5L73 9Z" fill="#B6BDCC"/>
<path d="M80.4838 59.9609H14.8287C12.4677 59.9609 10.5469 61.8818 10.5469 64.2427V67.0972C10.5469 68.9668 11.7512 70.5603 13.4249 71.1428C14.0515 87.1205 27.2457 99.9249 43.3745 99.9249H51.9382C66.3837 99.9249 78.4733 89.6529 81.29 76.0299C81.3049 75.9741 81.3165 75.9168 81.3246 75.8585C81.6323 74.325 81.8247 72.7503 81.8878 71.1428C83.5613 70.5603 84.7656 68.9669 84.7656 67.0972V64.2427C84.7656 61.8818 82.8448 59.9609 80.4838 59.9609ZM80.4838 68.5247H50.5108C49.7226 68.5247 49.0835 69.1638 49.0835 69.9519C49.0835 70.7401 49.7226 71.3792 50.5108 71.3792H79.0189C78.9684 72.3449 78.8664 73.297 78.7172 74.2337H73.3474C72.5592 74.2337 71.9201 74.8728 71.9201 75.661C71.9201 76.4491 72.5592 77.0882 73.3474 77.0882H78.1017C74.9609 88.5901 64.4223 97.0702 51.9382 97.0702H43.3745C28.9001 97.0702 17.0384 85.6714 16.2936 71.379H27.6743C28.4626 71.379 29.1016 70.7399 29.1016 69.9518C29.1016 69.1636 28.4626 68.5245 27.6743 68.5245H14.8287C14.0417 68.5245 13.4014 67.8842 13.4014 67.0972V64.2427C13.4014 63.4557 14.0417 62.8155 14.8287 62.8155H80.4837C81.2707 62.8155 81.911 63.4557 81.911 64.2427V67.0974H81.9111C81.9111 67.8844 81.2708 68.5247 80.4838 68.5247Z" fill="black"/>
<path d="M89.3737 8.62178C89.3737 6.68403 88.619 4.86225 87.2489 3.49198C85.8786 2.12192 84.0569 1.36719 82.1191 1.36719C80.1814 1.36719 78.3596 2.12192 76.9894 3.49198L69.6552 10.8261C69.0844 10.5024 68.4368 10.3301 67.7627 10.3301C66.7355 10.3301 65.7699 10.73 65.0435 11.4564C64.3172 12.1828 63.9172 13.1484 63.9172 14.1756C63.9172 14.7412 64.0385 15.2882 64.2687 15.7868L47.8089 32.2469C46.4905 33.5651 45.7549 35.3902 45.7905 37.2544L45.8563 40.6981L44.1474 42.4069C43.5882 42.966 43.2803 43.7095 43.2803 44.5002C43.2803 45.2909 43.5882 46.0344 44.1473 46.5934C44.7064 47.1525 45.4499 47.4605 46.2406 47.4605C47.0314 47.4605 47.7748 47.1525 48.334 46.5934L50.0428 44.8845L53.4865 44.9504C55.3486 44.9888 57.1758 44.2503 58.4939 42.932L61.3409 40.085C61.7685 39.6574 61.7685 38.964 61.3409 38.5363C60.9133 38.1087 60.2199 38.1087 59.7921 38.5363L56.9451 41.3833C56.0458 42.2829 54.8011 42.7865 53.5283 42.7605L49.6188 42.6857C49.3192 42.6819 49.0341 42.7957 48.8236 43.0063L46.7851 45.0447C46.6395 45.1902 46.4462 45.2704 46.2405 45.2704C46.0348 45.2704 45.8413 45.1903 45.6958 45.0447C45.5504 44.8992 45.4702 44.7058 45.4702 44.5001C45.4702 44.2943 45.5503 44.1009 45.6958 43.9555L47.7343 41.9171C47.9448 41.7065 48.0605 41.4194 48.0548 41.1217L47.98 37.2122C47.9557 35.9404 48.4577 34.6949 49.3573 33.7954L53.5156 29.6371H68.6911L66.865 31.4632C66.4373 31.8909 66.4373 32.5843 66.865 33.012C67.2927 33.4395 67.9859 33.4395 68.4137 33.012L74.9553 26.4704C75.4645 26.7044 76.0147 26.8215 76.5651 26.8215C77.5497 26.8215 78.5346 26.4467 79.2843 25.6971C80.0107 24.9707 80.4106 24.0051 80.4106 22.9779C80.4106 22.3039 80.2383 21.6562 79.9146 21.0854L87.2487 13.7511C88.6191 12.3813 89.3737 10.5595 89.3737 8.62178ZM70.8815 27.4471H55.706L65.6509 17.5022L73.2387 25.09L70.8815 27.4471ZM77.7358 24.1486C77.0904 24.7941 76.0403 24.7941 75.3949 24.1486L66.5923 15.346C66.2796 15.0335 66.1074 14.6178 66.1074 14.1756C66.1074 13.7334 66.2795 13.3177 66.5923 13.0052C67.2376 12.3596 68.2879 12.3596 68.9332 13.0052L77.7357 21.8077C78.3811 22.4531 78.3811 23.5033 77.7358 24.1486ZM85.7001 12.2027L78.4642 19.4387L71.3021 12.2766L78.5382 5.04064C79.4946 4.08409 80.7664 3.55735 82.1191 3.55735C83.4719 3.55735 84.7437 4.08409 85.7001 5.04075C86.6567 5.9972 87.1835 7.26913 87.1835 8.62178C87.1835 9.97454 86.6568 11.2463 85.7001 12.2027Z" fill="black"/>
<path d="M64.3544 36.6179C63.6002 36.6416 63.0321 35.7918 63.3437 35.1046C63.6939 34.2129 65.015 34.2128 65.3652 35.1046C65.6765 35.7918 65.1087 36.6418 64.3544 36.6179Z" fill="black"/>
<path d="M44.3753 57.4353C42.3074 57.4353 40.625 55.753 40.625 53.685C40.625 51.9655 42.8432 49.0822 43.523 48.2394C43.7309 47.9816 44.0443 47.8318 44.3753 47.8318C44.7064 47.8318 45.0198 47.9816 45.2276 48.2394C45.9075 49.0822 48.1257 51.9655 48.1257 53.685C48.1257 55.753 46.4433 57.4353 44.3753 57.4353ZM44.3753 50.7501C43.5338 51.9479 42.8152 53.208 42.8152 53.685C42.8152 54.5452 43.515 55.2452 44.3753 55.2452C45.2356 55.2452 45.9355 54.5452 45.9355 53.685C45.9355 53.208 45.2169 51.948 44.3753 50.7501Z" fill="black"/>
</svg>
