<svg width="101" height="100" viewBox="0 0 101 100" fill="none" xmlns="http://www.w3.org/2000/svg">
<path d="M6.19629 38.9648L4.92676 24.2188H19.6729L35.0049 32.4219L36.665 24.2188L43.7939 12.1094L50.2393 4.00391L62.4463 18.1641L67.1338 31.3477L80.9033 24.2188L94.1846 23.4375L95.8447 25.1953L94.1846 40.4297L87.5439 54.1016L78.3643 62.3047L67.1338 67.7734L52.7783 69.5312H40.9619L23.1885 62.9883L12.6416 54.1016L6.19629 38.9648Z" fill="#B6BDCC"/>
<path d="M50.3564 71.0488C50.0337 71.0488 49.7216 70.9332 49.4766 70.7231C38.951 61.6961 33.155 49.6745 33.155 36.8758C33.155 24.0772 38.951 12.0555 49.4766 3.02851C49.7214 2.81915 50.0329 2.7041 50.355 2.7041C50.6771 2.7041 50.9886 2.81915 51.2334 3.02851C61.7631 12.0569 67.5564 24.0772 67.5564 36.8758C67.5564 49.6745 61.7631 61.6947 51.2361 70.7231C50.9912 70.9332 50.6791 71.0488 50.3564 71.0488ZM50.3564 5.85284C40.9956 14.2636 35.8577 25.238 35.8577 36.8758C35.8577 48.5136 40.9929 59.488 50.3564 67.9001C59.7158 59.488 64.8537 48.5136 64.8537 36.8758C64.8537 25.238 59.7158 14.2636 50.3564 5.85284Z" fill="#14213D"/>
<path d="M77.6673 80.2703C77.3269 80.2705 76.9991 80.1422 76.7492 79.9112C76.4993 79.6801 76.3457 79.3633 76.3193 79.024C76.2928 78.6847 76.3954 78.3479 76.6064 78.0809C76.8175 77.8139 77.1216 77.6364 77.4578 77.5838C78.5215 77.4148 79.5743 77.1829 80.6105 76.8892C80.7816 76.8397 80.9607 76.8245 81.1376 76.8444C81.3146 76.8644 81.4858 76.9191 81.6415 77.0055C81.7972 77.0918 81.9344 77.2081 82.045 77.3476C82.1556 77.4871 82.2376 77.6471 82.2862 77.8184C82.3348 77.9897 82.3491 78.1689 82.3282 78.3457C82.3074 78.5225 82.2518 78.6935 82.1646 78.8487C82.0775 79.004 81.9605 79.1405 81.8204 79.2504C81.6803 79.3603 81.5199 79.4415 81.3484 79.4892C80.2082 79.8125 79.0499 80.0679 77.8794 80.2541C77.8092 80.2648 77.7383 80.2703 77.6673 80.2703Z" fill="#14213D"/>
<path d="M69.3875 80.5405C69.3383 80.5405 69.2891 80.5378 69.2402 80.5324C66.5979 80.2478 64.0011 79.6369 61.5091 78.7135C56.8683 76.9817 52.6597 74.2611 49.1753 70.7405L51.0672 68.8135C54.2794 72.0649 58.1613 74.5776 62.4429 76.177C64.7261 77.0235 67.1056 77.5836 69.5267 77.8446C69.8697 77.8823 70.1853 78.0498 70.4087 78.3128C70.6322 78.5758 70.7466 78.9143 70.7284 79.2589C70.7103 79.6035 70.561 79.9281 70.3112 80.1662C70.0613 80.4042 69.7299 80.5377 69.3848 80.5392L69.3875 80.5405Z" fill="#14213D"/>
<path d="M88.6552 76.3108C88.3568 76.3119 88.0665 76.2141 87.8296 76.0329C87.5926 75.8516 87.4223 75.5971 87.3451 75.3089C87.268 75.0207 87.2884 74.7151 87.4031 74.4397C87.5179 74.1643 87.7205 73.9346 87.9795 73.7865C90.0638 72.5938 92.0232 71.1949 93.8281 69.6108C90.9456 65.4183 87.1589 61.9261 82.7471 59.3919C82.438 59.2138 82.2118 58.9207 82.1179 58.5766C82.0241 58.2324 82.0701 57.8651 82.246 57.5548C82.4218 57.2444 82.7133 57.0162 83.0568 56.9198C83.4002 56.8235 83.7679 56.8669 84.0795 57.0405C89.1973 59.9865 93.5354 64.1151 96.7308 69.0811C96.9063 69.3476 96.9818 69.6676 96.9439 69.9844C96.9061 70.3013 96.7574 70.5945 96.5241 70.8122C94.3405 72.8587 91.9266 74.6445 89.3308 76.1338C89.1252 76.2514 88.8921 76.3124 88.6552 76.3108Z" fill="#14213D"/>
<path d="M27.6822 80.6838C18.7255 80.5615 10.1513 77.0344 3.7011 70.8189C3.46739 70.6016 3.31815 70.3086 3.27981 69.9917C3.24147 69.6749 3.31651 69.3547 3.49164 69.0879C6.68059 64.1123 11.0216 59.9785 16.147 57.0365C16.3018 56.9438 16.4735 56.8831 16.6521 56.8578C16.8307 56.8325 17.0126 56.8433 17.187 56.8894C17.3613 56.9355 17.5247 57.0161 17.6675 57.1264C17.8102 57.2366 17.9295 57.3744 18.0181 57.5314C18.1068 57.6885 18.1632 57.8617 18.1838 58.0409C18.2045 58.2201 18.1891 58.4016 18.1385 58.5748C18.088 58.7479 18.0032 58.9092 17.8893 59.049C17.7755 59.1889 17.6347 59.3046 17.4754 59.3892C13.0593 61.9193 9.27138 65.4138 6.39434 69.6122C19.4254 80.9946 37.2416 80.7244 49.1552 68.8122C49.41 68.566 49.7514 68.4298 50.1057 68.4329C50.46 68.436 50.799 68.5781 51.0495 68.8287C51.3001 69.0792 51.4422 69.4181 51.4453 69.7725C51.4483 70.1268 51.3121 70.4681 51.066 70.723C48.0245 73.8523 44.3904 76.3447 40.3757 78.0548C36.361 79.765 32.0459 80.6587 27.6822 80.6838Z" fill="#14213D"/>
<path d="M53.5957 71.2243C52.4975 71.2243 51.3898 71.1883 50.2727 71.1162C49.9295 71.0942 49.6076 70.9422 49.3726 70.6911C49.1376 70.44 49.0071 70.1088 49.0078 69.7649C49.0067 69.4034 49.1478 69.0559 49.4006 68.7975C49.6534 68.5391 49.9977 68.3905 50.3592 68.3838C50.4857 68.3834 50.6117 68.4007 50.7335 68.4351C63.443 69.1811 74.9362 64.9743 83.1132 56.5851C91.1078 48.3838 95.024 37.1257 94.2065 24.7716C84.3515 24.1939 74.6124 27.1408 66.7308 33.0851C66.4459 33.2847 66.095 33.3667 65.7512 33.3141C65.4073 33.2616 65.097 33.0784 64.8848 32.8028C64.6726 32.5272 64.5748 32.1804 64.6118 31.8345C64.6488 31.4887 64.8178 31.1704 65.0835 30.9459C73.8152 24.3753 84.6561 21.2408 95.547 22.1378C95.8693 22.1582 96.1736 22.2933 96.4049 22.5186C96.6361 22.7439 96.7791 23.0446 96.8078 23.3662C98.024 36.973 93.8538 49.4473 85.0511 58.4743C80.9416 62.6148 76.0355 65.8794 70.6291 68.0708C65.2227 70.2622 59.4282 71.335 53.5957 71.2243Z" fill="#14213D"/>
<path d="M47.124 71.2243C41.2916 71.3338 35.4975 70.2598 30.0918 68.0672C24.686 65.8746 19.7809 62.609 15.6727 58.4675C6.86591 49.4337 2.68888 36.9661 3.91591 23.3661C3.94465 23.0445 4.0876 22.7438 4.31888 22.5185C4.55016 22.2932 4.85447 22.1581 5.17672 22.1378C16.0654 21.2418 26.9039 24.3763 35.6335 30.9459C35.7742 31.054 35.8923 31.1889 35.9809 31.3426C36.0695 31.4964 36.127 31.6662 36.15 31.8422C36.173 32.0181 36.1612 32.1969 36.1151 32.3684C36.069 32.5398 35.9896 32.7004 35.8815 32.8411C35.7733 32.9819 35.6385 33.0999 35.4847 33.1885C35.3309 33.2772 35.1612 33.3346 34.9852 33.3577C34.8092 33.3807 34.6304 33.3688 34.459 33.3227C34.2876 33.2767 34.1269 33.1973 33.9862 33.0891C26.103 27.1479 16.3652 24.201 6.51051 24.7743C5.69969 37.1215 9.61861 48.3783 17.6092 56.581C25.7943 64.9783 37.2862 69.1891 50.0065 68.4364C50.2041 68.3859 50.4106 68.3802 50.6107 68.4198C50.8109 68.4593 50.9997 68.5431 51.1633 68.665C51.3269 68.7869 51.4611 68.9438 51.5563 69.1242C51.6515 69.3047 51.7051 69.5042 51.7132 69.708V69.7675C51.7139 70.1114 51.5835 70.4426 51.3485 70.6937C51.1134 70.9448 50.7916 71.0968 50.4483 71.1188C49.3303 71.1891 48.2222 71.2243 47.124 71.2243Z" fill="#14213D"/>
<path d="M50.1157 97.2973C49.7929 97.2969 49.4808 97.1808 49.236 96.9702C41.1279 90.0027 37.1414 78.3702 36.9766 77.8783C36.8673 77.5401 36.8957 77.1725 37.0556 76.8551C37.2154 76.5377 37.4939 76.296 37.8307 76.1824C38.1675 76.0689 38.5354 76.0926 38.8549 76.2484C39.1743 76.4042 39.4195 76.6795 39.5374 77.0148C39.5739 77.1243 43.1576 87.5635 50.1157 94.127C57.0752 87.5635 60.6563 77.1243 60.6955 77.0148C60.7505 76.8446 60.8387 76.6869 60.9551 76.5511C61.0715 76.4152 61.2138 76.3038 61.3735 76.2233C61.5333 76.1428 61.7075 76.0949 61.886 76.0822C62.0645 76.0696 62.2437 76.0925 62.4132 76.1497C62.5827 76.2069 62.7392 76.2971 62.8736 76.4153C63.008 76.5334 63.1176 76.677 63.196 76.8378C63.2744 76.9986 63.3201 77.1734 63.3305 77.352C63.3408 77.5307 63.3156 77.7095 63.2563 77.8783C63.0914 78.3702 59.1063 90.0027 50.9968 96.9702C50.7517 97.1811 50.4391 97.2972 50.1157 97.2973Z" fill="#14213D"/>
<path d="M79.8051 26.4323C79.4842 26.4319 79.174 26.3173 78.9299 26.1091C78.6858 25.9009 78.5237 25.6126 78.4727 25.2958C77.9916 22.3228 76.3456 14.3837 74.1929 10.9904C71.7389 11.6661 64.6997 13.8945 62.0308 17.658C61.8224 17.9474 61.5081 18.1426 61.1564 18.2013C60.8047 18.26 60.444 18.1772 60.153 17.9711C59.862 17.765 59.6643 17.4522 59.6029 17.1009C59.5416 16.7497 59.6215 16.3884 59.8254 16.0958C63.6551 10.6877 74.001 8.235 74.4389 8.13365C74.6838 8.07555 74.9401 8.08702 75.1789 8.16677C75.4176 8.24652 75.6294 8.39137 75.7902 8.585C79.1321 12.6039 81.0605 24.3661 81.1402 24.8647C81.1686 25.04 81.1621 25.2191 81.1213 25.3919C81.0804 25.5646 81.0058 25.7276 80.9019 25.8716C80.798 26.0155 80.6668 26.1376 80.5157 26.2308C80.3646 26.324 80.1966 26.3865 80.0213 26.4147C79.9499 26.4266 79.8775 26.4325 79.8051 26.4323Z" fill="#14213D"/>
<path d="M20.9064 26.4324C20.834 26.4326 20.7617 26.4267 20.6902 26.4149C20.515 26.3866 20.347 26.3241 20.1959 26.2309C20.0448 26.1377 19.9135 26.0156 19.8096 25.8717C19.7057 25.7277 19.6312 25.5647 19.5903 25.392C19.5494 25.2192 19.5429 25.0401 19.5713 24.8649C19.6524 24.3662 21.5794 12.604 24.9294 8.58512C25.0896 8.39292 25.3 8.24895 25.5371 8.16926C25.7743 8.08957 26.0289 8.07728 26.2727 8.13377C26.7105 8.23512 37.051 10.6878 40.8835 16.0959C41.0873 16.3885 41.1673 16.7498 41.1059 17.1011C41.0445 17.4523 40.8468 17.7651 40.5558 17.9712C40.2648 18.1773 39.9042 18.2601 39.5525 18.2014C39.2007 18.1428 38.8864 17.9475 38.6781 17.6581C36.0051 13.8865 28.9713 11.6676 26.5159 10.9905C24.3619 14.3851 22.7173 22.3216 22.2375 25.2959C22.1865 25.6125 22.0247 25.9006 21.7808 26.1088C21.537 26.317 21.2271 26.4317 20.9064 26.4324Z" fill="#14213D"/>
</svg>
