<svg width="84" height="84" viewBox="0 0 84 84" fill="none" xmlns="http://www.w3.org/2000/svg">
<path fill-rule="evenodd" clip-rule="evenodd" d="M62.1148 10.9333L66.1259 13.8504C70.7327 17.2117 73.4602 22.5685 73.4685 28.2712V35.7071C73.4685 37.445 72.0596 38.8539 70.3217 38.8539H64.0281V42.1937C65.2809 42.6366 66.1204 43.8187 66.1259 45.1475V59.8326C66.1259 62.7291 63.7778 65.0772 60.8813 65.0772C57.9847 65.0772 55.6366 62.7291 55.6366 59.8326V45.1475C55.6421 43.8187 56.4817 42.6366 57.7345 42.1937V38.8539H51.4408C49.7029 38.8539 48.294 37.445 48.294 35.7071V28.2712C48.3023 22.5685 51.0298 17.2117 55.6366 13.8504L59.6467 10.9333C60.3824 10.3982 61.3791 10.3982 62.1148 10.9333ZM59.8323 32.5603V42.0007H61.9302V32.5603C61.9302 31.981 61.4606 31.5113 60.8813 31.5113C60.3019 31.5113 59.8323 31.981 59.8323 32.5603ZM60.8813 62.9794C62.6192 62.9794 64.0281 61.5705 64.0281 59.8326V45.1475C64.0281 44.5682 63.5584 44.0986 62.9791 44.0986H58.7834C58.2041 44.0986 57.7345 44.5682 57.7345 45.1475V59.8326C57.7345 61.5705 59.1433 62.9794 60.8813 62.9794ZM70.3217 36.756C70.901 36.756 71.3706 36.2864 71.3706 35.7071V28.2712C71.3624 23.2394 68.9557 18.513 64.8913 15.5466L60.8813 12.6305L56.8722 15.5466C52.8072 18.5126 50.4001 23.2391 50.3919 28.2712V35.7071C50.3919 36.2864 50.8615 36.756 51.4408 36.756H57.7345V32.5603C57.7345 30.8223 59.1433 29.4135 60.8813 29.4135C62.6192 29.4135 64.0281 30.8223 64.0281 32.5603V36.756H70.3217ZM61.9302 59.8326C61.9302 60.4119 61.4605 60.8815 60.8812 60.8815C60.3019 60.8815 59.8323 60.4119 59.8323 59.8326C59.8323 59.2533 60.3019 58.7836 60.8812 58.7836C61.4605 58.7836 61.9302 59.2533 61.9302 59.8326ZM60.8812 15.7773C60.3019 15.7773 59.8323 16.247 59.8323 16.8263V26.2667C59.8323 26.846 60.3019 27.3156 60.8812 27.3156C61.4605 27.3156 61.9302 26.846 61.9302 26.2667V16.8263C61.9302 16.247 61.4605 15.7773 60.8812 15.7773ZM46.1962 73.4687H12.6303C11.4717 73.4687 10.5324 72.5294 10.5324 71.3708V69.5226C10.5037 67.3565 11.7545 65.377 13.7233 64.473C14.6706 64.0427 15.7293 63.9212 16.7494 64.1258C17.7424 62.7552 19.3292 61.9398 21.0217 61.9304C22.0903 61.9302 23.1329 62.2599 24.007 62.8745C24.9641 61.3079 26.5538 60.2337 28.3643 59.9301V56.7781C28.3588 55.0865 27.5398 53.5009 26.1636 52.5173L25.0297 51.7065C25.0043 51.7297 24.979 51.7531 24.9537 51.7764C24.857 51.8657 24.7605 51.9548 24.6574 52.0379C23.3956 53.0222 21.8383 53.5511 20.2382 53.5389C18.2152 53.5394 16.2748 52.7365 14.8435 51.3068C10.7128 47.1405 10.2733 43.2416 10.6373 40.701C10.7391 39.9493 11.2334 39.3086 11.9348 39.0196C12.6283 38.7291 13.4243 38.8319 14.0212 39.2892C15.0072 40.036 16.8271 40.7829 19.8878 40.0885C21.8063 39.627 23.8259 40.2119 25.2007 41.6273C27.5035 43.8296 27.9818 47.3296 26.3545 50.0691L27.3867 50.8033C27.7377 51.0585 28.0649 51.345 28.3643 51.6593V51.5334C28.3691 49.5426 29.1809 47.6389 30.6143 46.2572C28.7174 43.4879 29.1012 39.753 31.5216 37.4273C32.8956 36.0097 34.9158 35.4227 36.8355 35.8833C39.8973 36.5777 41.7151 35.8308 42.7022 35.084C43.2991 34.626 44.0956 34.5227 44.7895 34.8134C45.4951 35.1017 45.9931 35.7448 46.0955 36.5001C46.4542 39.0406 46.0147 42.9416 41.885 47.1037C40.4529 48.5324 38.5122 49.3342 36.4893 49.3327C34.8893 49.3449 33.3321 48.8164 32.0702 47.8327C32.0673 47.8302 32.0646 47.8276 32.0618 47.825C32.0533 47.8172 32.045 47.8094 32.0356 47.8023C31.0334 48.7856 30.4667 50.1294 30.4622 51.5334V59.9301C32.2755 60.231 33.8623 61.32 34.7953 62.9038C35.6707 62.2701 36.724 61.9294 37.8047 61.9304C39.4916 61.936 41.0728 62.7525 42.0539 64.1248C43.0814 63.9198 44.1473 64.0416 45.1021 64.473C47.0715 65.3765 48.3228 67.3561 48.294 69.5226V71.3708C48.294 72.5294 47.3548 73.4687 46.1962 73.4687ZM36.3719 37.9329C35.1434 37.624 33.8442 38.0069 32.9796 38.9325C31.9858 39.895 31.453 41.2376 31.5163 42.6195C31.5637 43.4514 31.8296 44.2561 32.2873 44.9524L36.1453 42.1968C36.4492 41.9615 36.8574 41.9113 37.2093 42.0659C37.5612 42.2205 37.8004 42.5551 37.8327 42.9381C37.8649 43.3211 37.6852 43.6911 37.3641 43.9024L33.7883 46.4565C35.9183 47.7388 38.6492 47.3964 40.3966 45.6279C43.9179 42.0783 44.3091 38.8665 44.0165 36.7959C42.6266 37.7756 40.2204 38.8014 36.3719 37.9329ZM12.7582 40.957C12.4205 43.0643 12.8086 46.2761 16.332 49.8278C18.1809 51.7137 21.1271 51.974 23.278 50.4414L21.4665 49.1471C21.1455 48.9357 20.9657 48.5658 20.998 48.1828C21.0303 47.7998 21.2694 47.4651 21.6213 47.3105C21.9732 47.156 22.3815 47.2062 22.6854 47.4415L24.65 48.8439C24.9883 48.2193 25.1822 47.5268 25.2175 46.8174C25.279 45.4333 24.7426 44.0895 23.7448 43.1283C22.8799 42.2045 21.582 41.8226 20.3546 42.1307C16.5061 42.9993 14.0998 41.9744 12.7582 40.957ZM14.5708 66.3926C13.3622 66.9607 12.6017 68.1874 12.6303 69.5226V71.3708H46.1962V69.5226C46.2241 68.1884 45.4642 66.9628 44.2567 66.3947C43.704 66.1375 43.0835 66.064 42.4861 66.1849C41.671 66.3473 40.8361 66.0194 40.3494 65.3458C39.3629 63.9443 37.4278 63.6063 36.0247 64.5905C35.534 64.9367 34.9214 65.0633 34.3338 64.9398C33.7708 64.8216 33.284 64.4711 32.9932 63.9748C32.2467 62.7068 30.8851 61.9284 29.4137 61.9284C27.9424 61.9284 26.5808 62.7068 25.8343 63.9748C25.5437 64.4707 25.0573 64.8208 24.4948 64.9388C23.9071 65.0618 23.2947 64.9353 22.8039 64.5895C21.4012 63.6058 19.467 63.9432 18.4802 65.3437C17.9926 66.0174 17.1571 66.3452 16.3414 66.1828C16.1556 66.1454 15.9666 66.1265 15.7771 66.1262C15.3607 66.1287 14.9495 66.2195 14.5708 66.3926Z" fill="white"/>
</svg>
