<svg width="64" height="64" viewBox="0 0 64 64" fill="none" xmlns="http://www.w3.org/2000/svg">
<path d="M48.1754 7.39997C47.7685 7.12392 47.2143 7.18731 46.881 7.55538C46.5498 7.92139 46.5355 8.47758 46.8483 8.862C49.891 12.5488 51.5698 17.2191 51.5698 22.0121C51.5698 24.9954 51.4266 28.3652 49.6906 30.6268C46.8565 34.3176 43.8916 35.0906 41.8999 35.0906C39.3869 35.0906 37.4791 33.8944 36.6121 32.872C30.6985 25.9115 41.4378 13.8513 41.5482 13.7327C41.7956 13.4546 41.8713 13.062 41.7404 12.7144L40.7139 9.97846C40.5913 9.66151 40.3234 9.42432 39.9901 9.35275C39.6609 9.28527 39.3153 9.38547 39.0781 9.62266L35.743 12.9577L37.657 5.9543C37.751 5.61078 37.6529 5.24067 37.4014 4.98711L32.7086 0.294313C32.3201 -0.094198 31.6882 -0.094198 31.2997 0.294313L26.6069 4.98711C26.3534 5.24067 26.2552 5.60873 26.3513 5.9543L28.2612 12.9598L24.9281 9.62471C24.6889 9.38751 24.3454 9.28527 24.0141 9.35479C23.6808 9.42636 23.4109 9.65947 23.2903 9.9805L22.2617 12.7164C22.1309 13.064 22.2065 13.4546 22.456 13.7347C22.5644 13.8574 33.3036 25.9135 27.3942 32.874C26.5251 33.8964 24.6194 35.0926 22.1063 35.0926C20.1147 35.0926 17.1497 34.3197 14.3157 30.6288C12.5796 28.3693 12.4345 24.9975 12.4345 22.0141C12.4345 17.2211 14.1112 12.5508 17.1538 8.86404C17.4687 8.47962 17.4544 7.92139 17.1232 7.55742C16.7899 7.18936 16.2357 7.12392 15.8268 7.39997C7.26521 13.1724 2.15527 22.7727 2.15527 33.0846C2.15527 49.809 15.2501 63.3885 31.9643 63.9999C31.9765 63.9999 31.9888 63.9999 32.0011 63.9999C32.0133 63.9999 32.0256 63.9999 32.0379 63.9999C48.752 63.3885 61.8448 49.809 61.8448 33.0846C61.8448 22.7727 56.7329 13.1724 48.1754 7.39997Z" fill="#14213D"/>
</svg>
