<svg width="90" height="90" viewBox="0 0 90 90" fill="none" xmlns="http://www.w3.org/2000/svg">
<path d="M29.1797 0H13.1836C5.91416 0 0 5.91416 0 13.1836V29.1797C0 36.4491 5.91416 42.3633 13.1836 42.3633H29.1797C36.4491 42.3633 42.3633 36.4491 42.3633 29.1797V13.1836C42.3633 5.91416 36.4491 0 29.1797 0ZM37.0898 29.1797C37.0898 33.5413 33.5413 37.0898 29.1797 37.0898H13.1836C8.82193 37.0898 5.27344 33.5413 5.27344 29.1797V13.1836C5.27344 8.82193 8.82193 5.27344 13.1836 5.27344H29.1797C33.5413 5.27344 37.0898 8.82193 37.0898 13.1836V29.1797Z" fill="white"/>
<path d="M76.8164 47.6367H60.8203C53.5509 47.6367 47.6367 53.5509 47.6367 60.8203V76.8164C47.6367 84.0858 53.5509 90 60.8203 90H76.8164C84.0858 90 90 84.0858 90 76.8164V60.8203C90 53.5509 84.0858 47.6367 76.8164 47.6367ZM84.7266 76.8164C84.7266 81.1781 81.1781 84.7266 76.8164 84.7266H60.8203C56.4587 84.7266 52.9102 81.1781 52.9102 76.8164V60.8203C52.9102 56.4587 56.4587 52.9102 60.8203 52.9102H76.8164C81.1781 52.9102 84.7266 56.4587 84.7266 60.8203V76.8164Z" fill="white"/>
<path d="M76.8164 0H60.8203C53.5509 0 47.6367 5.91416 47.6367 13.1836V29.1797C47.6367 39.3569 39.3569 47.6367 29.1797 47.6367H13.1836C5.91416 47.6367 0 53.5509 0 60.8203V76.8164C0 84.0858 5.91416 90 13.1836 90H29.1797C36.4491 90 42.3633 84.0858 42.3633 76.8164V60.8203C42.3633 50.6431 50.6431 42.3633 60.8203 42.3633H76.8164C84.0858 42.3633 90 36.4491 90 29.1797V13.1836C90 5.91416 84.0858 0 76.8164 0ZM37.0898 60.8203V76.8164C37.0898 81.1781 33.5413 84.7266 29.1797 84.7266H13.1836C8.82193 84.7266 5.27344 81.1781 5.27344 76.8164V60.8203C5.27344 56.4587 8.82193 52.9102 13.1836 52.9102H29.1797C32.8407 52.9102 36.3108 52.0768 39.4102 50.5898C37.9232 53.6892 37.0898 57.1593 37.0898 60.8203ZM84.7266 29.1797C84.7266 33.5413 81.1781 37.0898 76.8164 37.0898H60.8203C57.1593 37.0898 53.6892 37.9232 50.5898 39.4102C52.0768 36.3108 52.9102 32.8407 52.9102 29.1797V13.1836C52.9102 8.82193 56.4587 5.27344 60.8203 5.27344H76.8164C81.1781 5.27344 84.7266 8.82193 84.7266 13.1836V29.1797Z" fill="white"/>
</svg>
