<svg width="88" height="88" viewBox="0 0 88 88" fill="none" xmlns="http://www.w3.org/2000/svg">
<g filter="url(#filter0_d)">
<path d="M68.1842 7.46045L74.6052 8.16938L68.1842 8.87571L67.4753 8.16938L68.1842 7.46045Z" fill="white"/>
<path d="M83.1063 7.46045L76.6826 8.16938L83.1063 8.87571L83.8125 8.16938L83.1063 7.46045Z" fill="white"/>
<path d="M80.4188 2.3916L76.3787 7.43461L81.4184 3.39137V2.3916H80.4188Z" fill="white"/>
<path d="M81.4184 12.9451L76.3787 8.90186L80.4188 13.9449H81.4184V12.9451Z" fill="white"/>
<path d="M70.8693 2.3916L74.9094 7.43461L69.8696 3.39137V2.3916H70.8693Z" fill="white"/>
<path d="M74.938 0.706333L75.6442 7.13085L76.3505 0.706333L75.6442 0L74.938 0.706333Z" fill="white"/>
<path d="M74.938 15.6304L75.6442 9.2085L76.3505 15.6304L75.6442 16.3367L74.938 15.6304Z" fill="white"/>
<path d="M72.5411 18.4321L62.7681 22.2391L73.1331 20.6498L73.9458 19.2423L72.5411 18.4321Z" fill="white"/>
<path d="M49.1469 24.7011L59.512 23.1118L49.7415 26.9187L48.3342 26.1059L49.1469 24.7011Z" fill="white"/>
<path d="M68.8904 13.3008L62.3318 21.4833L70.5132 14.9238V13.3008H68.8904Z" fill="white"/>
<path d="M51.7668 30.4267L59.9483 23.8672L53.3896 32.0497H51.7668V30.4267Z" fill="white"/>
<path d="M63.1655 10.6805L61.5764 21.047L65.3828 11.2726L64.5701 9.86768L63.1655 10.6805Z" fill="white"/>
<path d="M56.8977 34.0755L60.7041 24.3037L59.1151 34.6702L57.7104 35.4804L56.8977 34.0755Z" fill="white"/>
<path d="M56.8977 11.2726L60.7041 21.047L59.1151 10.6805L57.7104 9.86768L56.8977 11.2726Z" fill="white"/>
<path d="M63.1655 34.6702L61.5764 24.3037L65.3828 34.0755L64.5701 35.4804L63.1655 34.6702Z" fill="white"/>
<path d="M51.7668 14.9238L59.9483 21.4833L53.3896 13.3008H51.7668V14.9238Z" fill="white"/>
<path d="M68.8904 32.0497L62.3318 23.8672L70.5132 30.4267V32.0497H68.8904Z" fill="white"/>
<path d="M49.1469 20.6498L59.512 22.2391L49.7415 18.4321L48.3342 19.2423L49.1469 20.6498Z" fill="white"/>
<path d="M72.5411 26.9187L62.7681 23.1118L73.1331 24.7011L73.9458 26.1059L72.5411 26.9187Z" fill="white"/>
<path d="M11.4049 42.707C7.18823 42.707 4.00757 45.7739 4.00757 49.8379C4.00757 53.9019 7.18044 56.9713 11.4049 56.9713C15.6293 56.9713 18.7658 53.9045 18.7658 49.8379C18.7658 45.7713 15.5956 42.707 11.4049 42.707ZM15.4086 49.8379C15.4086 52.1387 13.7261 53.8084 11.4049 53.8084C9.08365 53.8084 7.36739 52.1387 7.36739 49.8379C7.36739 47.5371 9.06807 45.8699 11.4049 45.8699C13.7417 45.8699 15.4008 47.5397 15.4008 49.8379H15.4086Z" fill="white"/>
<path d="M36.8997 45.8699C37.4439 45.8539 37.9851 45.9545 38.4872 46.165C38.9892 46.3755 39.4404 46.6911 39.8104 47.0904L40.3634 47.6747L42.6353 45.47L42.1316 44.9039C40.8723 43.4861 38.9899 42.707 36.827 42.707C32.6311 42.707 29.4661 45.7739 29.4661 49.8379C29.4661 53.9019 32.6234 56.9713 36.8114 56.9713C38.9717 56.9713 40.8619 56.1923 42.1316 54.7562L42.6353 54.1901L40.3634 51.9854L39.8104 52.5671C39.4425 52.9706 38.9922 53.2902 38.49 53.5043C37.9878 53.7185 37.4455 53.8222 36.8997 53.8084C34.5395 53.8084 32.8259 52.1387 32.8259 49.8379C32.8259 47.5371 34.5395 45.8699 36.8997 45.8699Z" fill="white"/>
<path d="M63.7184 42.8472V50.6168C63.7184 53.4448 62.2695 53.8083 61.0077 53.8083C59.12 53.8083 58.3125 52.8527 58.3125 50.6168V42.8472H54.9553V50.6895C54.9553 54.6211 57.2116 56.9712 60.9895 56.9712C64.7673 56.9712 67.0237 54.6341 67.0237 50.6895V42.8472H63.7184Z" fill="white"/>
<path d="M11.3454 34.1819C13.5056 34.1819 15.3959 33.4029 16.6655 31.9668L17.1692 31.3981L14.8973 29.196L14.3443 29.7777C13.976 30.1804 13.5255 30.4994 13.0234 30.7131C12.5213 30.9268 11.9792 31.0302 11.4337 31.0164C9.07348 31.0164 7.35982 29.3493 7.35982 27.0485C7.35982 24.7477 9.06829 23.0806 11.4337 23.0806C11.9778 23.0645 12.5191 23.1651 13.0211 23.3756C13.5232 23.5861 13.9743 23.9017 14.3443 24.3011L14.8973 24.8853L17.1692 22.6806L16.6655 22.1119C15.4062 20.6967 13.5238 19.915 11.361 19.915C7.16508 19.915 4 22.9819 4 27.0485C4 31.1151 7.15729 34.1819 11.3454 34.1819Z" fill="white"/>
<path d="M33.1739 30.2686H35.4432C35.573 30.2686 35.7028 30.2686 35.8275 30.2686L38.4836 34.0496H42.3576L39.0808 29.4117C40.5816 28.5366 41.4176 27.0382 41.4176 25.1815C41.4176 22.029 39.1302 20.0684 35.4458 20.0684H29.8167V34.0496H33.1739V30.2686ZM38.0474 25.1711C38.0474 26.5188 37.1776 27.1758 35.3887 27.1758H33.1739V23.1845H35.3887C38.0474 23.1845 38.0474 24.6284 38.0474 25.1711Z" fill="white"/>
<path d="M13.2902 73.6378C13.2902 76.4658 11.8413 76.8293 10.5769 76.8293C8.68922 76.8293 7.88432 75.8737 7.88432 73.6378V65.8682H4.5271V73.7079C4.5271 77.6447 6.78342 79.9818 10.5613 79.9818C14.3391 79.9818 16.598 77.6447 16.598 73.7079V65.8682H13.2902V73.6378Z" fill="white"/>
<path d="M36.331 71.3502C34.4304 70.8905 33.7553 70.6153 33.7553 69.992C33.7553 68.9351 35.3132 68.8209 35.9701 68.8209C37.0243 68.83 38.0546 69.136 38.943 69.7038L39.7401 70.2231L40.9319 67.3381L40.4126 66.9719C39.2883 66.1929 37.6318 65.7358 35.9778 65.7358C31.891 65.7358 30.4396 68.073 30.4396 70.0699C30.4396 73.2354 33.2957 73.9288 35.3729 74.4352C37.2631 74.8948 37.933 75.1675 37.933 75.7881C37.933 76.7983 36.3465 76.9073 35.6637 76.9073C34.3291 76.9073 32.9322 76.4243 32.1065 75.6764L31.3276 74.9623L29.967 77.8344L30.3929 78.2291C31.5509 79.3042 33.6255 80.0001 35.6767 80.0001C39.805 80.0001 41.2694 77.663 41.2694 75.6816C41.2487 72.5447 38.4081 71.8539 36.331 71.3502Z" fill="white"/>
</g>
<defs>
<filter id="filter0_d" x="0" y="0" width="87.8125" height="88.0001" filterUnits="userSpaceOnUse" color-interpolation-filters="sRGB">
<feFlood flood-opacity="0" result="BackgroundImageFix"/>
<feColorMatrix in="SourceAlpha" type="matrix" values="0 0 0 0 0 0 0 0 0 0 0 0 0 0 0 0 0 0 127 0"/>
<feOffset dy="4"/>
<feGaussianBlur stdDeviation="2"/>
<feColorMatrix type="matrix" values="0 0 0 0 0 0 0 0 0 0 0 0 0 0 0 0 0 0 0.25 0"/>
<feBlend mode="normal" in2="BackgroundImageFix" result="effect1_dropShadow"/>
<feBlend mode="normal" in="SourceGraphic" in2="effect1_dropShadow" result="shape"/>
</filter>
</defs>
</svg>
