<svg width="64" height="64" viewBox="0 0 64 64" fill="none" xmlns="http://www.w3.org/2000/svg">
<path d="M51.3473 5.96854L56.4842 6.53568L51.3473 7.10075L50.7803 6.53568L51.3473 5.96854Z" fill="#A21915"/>
<path d="M63.2852 5.96854L58.1462 6.53568L63.2852 7.10075L63.8501 6.53568L63.2852 5.96854Z" fill="#A21915"/>
<path d="M61.1351 1.91333L57.9031 5.94774L61.9349 2.71315V1.91333H61.1351Z" fill="#A21915"/>
<path d="M61.9349 10.3561L57.9031 7.12152L61.1351 11.1559H61.9349V10.3561Z" fill="#A21915"/>
<path d="M53.4955 1.91333L56.7276 5.94774L52.6958 2.71315V1.91333H53.4955Z" fill="#A21915"/>
<path d="M56.7505 0.565066L57.3155 5.70468L57.8805 0.565066L57.3155 0L56.7505 0.565066Z" fill="#A21915"/>
<path d="M56.7505 12.5042L57.3155 7.36664L57.8805 12.5042L57.3155 13.0692L56.7505 12.5042Z" fill="#A21915"/>
<path d="M54.8329 14.7457L47.0144 17.7913L55.3065 16.5199L55.9566 15.3939L54.8329 14.7457Z" fill="#A21915"/>
<path d="M36.1177 19.7607L44.4097 18.4893L36.5934 21.5349L35.4675 20.8846L36.1177 19.7607Z" fill="#A21915"/>
<path d="M51.9125 10.6407L46.6655 17.1867L53.2107 11.9391V10.6407H51.9125Z" fill="#A21915"/>
<path d="M38.2136 24.3415L44.7588 19.0938L39.5119 25.6399H38.2136V24.3415Z" fill="#A21915"/>
<path d="M47.3325 8.54456L46.0613 16.8377L49.1064 9.01822L48.4563 7.89432L47.3325 8.54456Z" fill="#A21915"/>
<path d="M42.3181 27.2603L45.3632 19.4429L44.092 27.736L42.9683 28.3842L42.3181 27.2603Z" fill="#A21915"/>
<path d="M42.3181 9.01822L45.3632 16.8377L44.092 8.54456L42.9683 7.89432L42.3181 9.01822Z" fill="#A21915"/>
<path d="M47.3325 27.736L46.0613 19.4429L49.1064 27.2603L48.4563 28.3842L47.3325 27.736Z" fill="#A21915"/>
<path d="M38.2136 11.9391L44.7588 17.1867L39.5119 10.6407H38.2136V11.9391Z" fill="#A21915"/>
<path d="M51.9125 25.6399L46.6655 19.0938L53.2107 24.3415V25.6399H51.9125Z" fill="#A21915"/>
<path d="M36.1177 16.5199L44.4097 17.7913L36.5934 14.7457L35.4675 15.3939L36.1177 16.5199Z" fill="#A21915"/>
<path d="M54.8329 21.5349L47.0144 18.4893L55.3065 19.7607L55.9566 20.8846L54.8329 21.5349Z" fill="#A21915"/>
<path d="M5.92395 34.1657C2.55063 34.1657 0.00610352 36.6192 0.00610352 39.8704C0.00610352 43.1216 2.5444 45.5771 5.92395 45.5771C9.30351 45.5771 11.8127 43.1237 11.8127 39.8704C11.8127 36.6171 9.2765 34.1657 5.92395 34.1657ZM9.12695 39.8704C9.12695 41.711 7.78094 43.0468 5.92395 43.0468C4.06697 43.0468 2.69396 41.711 2.69396 39.8704C2.69396 38.0298 4.0545 36.696 5.92395 36.696C7.79341 36.696 9.12072 38.0318 9.12072 39.8704H9.12695Z" fill="#18223B"/>
<path d="M26.3197 36.696C26.755 36.6832 27.1881 36.7637 27.5897 36.9321C27.9913 37.1005 28.3523 37.3529 28.6482 37.6724L29.0907 38.1399L30.9082 36.3761L30.5052 35.9232C29.4978 34.7889 27.9919 34.1657 26.2616 34.1657C22.9049 34.1657 20.3728 36.6192 20.3728 39.8704C20.3728 43.1216 22.8986 45.5771 26.2491 45.5771C27.9773 45.5771 29.4895 44.9539 30.5052 43.8051L30.9082 43.3522L29.0907 41.5884L28.6482 42.0538C28.3539 42.3765 27.9937 42.6322 27.592 42.8036C27.1902 42.9749 26.7563 43.0578 26.3197 43.0468C24.4316 43.0468 23.0607 41.711 23.0607 39.8704C23.0607 38.0298 24.4316 36.696 26.3197 36.696Z" fill="#18223B"/>
<path d="M47.7748 34.2779V40.4936C47.7748 42.756 46.6158 43.0468 45.6063 43.0468C44.0962 43.0468 43.4502 42.2823 43.4502 40.4936V34.2779H40.7644V40.5518C40.7644 43.697 42.5695 45.5771 45.5917 45.5771C48.614 45.5771 50.4191 43.7074 50.4191 40.5518V34.2779H47.7748Z" fill="#18223B"/>
<path d="M5.87631 27.3455C7.60451 27.3455 9.11669 26.7222 10.1324 25.5734L10.5354 25.1184L8.71787 23.3568L8.27544 23.8221C7.98078 24.1442 7.62043 24.3994 7.21874 24.5704C6.81704 24.7413 6.38334 24.8241 5.94693 24.813C4.05879 24.813 2.68785 23.4793 2.68785 21.6387C2.68785 19.7981 4.05463 18.4644 5.94693 18.4644C6.38224 18.4515 6.81527 18.532 7.2169 18.7004C7.61853 18.8688 7.97946 19.1212 8.27544 19.4408L8.71787 19.9082L10.5354 18.1444L10.1324 17.6895C9.125 16.5573 7.61905 15.9319 5.88877 15.9319C2.53207 15.9319 0 18.3854 0 21.6387C0 24.892 2.52584 27.3455 5.87631 27.3455Z" fill="#18223B"/>
<path d="M23.3391 24.2148H25.1545C25.2584 24.2148 25.3623 24.2148 25.462 24.2148L27.5869 27.2395H30.686L28.0647 23.5292C29.2653 22.8291 29.9341 21.6304 29.9341 20.145C29.9341 17.623 28.1041 16.0545 25.1566 16.0545H20.6533V27.2395H23.3391V24.2148ZM27.2379 20.1367C27.2379 21.2149 26.5421 21.7405 25.1109 21.7405H23.3391V18.5475H25.1109C27.2379 18.5475 27.2379 19.7025 27.2379 20.1367Z" fill="#18223B"/>
<path d="M7.43207 58.9102C7.43207 61.1726 6.27301 61.4634 5.26143 61.4634C3.75133 61.4634 3.10741 60.6989 3.10741 58.9102V52.6945H0.421631V58.9663C0.421631 62.1157 2.22669 63.9854 5.24897 63.9854C8.27125 63.9854 10.0784 62.1157 10.0784 58.9663V52.6945H7.43207V58.9102Z" fill="#18223B"/>
<path d="M25.8648 57.08C24.3443 56.7123 23.8043 56.4921 23.8043 55.9935C23.8043 55.148 25.0506 55.0566 25.5761 55.0566C26.4195 55.0639 27.2438 55.3087 27.9544 55.7629L28.5921 56.1784L29.5456 53.8703L29.1301 53.5774C28.2307 52.9542 26.9055 52.5886 25.5823 52.5886C22.3129 52.5886 21.1517 54.4583 21.1517 56.0558C21.1517 58.5882 23.4366 59.1429 25.0983 59.548C26.6105 59.9157 27.1464 60.1339 27.1464 60.6304C27.1464 61.4385 25.8773 61.5258 25.331 61.5258C24.2633 61.5258 23.1458 61.1393 22.4853 60.541L21.8621 59.9697L20.7737 62.2674L21.1143 62.5832C22.0408 63.4432 23.7004 64 25.3414 64C28.6441 64 29.8156 62.1303 29.8156 60.5452C29.799 58.0356 27.5266 57.483 25.8648 57.08Z" fill="#18223B"/>
</svg>
