<svg width="896" height="104" viewBox="0 0 896 104" fill="none" xmlns="http://www.w3.org/2000/svg">
<path d="M29.1797 7H13.1836C5.91416 7 0 12.9142 0 20.1836V36.1797C0 43.4491 5.91416 49.3633 13.1836 49.3633H29.1797C36.4491 49.3633 42.3633 43.4491 42.3633 36.1797V20.1836C42.3633 12.9142 36.4491 7 29.1797 7ZM37.0898 36.1797C37.0898 40.5413 33.5413 44.0898 29.1797 44.0898H13.1836C8.82193 44.0898 5.27344 40.5413 5.27344 36.1797V20.1836C5.27344 15.8219 8.82193 12.2734 13.1836 12.2734H29.1797C33.5413 12.2734 37.0898 15.8219 37.0898 20.1836V36.1797Z" fill="white"/>
<path d="M76.8164 54.6367H60.8203C53.5509 54.6367 47.6367 60.5509 47.6367 67.8203V83.8164C47.6367 91.0858 53.5509 97 60.8203 97H76.8164C84.0858 97 90 91.0858 90 83.8164V67.8203C90 60.5509 84.0858 54.6367 76.8164 54.6367ZM84.7266 83.8164C84.7266 88.1781 81.1781 91.7266 76.8164 91.7266H60.8203C56.4587 91.7266 52.9102 88.1781 52.9102 83.8164V67.8203C52.9102 63.4587 56.4587 59.9102 60.8203 59.9102H76.8164C81.1781 59.9102 84.7266 63.4587 84.7266 67.8203V83.8164Z" fill="white"/>
<path d="M76.8164 7H60.8203C53.5509 7 47.6367 12.9142 47.6367 20.1836V36.1797C47.6367 46.3569 39.3569 54.6367 29.1797 54.6367H13.1836C5.91416 54.6367 0 60.5509 0 67.8203V83.8164C0 91.0858 5.91416 97 13.1836 97H29.1797C36.4491 97 42.3633 91.0858 42.3633 83.8164V67.8203C42.3633 57.6431 50.6431 49.3633 60.8203 49.3633H76.8164C84.0858 49.3633 90 43.4491 90 36.1797V20.1836C90 12.9142 84.0858 7 76.8164 7ZM37.0898 67.8203V83.8164C37.0898 88.1781 33.5413 91.7266 29.1797 91.7266H13.1836C8.82193 91.7266 5.27344 88.1781 5.27344 83.8164V67.8203C5.27344 63.4587 8.82193 59.9102 13.1836 59.9102H29.1797C32.8407 59.9102 36.3108 59.0768 39.4102 57.5898C37.9232 60.6892 37.0898 64.1593 37.0898 67.8203ZM84.7266 36.1797C84.7266 40.5413 81.1781 44.0898 76.8164 44.0898H60.8203C57.1593 44.0898 53.6892 44.9232 50.5898 46.4102C52.0768 43.3108 52.9102 39.8407 52.9102 36.1797V20.1836C52.9102 15.8219 56.4587 12.2734 60.8203 12.2734H76.8164C81.1781 12.2734 84.7266 15.8219 84.7266 20.1836V36.1797Z" fill="white"/>
<path d="M182.284 51.904L181.088 56.064H189.772L188.576 51.904C188.021 50.1013 187.484 48.2467 186.964 46.34C186.479 44.4333 185.993 42.544 185.508 40.672H185.3C184.815 42.5787 184.329 44.4853 183.844 46.392C183.359 48.264 182.839 50.1013 182.284 51.904ZM170.896 70L181.972 35.992H189.044L200.12 70H193.776L191.124 60.796H179.684L177.032 70H170.896ZM214.452 70.624C212.719 70.624 211.089 70.3293 209.564 69.74C208.073 69.1507 206.773 68.284 205.664 67.14C204.555 65.996 203.688 64.592 203.064 62.928C202.44 61.264 202.128 59.3747 202.128 57.26C202.128 55.1453 202.475 53.256 203.168 51.592C203.861 49.928 204.797 48.524 205.976 47.38C207.155 46.236 208.507 45.3693 210.032 44.78C211.592 44.156 213.221 43.844 214.92 43.844C216.584 43.844 218.005 44.1213 219.184 44.676C220.397 45.2307 221.472 45.9067 222.408 46.704L219.496 50.604C218.803 50.0147 218.109 49.564 217.416 49.252C216.757 48.9053 216.029 48.732 215.232 48.732C213.152 48.732 211.471 49.512 210.188 51.072C208.905 52.5973 208.264 54.66 208.264 57.26C208.264 59.8253 208.888 61.888 210.136 63.448C211.419 64.9733 213.065 65.736 215.076 65.736C216.081 65.736 217.017 65.528 217.884 65.112C218.785 64.6613 219.6 64.1413 220.328 63.552L222.772 67.504C221.559 68.544 220.224 69.324 218.768 69.844C217.347 70.364 215.908 70.624 214.452 70.624ZM236.994 70.624C235.399 70.624 233.874 70.3293 232.418 69.74C230.962 69.1507 229.662 68.284 228.518 67.14C227.409 65.996 226.525 64.592 225.866 62.928C225.207 61.264 224.878 59.3747 224.878 57.26C224.878 55.1453 225.207 53.256 225.866 51.592C226.525 49.928 227.409 48.524 228.518 47.38C229.662 46.236 230.962 45.3693 232.418 44.78C233.874 44.156 235.399 43.844 236.994 43.844C238.589 43.844 240.114 44.156 241.57 44.78C243.061 45.3693 244.361 46.236 245.47 47.38C246.579 48.524 247.463 49.928 248.122 51.592C248.815 53.256 249.162 55.1453 249.162 57.26C249.162 59.3747 248.815 61.264 248.122 62.928C247.463 64.592 246.579 65.996 245.47 67.14C244.361 68.284 243.061 69.1507 241.57 69.74C240.114 70.3293 238.589 70.624 236.994 70.624ZM236.994 65.736C238.866 65.736 240.339 64.9733 241.414 63.448C242.489 61.888 243.026 59.8253 243.026 57.26C243.026 54.66 242.489 52.5973 241.414 51.072C240.339 49.512 238.866 48.732 236.994 48.732C235.122 48.732 233.649 49.512 232.574 51.072C231.534 52.5973 231.014 54.66 231.014 57.26C231.014 59.8253 231.534 61.888 232.574 63.448C233.649 64.9733 235.122 65.736 236.994 65.736ZM255.081 70V44.468H261.061V65.216H270.525V44.468H276.505V65.216H280.405V69.116L279.781 78.944H274.633V70H255.081ZM284.991 70V44.468H290.971V70H284.991ZM288.007 39.996C286.933 39.996 286.049 39.684 285.355 39.06C284.662 38.436 284.315 37.6213 284.315 36.616C284.315 35.6107 284.662 34.796 285.355 34.172C286.049 33.5133 286.933 33.184 288.007 33.184C289.082 33.184 289.966 33.5133 290.659 34.172C291.353 34.796 291.699 35.6107 291.699 36.616C291.699 37.6213 291.353 38.436 290.659 39.06C289.966 39.684 289.082 39.996 288.007 39.996ZM304.789 70.624C302.535 70.624 300.715 69.948 299.329 68.596C297.942 67.2093 297.249 65.3893 297.249 63.136C297.249 61.784 297.526 60.588 298.081 59.548C298.67 58.4733 299.571 57.5547 300.785 56.792C302.033 56.0293 303.593 55.388 305.465 54.868C307.371 54.348 309.642 53.9493 312.277 53.672C312.242 53.0133 312.138 52.3893 311.965 51.8C311.826 51.176 311.566 50.6387 311.185 50.188C310.838 49.7027 310.37 49.3387 309.781 49.096C309.191 48.8187 308.463 48.68 307.597 48.68C306.349 48.68 305.118 48.9227 303.905 49.408C302.726 49.8933 301.565 50.4827 300.421 51.176L298.237 47.172C299.658 46.2707 301.253 45.4907 303.021 44.832C304.789 44.1733 306.695 43.844 308.741 43.844C311.93 43.844 314.305 44.7973 315.865 46.704C317.459 48.576 318.257 51.2973 318.257 54.868V70H313.317L312.901 67.192H312.693C311.549 68.1627 310.318 68.9773 309.001 69.636C307.718 70.2947 306.314 70.624 304.789 70.624ZM306.713 65.944C307.753 65.944 308.689 65.7013 309.521 65.216C310.387 64.7307 311.306 64.0373 312.277 63.136V57.416C310.543 57.624 309.087 57.9013 307.909 58.248C306.73 58.5947 305.777 58.9933 305.049 59.444C304.321 59.86 303.801 60.3453 303.489 60.9C303.177 61.4547 303.021 62.044 303.021 62.668C303.021 63.812 303.367 64.644 304.061 65.164C304.754 65.684 305.638 65.944 306.713 65.944ZM325.413 70V44.468H331.393V65.216H340.857V44.468H346.837V65.216H350.737V69.116L350.113 78.944H344.965V70H325.413ZM355.323 70V44.468H361.303V70H355.323ZM358.339 39.996C357.265 39.996 356.381 39.684 355.687 39.06C354.994 38.436 354.647 37.6213 354.647 36.616C354.647 35.6107 354.994 34.796 355.687 34.172C356.381 33.5133 357.265 33.184 358.339 33.184C359.414 33.184 360.298 33.5133 360.991 34.172C361.685 34.796 362.031 35.6107 362.031 36.616C362.031 37.6213 361.685 38.436 360.991 39.06C360.298 39.684 359.414 39.996 358.339 39.996ZM382.869 70V60.848H379.125H379.021L373.041 70H366.333L373.561 59.808C372.105 59.184 370.891 58.2827 369.921 57.104C368.985 55.9253 368.517 54.3827 368.517 52.476C368.517 50.9853 368.777 49.7373 369.297 48.732C369.851 47.692 370.579 46.86 371.481 46.236C372.417 45.612 373.509 45.1613 374.757 44.884C376.039 44.6067 377.409 44.468 378.865 44.468H388.849V70H382.869ZM379.697 56.636H382.869V48.94H379.697C378.033 48.94 376.733 49.2347 375.797 49.824C374.895 50.4133 374.445 51.3493 374.445 52.632C374.445 53.88 374.895 54.868 375.797 55.596C376.733 56.2893 378.033 56.636 379.697 56.636ZM407.437 70V35.992H413.365V64.904H423.297V35.992H429.121V64.904H439.053V35.992H444.981V70H407.437ZM459.265 70.624C457.012 70.624 455.192 69.948 453.805 68.596C452.419 67.2093 451.725 65.3893 451.725 63.136C451.725 61.784 452.003 60.588 452.557 59.548C453.147 58.4733 454.048 57.5547 455.261 56.792C456.509 56.0293 458.069 55.388 459.941 54.868C461.848 54.348 464.119 53.9493 466.753 53.672C466.719 53.0133 466.615 52.3893 466.441 51.8C466.303 51.176 466.043 50.6387 465.661 50.188C465.315 49.7027 464.847 49.3387 464.257 49.096C463.668 48.8187 462.94 48.68 462.073 48.68C460.825 48.68 459.595 48.9227 458.381 49.408C457.203 49.8933 456.041 50.4827 454.897 51.176L452.713 47.172C454.135 46.2707 455.729 45.4907 457.497 44.832C459.265 44.1733 461.172 43.844 463.217 43.844C466.407 43.844 468.781 44.7973 470.341 46.704C471.936 48.576 472.733 51.2973 472.733 54.868V70H467.793L467.377 67.192H467.169C466.025 68.1627 464.795 68.9773 463.477 69.636C462.195 70.2947 460.791 70.624 459.265 70.624ZM461.189 65.944C462.229 65.944 463.165 65.7013 463.997 65.216C464.864 64.7307 465.783 64.0373 466.753 63.136V57.416C465.02 57.624 463.564 57.9013 462.385 58.248C461.207 58.5947 460.253 58.9933 459.525 59.444C458.797 59.86 458.277 60.3453 457.965 60.9C457.653 61.4547 457.497 62.044 457.497 62.668C457.497 63.812 457.844 64.644 458.537 65.164C459.231 65.684 460.115 65.944 461.189 65.944ZM492.838 80.088V72.756L493.046 68.908C492.352 69.3933 491.572 69.792 490.706 70.104C489.874 70.4507 489.007 70.624 488.106 70.624C485.124 70.624 482.75 69.4627 480.982 67.14C479.214 64.7827 478.33 61.4893 478.33 57.26C478.33 55.18 478.59 53.308 479.11 51.644C479.664 49.98 480.392 48.576 481.294 47.432C482.195 46.288 483.235 45.404 484.414 44.78C485.592 44.156 486.823 43.844 488.106 43.844C489.111 43.844 490.012 44 490.81 44.312C491.607 44.5893 492.352 44.9707 493.046 45.456L492.838 41.712V33.288H498.714V41.712L498.506 45.612C499.303 45.1267 500.17 44.7107 501.106 44.364C502.042 44.0173 502.96 43.844 503.862 43.844C505.318 43.844 506.618 44.156 507.762 44.78C508.94 45.3693 509.928 46.236 510.726 47.38C511.558 48.524 512.182 49.8933 512.598 51.488C513.014 53.0827 513.222 54.868 513.222 56.844C513.222 59.028 512.944 60.9867 512.39 62.72C511.87 64.4187 511.142 65.8573 510.206 67.036C509.304 68.18 508.247 69.064 507.034 69.688C505.855 70.312 504.624 70.624 503.342 70.624C501.678 70.624 500.066 70.0867 498.506 69.012L498.714 72.756V80.088H492.838ZM489.562 65.684C490.22 65.684 490.81 65.58 491.33 65.372C491.884 65.164 492.456 64.7827 493.046 64.228V50.136C492.456 49.6507 491.85 49.304 491.226 49.096C490.602 48.888 489.978 48.784 489.354 48.784C488.002 48.784 486.858 49.512 485.922 50.968C484.986 52.424 484.518 54.504 484.518 57.208C484.518 59.9813 484.951 62.096 485.818 63.552C486.684 64.9733 487.932 65.684 489.562 65.684ZM502.042 65.684C503.498 65.684 504.694 64.956 505.63 63.5C506.566 62.0093 507.034 59.808 507.034 56.896C507.034 54.3307 506.635 52.3373 505.838 50.916C505.075 49.4947 503.862 48.784 502.198 48.784C501.608 48.784 501.002 48.888 500.378 49.096C499.788 49.2693 499.164 49.6333 498.506 50.188V64.332C499.13 64.852 499.754 65.216 500.378 65.424C501.002 65.5973 501.556 65.684 502.042 65.684ZM519.245 80.088V44.468H524.185L524.601 47.172H524.809C525.884 46.2707 527.08 45.4907 528.397 44.832C529.715 44.1733 531.084 43.844 532.505 43.844C534.1 43.844 535.504 44.156 536.717 44.78C537.965 45.3693 539.023 46.236 539.889 47.38C540.756 48.524 541.415 49.8933 541.865 51.488C542.316 53.0827 542.541 54.868 542.541 56.844C542.541 59.028 542.229 60.9867 541.605 62.72C541.016 64.4187 540.219 65.8573 539.213 67.036C538.208 68.18 537.047 69.064 535.729 69.688C534.412 70.312 533.043 70.624 531.621 70.624C530.512 70.624 529.403 70.3813 528.293 69.896C527.184 69.4107 526.109 68.7173 525.069 67.816L525.225 72.08V80.088H519.245ZM530.373 65.684C532.072 65.684 533.493 64.956 534.637 63.5C535.781 62.0093 536.353 59.808 536.353 56.896C536.353 54.3307 535.92 52.3373 535.053 50.916C534.187 49.4947 532.783 48.784 530.841 48.784C529.039 48.784 527.167 49.7373 525.225 51.644V63.552C526.161 64.3493 527.063 64.904 527.929 65.216C528.796 65.528 529.611 65.684 530.373 65.684ZM554.175 70.624C551.922 70.624 550.102 69.948 548.715 68.596C547.329 67.2093 546.635 65.3893 546.635 63.136C546.635 61.784 546.913 60.588 547.467 59.548C548.057 58.4733 548.958 57.5547 550.171 56.792C551.419 56.0293 552.979 55.388 554.851 54.868C556.758 54.348 559.029 53.9493 561.663 53.672C561.629 53.0133 561.525 52.3893 561.351 51.8C561.213 51.176 560.953 50.6387 560.571 50.188C560.225 49.7027 559.757 49.3387 559.167 49.096C558.578 48.8187 557.85 48.68 556.983 48.68C555.735 48.68 554.505 48.9227 553.291 49.408C552.113 49.8933 550.951 50.4827 549.807 51.176L547.623 47.172C549.045 46.2707 550.639 45.4907 552.407 44.832C554.175 44.1733 556.082 43.844 558.127 43.844C561.317 43.844 563.691 44.7973 565.251 46.704C566.846 48.576 567.643 51.2973 567.643 54.868V70H562.703L562.287 67.192H562.079C560.935 68.1627 559.705 68.9773 558.387 69.636C557.105 70.2947 555.701 70.624 554.175 70.624ZM556.099 65.944C557.139 65.944 558.075 65.7013 558.907 65.216C559.774 64.7307 560.693 64.0373 561.663 63.136V57.416C559.93 57.624 558.474 57.9013 557.295 58.248C556.117 58.5947 555.163 58.9933 554.435 59.444C553.707 59.86 553.187 60.3453 552.875 60.9C552.563 61.4547 552.407 62.044 552.407 62.668C552.407 63.812 552.754 64.644 553.447 65.164C554.141 65.684 555.025 65.944 556.099 65.944ZM574.8 70V44.468H580.78V54.244H590.972V44.468H596.952V70H590.972V59.496H580.78V70H574.8ZM604.558 70V44.468H610.538V70H604.558ZM607.574 39.996C606.499 39.996 605.615 39.684 604.922 39.06C604.228 38.436 603.882 37.6213 603.882 36.616C603.882 35.6107 604.228 34.796 604.922 34.172C605.615 33.5133 606.499 33.184 607.574 33.184C608.648 33.184 609.532 33.5133 610.226 34.172C610.919 34.796 611.266 35.6107 611.266 36.616C611.266 37.6213 610.919 38.436 610.226 39.06C609.532 39.684 608.648 39.996 607.574 39.996ZM628.827 70.624C627.094 70.624 625.464 70.3293 623.939 69.74C622.448 69.1507 621.148 68.284 620.039 67.14C618.93 65.996 618.063 64.592 617.439 62.928C616.815 61.264 616.503 59.3747 616.503 57.26C616.503 55.1453 616.85 53.256 617.543 51.592C618.236 49.928 619.172 48.524 620.351 47.38C621.53 46.236 622.882 45.3693 624.407 44.78C625.967 44.156 627.596 43.844 629.295 43.844C630.959 43.844 632.38 44.1213 633.559 44.676C634.772 45.2307 635.847 45.9067 636.783 46.704L633.871 50.604C633.178 50.0147 632.484 49.564 631.791 49.252C631.132 48.9053 630.404 48.732 629.607 48.732C627.527 48.732 625.846 49.512 624.563 51.072C623.28 52.5973 622.639 54.66 622.639 57.26C622.639 59.8253 623.263 61.888 624.511 63.448C625.794 64.9733 627.44 65.736 629.451 65.736C630.456 65.736 631.392 65.528 632.259 65.112C633.16 64.6613 633.975 64.1413 634.703 63.552L637.147 67.504C635.934 68.544 634.599 69.324 633.143 69.844C631.722 70.364 630.283 70.624 628.827 70.624ZM647.243 70V49.2H639.235V44.468H661.283V49.2H653.275V70H647.243ZM666.409 70V44.468H672.389V70H666.409ZM669.425 39.996C668.351 39.996 667.467 39.684 666.773 39.06C666.08 38.436 665.733 37.6213 665.733 36.616C665.733 35.6107 666.08 34.796 666.773 34.172C667.467 33.5133 668.351 33.184 669.425 33.184C670.5 33.184 671.384 33.5133 672.077 34.172C672.771 34.796 673.117 35.6107 673.117 36.616C673.117 37.6213 672.771 38.436 672.077 39.06C671.384 39.684 670.5 39.996 669.425 39.996ZM680.019 70V44.468H690.367C691.788 44.468 693.088 44.5893 694.267 44.832C695.48 45.04 696.52 45.404 697.387 45.924C698.288 46.444 698.981 47.1373 699.467 48.004C699.987 48.836 700.247 49.8587 700.247 51.072C700.247 52.32 699.883 53.4293 699.155 54.4C698.461 55.336 697.404 56.012 695.983 56.428V56.636C697.508 57.0173 698.773 57.676 699.779 58.612C700.784 59.548 701.287 60.9 701.287 62.668C701.287 63.9507 701.009 65.06 700.455 65.996C699.935 66.8973 699.207 67.66 698.271 68.284C697.335 68.8733 696.225 69.3067 694.943 69.584C693.695 69.8613 692.343 70 690.887 70H680.019ZM685.895 54.816H689.795C691.459 54.816 692.655 54.5387 693.383 53.984C694.111 53.4293 694.475 52.6667 694.475 51.696C694.475 50.6907 694.128 49.9107 693.435 49.356C692.741 48.8013 691.58 48.524 689.951 48.524H685.895V54.816ZM685.895 65.944H690.471C692.204 65.944 693.452 65.6147 694.215 64.956C695.012 64.2973 695.411 63.4133 695.411 62.304C695.411 61.264 694.995 60.432 694.163 59.808C693.331 59.184 692.031 58.872 690.263 58.872H685.895V65.944ZM721.191 70.624C720.29 70.624 719.544 70.572 718.955 70.468C718.366 70.364 717.828 70.208 717.343 70L718.487 64.748C718.764 64.852 719.076 64.9387 719.423 65.008C719.77 65.0773 720.238 65.112 720.827 65.112C721.763 65.112 722.543 64.956 723.167 64.644C723.791 64.2973 724.294 63.7427 724.675 62.98L725.299 61.576L713.703 35.992H720.099L725.247 48.472L727.951 55.908H728.159L730.707 48.472L735.387 35.992H741.471L730.655 63.032C729.719 65.424 728.506 67.296 727.015 68.648C725.524 69.9653 723.583 70.624 721.191 70.624ZM743.597 70V44.468H749.577V54.4H753.321L755.713 49.252C756.198 48.1427 756.701 47.2413 757.221 46.548C757.775 45.8547 758.347 45.3173 758.937 44.936C759.526 44.52 760.167 44.2427 760.861 44.104C761.554 43.9307 762.299 43.844 763.097 43.844C763.79 43.844 764.397 43.948 764.917 44.156L763.929 49.72C763.617 49.616 763.305 49.564 762.993 49.564C762.369 49.564 761.779 49.7547 761.225 50.136C760.67 50.4827 760.115 51.2973 759.561 52.58L757.793 56.532L766.477 70H759.873L753.425 59.184H749.577V70H743.597ZM770.765 80.088V44.468H775.705L776.121 47.172H776.329C777.403 46.2707 778.599 45.4907 779.917 44.832C781.234 44.1733 782.603 43.844 784.025 43.844C785.619 43.844 787.023 44.156 788.237 44.78C789.485 45.3693 790.542 46.236 791.409 47.38C792.275 48.524 792.934 49.8933 793.385 51.488C793.835 53.0827 794.061 54.868 794.061 56.844C794.061 59.028 793.749 60.9867 793.125 62.72C792.535 64.4187 791.738 65.8573 790.733 67.036C789.727 68.18 788.566 69.064 787.249 69.688C785.931 70.312 784.562 70.624 783.141 70.624C782.031 70.624 780.922 70.3813 779.813 69.896C778.703 69.4107 777.629 68.7173 776.589 67.816L776.745 72.08V80.088H770.765ZM781.893 65.684C783.591 65.684 785.013 64.956 786.157 63.5C787.301 62.0093 787.873 59.808 787.873 56.896C787.873 54.3307 787.439 52.3373 786.573 50.916C785.706 49.4947 784.302 48.784 782.361 48.784C780.558 48.784 778.686 49.7373 776.745 51.644V63.552C777.681 64.3493 778.582 64.904 779.449 65.216C780.315 65.528 781.13 65.684 781.893 65.684ZM805.695 70.624C803.442 70.624 801.622 69.948 800.235 68.596C798.848 67.2093 798.155 65.3893 798.155 63.136C798.155 61.784 798.432 60.588 798.987 59.548C799.576 58.4733 800.478 57.5547 801.691 56.792C802.939 56.0293 804.499 55.388 806.371 54.868C808.278 54.348 810.548 53.9493 813.183 53.672C813.148 53.0133 813.044 52.3893 812.871 51.8C812.732 51.176 812.472 50.6387 812.091 50.188C811.744 49.7027 811.276 49.3387 810.687 49.096C810.098 48.8187 809.37 48.68 808.503 48.68C807.255 48.68 806.024 48.9227 804.811 49.408C803.632 49.8933 802.471 50.4827 801.327 51.176L799.143 47.172C800.564 46.2707 802.159 45.4907 803.927 44.832C805.695 44.1733 807.602 43.844 809.647 43.844C812.836 43.844 815.211 44.7973 816.771 46.704C818.366 48.576 819.163 51.2973 819.163 54.868V70H814.223L813.807 67.192H813.599C812.455 68.1627 811.224 68.9773 809.907 69.636C808.624 70.2947 807.22 70.624 805.695 70.624ZM807.619 65.944C808.659 65.944 809.595 65.7013 810.427 65.216C811.294 64.7307 812.212 64.0373 813.183 63.136V57.416C811.45 57.624 809.994 57.9013 808.815 58.248C807.636 58.5947 806.683 58.9933 805.955 59.444C805.227 59.86 804.707 60.3453 804.395 60.9C804.083 61.4547 803.927 62.044 803.927 62.668C803.927 63.812 804.274 64.644 804.967 65.164C805.66 65.684 806.544 65.944 807.619 65.944ZM826.319 70V44.468H832.299V70H826.319ZM823.979 39.944C823.078 39.944 822.333 39.6493 821.743 39.06C821.119 38.436 820.807 37.6733 820.807 36.772C820.807 35.8707 821.119 35.1253 821.743 34.536C822.333 33.912 823.078 33.6 823.979 33.6C824.915 33.6 825.678 33.912 826.267 34.536C826.857 35.1253 827.151 35.8707 827.151 36.772C827.151 37.6733 826.857 38.436 826.267 39.06C825.678 39.6493 824.915 39.944 823.979 39.944ZM834.691 39.944C833.755 39.944 832.993 39.6493 832.403 39.06C831.814 38.436 831.519 37.6733 831.519 36.772C831.519 35.8707 831.814 35.1253 832.403 34.536C832.993 33.912 833.755 33.6 834.691 33.6C835.593 33.6 836.338 33.912 836.927 34.536C837.551 35.1253 837.863 35.8707 837.863 36.772C837.863 37.6733 837.551 38.436 836.927 39.06C836.338 39.6493 835.593 39.944 834.691 39.944ZM839.929 70V44.468H845.909V54.244H856.101V44.468H862.081V70H856.101V59.496H845.909V70H839.929ZM869.687 70V44.468H875.511V53.256C875.511 54.5733 875.441 56.0467 875.303 57.676C875.199 59.2707 875.095 60.8827 874.991 62.512H875.147C875.597 61.7147 876.135 60.8133 876.759 59.808C877.383 58.768 877.903 57.8667 878.319 57.104L886.431 44.468H891.943V70H886.119V61.212C886.119 59.8947 886.171 58.4387 886.275 56.844C886.413 55.2147 886.552 53.5853 886.691 51.956H886.483C886.032 52.7533 885.495 53.672 884.871 54.712C884.281 55.7173 883.761 56.6013 883.311 57.364L875.199 70H869.687Z" fill="white"/>
</svg>
