<svg width="101" height="100" viewBox="0 0 101 100" fill="none" xmlns="http://www.w3.org/2000/svg">
<g clip-path="url(#clip0)">
<path d="M5.31812 32.1289L17.2322 20.5078H36.9587L50.0447 32.9102V44.4336H5.31812V32.1289Z" fill="#B6BDCC"/>
<path d="M50.0447 84.1797H5.31812L4.04858 90.332L5.31812 95.1172L10.2986 98.2422L45.8455 98.8281L50.0447 94.6289V84.1797Z" fill="#B6BDCC"/>
<path d="M60.8845 41.1133H92.3298L93.1111 48.4375L61.8611 49.5117L59.908 45.9961L60.8845 41.1133Z" fill="#B6BDCC"/>
<path d="M95 85.5H57V94.6289L59.908 98L85 98.8281L95 97L96 91.5L95 85.5Z" fill="#B6BDCC"/>
<path d="M93.7662 53.4865C92.6257 52.9164 91.8624 51.8436 91.6857 50.609H91.7292C93.6138 50.609 95.1472 49.0756 95.1472 47.191V42.5035C95.1472 40.6189 93.6138 39.0855 91.7292 39.0855H62.0417C60.1572 39.0855 58.6238 40.6189 58.6238 42.5035V47.191C58.6238 48.8758 59.8503 50.2764 61.4566 50.5553C61.2945 51.8125 60.5265 52.9082 59.3697 53.4867C57.063 54.6398 55.6302 56.9584 55.6302 59.5373V92.6758C55.6302 96.7145 58.9158 100 62.9544 100H90.181C94.2197 100 97.5052 96.7145 97.5052 92.6758V59.5369C97.5056 56.9582 96.0728 54.6397 93.7662 53.4865ZM61.5537 42.5033C61.5537 42.234 61.7726 42.015 62.0419 42.015H91.7294C91.9988 42.015 92.2177 42.234 92.2177 42.5033V47.1908C92.2177 47.4602 91.9988 47.6791 91.7294 47.6791H62.0419C61.7726 47.6791 61.5537 47.4602 61.5537 47.1908V42.5033ZM94.5759 92.6758C94.5759 95.0988 92.6044 97.0703 90.1814 97.0703H62.9548C60.5318 97.0703 58.5603 95.0988 58.5603 92.6758V87.4481H94.5759V92.6758ZM94.5759 63.4975H86.246C85.4369 63.4975 84.7812 64.1531 84.7812 64.9623C84.7812 65.7715 85.4369 66.4271 86.246 66.4271H94.5759V84.5184H58.5603V66.4271H79.4101C80.2193 66.4271 80.875 65.7715 80.875 64.9623C80.875 64.1531 80.2193 63.4975 79.4101 63.4975H58.5603V59.5369C58.5603 58.075 59.3726 56.7605 60.6802 56.1068C62.8205 55.0367 64.2064 52.9627 64.3953 50.609H88.7406C88.9294 52.9627 90.3154 55.0367 92.4556 56.1068C93.7632 56.7607 94.5755 58.075 94.5755 59.5369V63.4975H94.5759ZM29.3375 51.4469H25.8218C24.3679 51.4469 23.1851 52.6297 23.1851 54.0836V59.943H17.3257C15.8718 59.943 14.689 61.1258 14.689 62.5797V66.0953C14.689 67.5492 15.8718 68.732 17.3257 68.732H23.1851V74.5914C23.1851 76.0453 24.3679 77.2281 25.8218 77.2281H29.3375C30.7914 77.2281 31.9742 76.0453 31.9742 74.5914V68.732H37.8335C39.2875 68.732 40.4703 67.5492 40.4703 66.0953V62.5797C40.4703 61.1258 39.2875 59.943 37.8335 59.943H31.9742V54.0836C31.9742 52.6297 30.7914 51.4469 29.3375 51.4469ZM37.5406 62.8727V65.8023H31.0953C29.9644 65.8023 29.0445 66.7223 29.0445 67.8531V74.2984H26.1148V67.8531C26.1148 66.7223 25.1949 65.8023 24.064 65.8023H17.6187V62.8727H24.064C25.1949 62.8727 26.1148 61.9527 26.1148 60.8219V54.3766H29.0445V60.8219C29.0445 61.9527 29.9644 62.8727 31.0953 62.8727H37.5406ZM38.9773 19.9725V15.6512C40.7765 15.4533 42.1814 13.9303 42.1814 12.0852V5.71309C42.1814 2.56289 39.6078 0 36.4443 0H18.7146C15.5511 0 12.9775 2.56289 12.9775 5.71309V12.0852C12.9775 13.9305 14.3824 15.4535 16.1816 15.6512V19.9725L5.67397 30.4209C4.18491 31.9014 3.36499 33.8705 3.36499 35.9656V58.4783C3.36499 59.2875 4.02065 59.9432 4.82983 59.9432C5.63901 59.9432 6.29468 59.2875 6.29468 58.4783V45.8555H48.8642V82.8195H6.29468V65.3141C6.29468 64.5049 5.63901 63.8492 4.82983 63.8492C4.02065 63.8492 3.36499 64.5049 3.36499 65.3141V92.1629C3.36499 96.4844 6.89683 100 11.2382 100H43.9208C48.2623 100 51.7941 96.4844 51.7941 92.1629V35.9656C51.7941 33.8707 50.9742 31.9016 49.4853 30.4209L38.9773 19.9725ZM48.8642 92.1629C48.8642 94.8688 46.6466 97.0703 43.9207 97.0703H11.2382C8.51226 97.0703 6.29468 94.8689 6.29468 92.1629V85.7492H48.8642V92.1629ZM15.9072 12.0852V5.71309C15.9072 4.17832 17.1666 2.92969 18.7146 2.92969H36.4443C37.9923 2.92969 39.2517 4.17832 39.2517 5.71309V12.0852C39.2517 12.4486 38.9505 12.7445 38.5802 12.7445H16.5785C16.2083 12.7445 15.9072 12.4486 15.9072 12.0852ZM36.0476 15.6742V19.1168H19.1113V15.6742H36.0476ZM48.8642 42.9258H6.29468V35.9654C6.29468 34.6561 6.80796 33.4248 7.7396 32.4982L18.2507 22.0463H36.9082L47.4195 32.4982C48.3513 33.4248 48.8642 34.6561 48.8642 35.9654V42.9258Z" fill="#14213D"/>
</g>
<defs>
<clipPath id="clip0">
<rect width="100" height="100" fill="white" transform="translate(0.435303)"/>
</clipPath>
</defs>
</svg>
