<svg width="64" height="64" fill="none" xmlns="http://www.w3.org/2000/svg"><g clip-path="url(#a)"><path d="M32 63.998a1.25 1.25 0 1 0 0-2.5 1.25 1.25 0 0 0 0 2.5Z" fill="#14213D"/><path d="M32 63.998a1.25 1.25 0 1 0 0-2.5 1.25 1.25 0 0 0 0 2.5Z" stroke="#fff"/><path d="M55.234 0H8.768C3.934 0 .002 3.967.002 8.8l2.504 46.468C2.526 60.086 6.451 64 11.273 64h15.114a1.253 1.253 0 0 0 0-2.505H11.273c-3.453 0-6.263-2.843-6.263-6.296L2.506 8.735a6.27 6.27 0 0 1 6.262-6.23h46.466a6.27 6.27 0 0 1 6.262 6.23l-2.504 46.464c0 3.453-2.81 6.296-6.263 6.296H37.615a1.253 1.253 0 0 0 0 2.505H52.73c4.822 0 8.748-3.914 8.767-8.732L64 8.8C64 3.967 60.068 0 55.234 0Z" fill="#14213D"/><path d="M55.234 0H8.768C3.934 0 .002 3.967.002 8.8l2.504 46.468C2.526 60.086 6.451 64 11.273 64h15.114a1.253 1.253 0 0 0 0-2.505H11.273c-3.453 0-6.263-2.843-6.263-6.296L2.506 8.735a6.27 6.27 0 0 1 6.262-6.23h46.466a6.27 6.27 0 0 1 6.262 6.23l-2.504 46.464c0 3.453-2.81 6.296-6.263 6.296H37.615a1.253 1.253 0 0 0 0 2.505H52.73c4.822 0 8.748-3.914 8.767-8.732L64 8.8C64 3.967 60.068 0 55.234 0Z" stroke="#fff"/><path d="M19.231 28.702H44.77c.497 0 .947-.294 1.147-.75l5.433-12.399c.23-.525.075-1.14-.378-1.491-2.461-1.915-9.275-6.373-18.923-6.401-9.694 0-16.54 4.473-19.02 6.4a1.253 1.253 0 0 0-.377 1.492l5.433 12.4c.2.455.65.75 1.147.75Zm12.767-5.848c1.326 0 2.613.276 3.72.796 1.311.617 2.263 1.522 2.728 2.547H25.552c.876-1.929 3.459-3.343 6.446-3.343ZM20.266 12.667l.978 2.074a1.252 1.252 0 1 0 2.265-1.068l-.908-1.926a28.71 28.71 0 0 1 8.147-1.552v2.141a1.252 1.252 0 1 0 2.505 0v-2.141a28.71 28.71 0 0 1 8.108 1.539l-.81 2.053a1.253 1.253 0 0 0 2.33.92l.811-2.058a28.494 28.494 0 0 1 4.963 2.812L43.95 26.197h-2.857c-.503-2.001-2.045-3.748-4.309-4.813-1.438-.677-3.093-1.035-4.786-1.035-1.778 0-3.434.387-4.842 1.06l-1.723-3.656a1.252 1.252 0 0 0-2.266 1.068l1.875 3.979c-1.06.942-1.81 2.105-2.134 3.398H20.05L15.345 15.46a28.463 28.463 0 0 1 4.921-2.793Z" fill="#14213D"/><path d="M19.231 28.702H44.77c.497 0 .947-.294 1.147-.75l5.433-12.399c.23-.525.075-1.14-.378-1.491-2.461-1.915-9.275-6.373-18.923-6.401-9.694 0-16.54 4.473-19.02 6.4a1.253 1.253 0 0 0-.377 1.492l5.433 12.4c.2.455.65.75 1.147.75Zm12.767-5.848c1.326 0 2.613.276 3.72.796 1.311.617 2.263 1.522 2.728 2.547H25.552c.876-1.929 3.459-3.343 6.446-3.343ZM20.266 12.667l.978 2.074a1.252 1.252 0 1 0 2.265-1.068l-.908-1.926a28.71 28.71 0 0 1 8.147-1.552v2.141a1.252 1.252 0 1 0 2.505 0v-2.141a28.71 28.71 0 0 1 8.108 1.539l-.81 2.053a1.253 1.253 0 0 0 2.33.92l.811-2.058a28.494 28.494 0 0 1 4.963 2.812L43.95 26.197h-2.857c-.503-2.001-2.045-3.748-4.309-4.813-1.438-.677-3.093-1.035-4.786-1.035-1.778 0-3.434.387-4.842 1.06l-1.723-3.656a1.252 1.252 0 0 0-2.266 1.068l1.875 3.979c-1.06.942-1.81 2.105-2.134 3.398H20.05L15.345 15.46a28.463 28.463 0 0 1 4.921-2.793Z" stroke="#fff"/><path d="M19.232 33.712h25.537a1.253 1.253 0 0 0 0-2.505H19.232a1.253 1.253 0 0 0 0 2.505Z" fill="#14213D"/><path d="M19.232 33.712h25.537a1.253 1.253 0 0 0 0-2.505H19.232a1.253 1.253 0 0 0 0 2.505Z" stroke="#fff"/><path d="M9.87 52.76a1.253 1.253 0 0 0-2.506 0 6.294 6.294 0 0 0 6.287 6.287 1.253 1.253 0 0 0 0-2.505 3.786 3.786 0 0 1-3.782-3.781Z" fill="#14213D"/><path d="M9.87 52.76a1.253 1.253 0 0 0-2.506 0 6.294 6.294 0 0 0 6.287 6.287 1.253 1.253 0 0 0 0-2.505 3.786 3.786 0 0 1-3.782-3.781Z" stroke="#fff"/><path d="M48.972 57.795c0 .691.56 1.252 1.252 1.252a6.294 6.294 0 0 0 6.287-6.286 1.253 1.253 0 0 0-2.505 0 3.786 3.786 0 0 1-3.782 3.781c-.692 0-1.252.56-1.252 1.253Z" fill="#14213D"/><path d="M48.972 57.795c0 .691.56 1.252 1.252 1.252a6.294 6.294 0 0 0 6.287-6.286 1.253 1.253 0 0 0-2.505 0 3.786 3.786 0 0 1-3.782 3.781c-.692 0-1.252.56-1.252 1.253Z" stroke="#fff"/></g><defs><clipPath id="a"><path fill="#fff" d="M0 0h64v64H0z"/></clipPath></defs></svg>