<svg width="64" height="64" fill="none" xmlns="http://www.w3.org/2000/svg"><g clip-path="url(#a)"><mask id="b" fill="#fff"><path d="M60.648 25.615a1.24 1.24 0 0 0 .09-.255c.688-2.975-.713-4.972-1.92-5.919-.275-2.23-2.378-3.658-4.099-4.347-.175-2.101-.973-3.808-2.379-5.082-2.3-2.084-5.597-2.366-7.209-2.366h-.05c-1.57-2.684-5.163-2.808-7.258-2.418a28.552 28.552 0 0 0-3.687-.995 1.255 1.255 0 0 0-.486 2.462c1.21.239 2.446.58 3.67 1.014.227.081.472.095.706.04.042-.01 4.183-.952 5.091 1.604.193.542.731.883 1.304.83.04-.005 3.991-.352 6.241 1.696.792.72 1.28 1.65 1.48 2.82-1.693.082-4.333.676-5.708 3.398a1.255 1.255 0 1 0 2.24 1.132c1.157-2.29 4.033-2.06 4.555-1.998.464.153 3.215 1.134 3.104 2.815-.032.498.233.969.677 1.198.004.002.45.252.836.778.507.69.674 1.539.497 2.524l-.085.112c-1.947.214-4.876 1.44-5.276 5.063a1.256 1.256 0 0 0 2.494.275c.254-2.296 2.225-2.752 3.075-2.842 5.499 4.033 1.618 13.439 1.36 14.042-1.36 2.602-3.069 3.934-5.21 4.055-.919-.767-3.322-2.472-7.522-3.479a1.255 1.255 0 1 0-.585 2.44c3.589.86 5.638 2.273 6.394 2.88-.01.345-.056.685-.14 1.016-.892 3.546-5.691 5.406-10.698 4.145a12.915 12.915 0 0 1-2.386-.856 1.254 1.254 0 0 0-1.789 1.023 17.014 17.014 0 0 0 .207 4.67l-3.295.547a48.767 48.767 0 0 1-.434-1.717c-.737-3.05-1.8-7.448-4.927-11.057 2.603-.634 5.107-1.053 7.467-1.246a1.254 1.254 0 1 0-.205-2.501c-3.12.255-6.464.88-9.942 1.854-3.19.431-5.423.258-5.673.236-5.44-.817-6.958-4.104-6.605-6.673a1.255 1.255 0 0 0-1.54-1.39l-.91.222c-1.587-.079-5.552-.693-7.337-2.77-.775-.904-1.072-1.995-.907-3.336.064-.517-.199-1.02-.66-1.263-.005-.003-.54-.325-.67-.892-.157-.675.296-1.483.704-2.043.247-.338.308-.777.164-1.17-.01-.027-.935-2.696.122-4.912.587-1.233 1.714-2.142 3.35-2.702.473-.162.804-.581.843-1.08.002-.016.162-1.608 1.32-2.472.802-.597 1.957-.75 3.434-.454a1.256 1.256 0 0 0 1.485-1.033c.005-.027.567-2.638 5.463-2.731.742 1.014 2.38 3.678 1.165 6.066a1.256 1.256 0 0 0 2.237 1.139c.452-.888.66-1.779.703-2.639.677-.288 1.732-.598 2.574-.347.547.162.968.56 1.287 1.214a1.254 1.254 0 1 0 2.256-1.1c-.626-1.285-1.604-2.156-2.829-2.52-1.304-.387-2.631-.14-3.613.19-.328-1.12-.843-2.093-1.296-2.809.59-.257 1.389-.557 2.371-.815a1.254 1.254 0 1 0-.638-2.428c-1.983.521-3.342 1.2-3.945 1.536-5.082 0-7.047 2.22-7.787 3.658-1.751-.165-3.226.198-4.396 1.083-1.364 1.032-1.922 2.516-2.147 3.433-1.928.808-3.307 2.06-4.103 3.73-1.156 2.425-.71 5.033-.405 6.214-.768 1.239-1.025 2.434-.764 3.559.22.954.766 1.617 1.225 2.029-.058 1.738.463 3.259 1.553 4.529 2.703 3.147 8.09 3.587 9.155 3.643.274 3.5 2.938 6.953 8.807 7.822l.056.007c.053.005.703.069 1.8.069.998 0 2.366-.053 3.991-.25 3.462 3.272 4.536 7.713 5.327 10.99.288 1.192.536 2.222.86 3.016a1.255 1.255 0 0 0 1.368.763l5.678-.945a1.256 1.256 0 0 0 1-1.587 13.165 13.165 0 0 1-.503-3.398c.368.123.742.232 1.12.327 3.011.758 6.076.594 8.632-.464 2.684-1.11 4.5-3.064 5.114-5.501.085-.337.144-.68.18-1.026 2.141-.298 4.72-1.573 6.697-5.381l.033-.068c.054-.122 1.333-3.025 1.707-6.566.462-4.375-.66-7.825-3.251-10.065Z"/></mask><path d="M60.648 25.615a1.24 1.24 0 0 0 .09-.255c.688-2.975-.713-4.972-1.92-5.919-.275-2.23-2.378-3.658-4.099-4.347-.175-2.101-.973-3.808-2.379-5.082-2.3-2.084-5.597-2.366-7.209-2.366h-.05c-1.57-2.684-5.163-2.808-7.258-2.418a28.552 28.552 0 0 0-3.687-.995 1.255 1.255 0 0 0-.486 2.462c1.21.239 2.446.58 3.67 1.014.227.081.472.095.706.04.042-.01 4.183-.952 5.091 1.604.193.542.731.883 1.304.83.04-.005 3.991-.352 6.241 1.696.792.72 1.28 1.65 1.48 2.82-1.693.082-4.333.676-5.708 3.398a1.255 1.255 0 1 0 2.24 1.132c1.157-2.29 4.033-2.06 4.555-1.998.464.153 3.215 1.134 3.104 2.815-.032.498.233.969.677 1.198.004.002.45.252.836.778.507.69.674 1.539.497 2.524l-.085.112c-1.947.214-4.876 1.44-5.276 5.063a1.256 1.256 0 0 0 2.494.275c.254-2.296 2.225-2.752 3.075-2.842 5.499 4.033 1.618 13.439 1.36 14.042-1.36 2.602-3.069 3.934-5.21 4.055-.919-.767-3.322-2.472-7.522-3.479a1.255 1.255 0 1 0-.585 2.44c3.589.86 5.638 2.273 6.394 2.88-.01.345-.056.685-.14 1.016-.892 3.546-5.691 5.406-10.698 4.145a12.915 12.915 0 0 1-2.386-.856 1.254 1.254 0 0 0-1.789 1.023 17.014 17.014 0 0 0 .207 4.67l-3.295.547a48.767 48.767 0 0 1-.434-1.717c-.737-3.05-1.8-7.448-4.927-11.057 2.603-.634 5.107-1.053 7.467-1.246a1.254 1.254 0 1 0-.205-2.501c-3.12.255-6.464.88-9.942 1.854-3.19.431-5.423.258-5.673.236-5.44-.817-6.958-4.104-6.605-6.673a1.255 1.255 0 0 0-1.54-1.39l-.91.222c-1.587-.079-5.552-.693-7.337-2.77-.775-.904-1.072-1.995-.907-3.336.064-.517-.199-1.02-.66-1.263-.005-.003-.54-.325-.67-.892-.157-.675.296-1.483.704-2.043.247-.338.308-.777.164-1.17-.01-.027-.935-2.696.122-4.912.587-1.233 1.714-2.142 3.35-2.702.473-.162.804-.581.843-1.08.002-.016.162-1.608 1.32-2.472.802-.597 1.957-.75 3.434-.454a1.256 1.256 0 0 0 1.485-1.033c.005-.027.567-2.638 5.463-2.731.742 1.014 2.38 3.678 1.165 6.066a1.256 1.256 0 0 0 2.237 1.139c.452-.888.66-1.779.703-2.639.677-.288 1.732-.598 2.574-.347.547.162.968.56 1.287 1.214a1.254 1.254 0 1 0 2.256-1.1c-.626-1.285-1.604-2.156-2.829-2.52-1.304-.387-2.631-.14-3.613.19-.328-1.12-.843-2.093-1.296-2.809.59-.257 1.389-.557 2.371-.815a1.254 1.254 0 1 0-.638-2.428c-1.983.521-3.342 1.2-3.945 1.536-5.082 0-7.047 2.22-7.787 3.658-1.751-.165-3.226.198-4.396 1.083-1.364 1.032-1.922 2.516-2.147 3.433-1.928.808-3.307 2.06-4.103 3.73-1.156 2.425-.71 5.033-.405 6.214-.768 1.239-1.025 2.434-.764 3.559.22.954.766 1.617 1.225 2.029-.058 1.738.463 3.259 1.553 4.529 2.703 3.147 8.09 3.587 9.155 3.643.274 3.5 2.938 6.953 8.807 7.822l.056.007c.053.005.703.069 1.8.069.998 0 2.366-.053 3.991-.25 3.462 3.272 4.536 7.713 5.327 10.99.288 1.192.536 2.222.86 3.016a1.255 1.255 0 0 0 1.368.763l5.678-.945a1.256 1.256 0 0 0 1-1.587 13.165 13.165 0 0 1-.503-3.398c.368.123.742.232 1.12.327 3.011.758 6.076.594 8.632-.464 2.684-1.11 4.5-3.064 5.114-5.501.085-.337.144-.68.18-1.026 2.141-.298 4.72-1.573 6.697-5.381l.033-.068c.054-.122 1.333-3.025 1.707-6.566.462-4.375-.66-7.825-3.251-10.065Z" fill="#14213D" stroke="#fff" stroke-width=".6" mask="url(#b)"/><path d="M29.337 21.9c.012.064.333 1.77 1.514 3.44.282.398.626.814 1.042 1.212l.058.055-.014.079c-.124.71-.722 1.239-1.255 1.583a5.746 5.746 0 0 1-1.087.543 1.105 1.105 0 0 0-.691 1.4l.433-8.311Zm0 0a1.104 1.104 0 0 1 2.173-.4m-2.173.4 2.173-.4m-1.206 9.406c1.142-.385 2.783-1.34 3.504-2.854l.063-.132.134.06c.956.432 2.11.713 3.503.713l-7.204 2.213Zm0 0a1.101 1.101 0 0 1-1.4-.694l1.4.694Zm8.549-3.35a1.104 1.104 0 0 0-1.104-1.077h-.013l1.117 1.078Zm0 0a1.105 1.105 0 0 1-1.076 1.133l1.076-1.133ZM31.51 21.5v.001m0-.001v.001m0 0c.023.118.285 1.39 1.184 2.618.903 1.235 2.45 2.425 5.025 2.36l-6.209-4.978ZM41.706 21.583c.063.037 1.72 1.023 2.869 2.892 1.081 1.76 1.93 4.645-.216 8.397a1.104 1.104 0 0 1-1.508.41 1.105 1.105 0 0 1-.41-1.508c1.261-2.204 1.374-4.255.295-6.07a7.04 7.04 0 0 0-2.152-2.217 1.108 1.108 0 0 1-.385-1.513c.31-.524.983-.699 1.507-.391ZM55.192 43.04l-.115-.097a1.104 1.104 0 0 1-1.557.139c-2.199-1.84-1.968-4.47-1.583-5.99l.033-.13-.125-.047c-2.116-.8-3.182-2.795-3.228-2.884l-.133.07.133-.07a1.104 1.104 0 0 1 1.956-1.027l.001.002c.014.026.234.42.638.855.404.434 1.003.918 1.776 1.098 1.032.24 2.19-.114 3.43-1a1.105 1.105 0 0 1 1.284 1.798c-1.165.833-2.306 1.312-3.409 1.447l-.095.011-.03.092c-.139.439-.31 1.149-.267 1.902.044.756.304 1.564 1.037 2.177.468.392.53 1.09.139 1.557l.115.096Zm0 0a1.256 1.256 0 0 0-.158-1.769l-3.242-4.215c-.389 1.535-.636 4.244 1.632 6.14a1.254 1.254 0 0 0 1.768-.157ZM20.696 27.84c.327 2.573-1.2 4.382-2.415 5.391l-.106.088.08.113c.726 1.038 1.08 2.393 1.042 4.057a1.105 1.105 0 0 1-1.127 1.08l-.004-.001a1.105 1.105 0 0 1-1.079-1.13c.035-1.464-.32-2.567-1.091-3.236-.67-.58-1.554-.774-2.258-.827a5.93 5.93 0 0 0-1.273.037c-.6.1-1.17-.303-1.274-.902-.103-.6.296-1.169.894-1.275.108-.018 2.314-.389 4.277.583l.08.04.074-.053c.407-.296.958-.765 1.38-1.384.424-.62.723-1.399.608-2.303a1.105 1.105 0 1 1 2.192-.279ZM6.913 23.232a1.105 1.105 0 0 0 .582 2.13c.071-.018 1.613-.45 2.8-1.77l.092-.101.11.081a4.635 4.635 0 0 0 2.811.917c.292 0 .591-.024.897-.073a7.155 7.155 0 0 0 2.546-.953 1.105 1.105 0 1 0-1.202-1.854 5.102 5.102 0 0 1-1.695.625c-.945.153-1.71-.063-2.336-.685l-.062-.061.022-.084c.277-1.051.245-2.23-.106-3.523a1.104 1.104 0 0 0-1.356-.777l-3.103 6.128Zm0 0 .003-.001m-.003 0h.003m0 0c.043-.013.925-.28 1.63-1 .273-.277.492-.584.637-.931l-.139-.058M6.916 23.23l2.323-4.772m0 0c.294 1.083.291 2.008-.033 2.786v.002a6.477 6.477 0 0 0-.023.053l-.139-.058m.195-2.783a1.104 1.104 0 0 1 .777-1.355l-.777 1.355Zm-.195 2.783a2.807 2.807 0 0 1-.604.884l.655-3.627c.288 1.062.28 1.95-.027 2.688l-.024.055ZM37.207 12.596c-.629-.373-1.334-.456-1.876-.447a4.406 4.406 0 0 0-.95.113 1.105 1.105 0 0 1-.587-2.13c.097-.027 2.479-.66 4.541.564 1.277.757 2.137 2.02 2.55 3.77a1.104 1.104 0 1 1-2.152.507c-.263-1.118-.77-1.929-1.526-2.377Zm0 0-.076.129m.076-.13-.076.13m0 0c-1.193-.708-2.697-.322-2.711-.318l3.992-1.84c1.318.782 2.199 2.083 2.618 3.865a1.254 1.254 0 1 1-2.443.575c-.257-1.093-.747-1.861-1.456-2.282ZM33.995 34.303a1.105 1.105 0 1 1 1.91 1.111c-1.672 2.874-4.111 3.553-5.867 3.62a7.549 7.549 0 0 1-.31.006c-1.658 0-2.91-.499-3.05-.556a1.104 1.104 0 0 1 .841-2.043 6.574 6.574 0 0 0 2.515.381c1.708-.09 3.044-.943 3.961-2.52ZM41.622 41.218c-.44.118-.767.505-.813.958l.813-.958Zm0 0c.455-.123.944.063 1.205.452a1.115 1.115 0 0 1-.164 1.421m-1.04-1.873 1.04 1.873m0 0a1.115 1.115 0 0 1-1.227.191l1.227-.19Zm-1.227.191a1.115 1.115 0 0 1-.627-1.105l.627 1.105ZM27.912 5.425a1.118 1.118 0 0 1 .408-1.342c.398-.267.943-.24 1.313.065.351.289.49.78.345 1.209a1.115 1.115 0 0 1-.993.749 1.12 1.12 0 0 1-1.073-.681Z" fill="#14213D" stroke="#fff" stroke-width=".3"/></g><defs><clipPath id="a"><path fill="#fff" d="M0 0h64v64H0z"/></clipPath></defs></svg>