<svg width="64" height="64" viewBox="0 0 64 64" fill="none" xmlns="http://www.w3.org/2000/svg">
<g clip-path="url(#clip0)">
<mask id="path-1-inside-1" fill="white">
<path d="M60.6477 25.6151C60.6868 25.5336 60.7165 25.4482 60.7371 25.3598C61.4265 22.3852 60.0247 20.3876 58.8171 19.4413C58.5432 17.2104 56.4402 15.7831 54.719 15.0942C54.5437 12.9926 53.7459 11.2861 52.3401 10.0122C50.0393 7.9277 46.743 7.64645 45.1311 7.64645C45.1145 7.64645 45.0984 7.64645 45.0818 7.64645C43.5115 4.96237 39.9183 4.83835 37.8231 5.22751C36.5941 4.80759 35.3548 4.4736 34.1356 4.23288C33.4564 4.09909 32.7957 4.5405 32.6614 5.22067C32.5272 5.90036 32.9696 6.56051 33.6497 6.69479C34.8602 6.93405 36.0955 7.27535 37.3196 7.70943C37.5467 7.79049 37.7918 7.80367 38.0262 7.7485C38.0682 7.73873 42.2093 6.79733 43.1175 9.35347C43.3103 9.89498 43.8484 10.2358 44.4207 10.1821C44.4602 10.1782 48.4124 9.83101 50.6624 11.8789C51.4539 12.5996 51.9426 13.5292 52.1424 14.6996C50.4495 14.7807 47.8089 15.3754 46.4344 18.0971C46.1219 18.7158 46.3694 19.4701 46.9881 19.7831C47.1697 19.8744 47.3631 19.9179 47.553 19.9179C48.0115 19.9179 48.4534 19.6659 48.6741 19.2289C49.8313 16.9389 52.7068 17.1689 53.2288 17.2314C53.6926 17.3837 56.4441 18.3647 56.3333 20.0463C56.3005 20.5444 56.5662 21.0146 57.01 21.2436C57.0144 21.2455 57.4597 21.496 57.8459 22.0219C58.3533 22.7123 58.5198 23.5605 58.343 24.5458L58.2585 24.6581C56.3108 24.872 53.3816 26.0976 52.9817 29.7206C52.906 30.4096 53.4026 31.0297 54.0916 31.1059C54.1384 31.1107 54.1848 31.1132 54.2307 31.1132C54.8621 31.1132 55.4055 30.6381 55.4763 29.996C55.7297 27.7001 57.7014 27.2436 58.5515 27.1537C64.05 31.1869 60.1687 40.5926 59.9119 41.1957C58.5505 43.7982 56.842 45.1297 54.7005 45.2513C53.7825 44.4842 51.3792 42.7787 47.179 41.7723C46.5047 41.6107 45.8274 42.0262 45.6658 42.7001C45.5047 43.3744 45.9197 44.0516 46.594 44.2128C50.1829 45.0726 52.2317 46.4852 52.9876 47.0926C52.9778 47.4369 52.9324 47.7772 52.8489 48.1078C51.9563 51.6537 47.157 53.5135 42.1502 52.2528C41.3216 52.0438 40.5188 51.7562 39.7645 51.3973C39.3934 51.2205 38.9593 51.2371 38.6023 51.4412C38.2459 51.6449 38.0115 52.0111 37.9754 52.4202C37.8318 54.0448 37.9017 55.6097 38.1819 57.0892L34.887 57.637C34.7464 57.138 34.6053 56.5545 34.4525 55.9202C33.7161 52.8709 32.6527 48.472 29.5257 44.8627C32.1287 44.2289 34.6331 43.8104 36.9935 43.6166C37.6844 43.5599 38.1985 42.954 38.1414 42.2635C38.0848 41.5726 37.4783 41.0594 36.7884 41.1156C33.6688 41.3715 30.3241 41.9955 26.8455 42.9696C23.6566 43.4012 21.4232 43.2284 21.1732 43.2064C15.7338 42.389 14.2147 39.1024 14.5682 36.5326C14.6249 36.121 14.474 35.7079 14.1654 35.4296C13.8568 35.1513 13.431 35.0438 13.0272 35.1425L12.1176 35.3651C10.5311 35.2865 6.56582 34.6723 4.78115 32.5941C4.00576 31.6908 3.70889 30.6 3.87442 29.2592C3.93789 28.7416 3.6752 28.2387 3.21426 27.996C3.20889 27.9931 2.67471 27.6713 2.54337 27.1044C2.38712 26.4291 2.84024 25.6205 3.24795 25.0614C3.49453 24.7231 3.55606 24.2836 3.41202 23.8905C3.40225 23.8642 2.47696 21.1947 3.5336 18.9789C4.12149 17.746 5.24844 16.8369 6.88369 16.2773C7.35732 16.1152 7.68837 15.6957 7.72743 15.1967C7.7289 15.1806 7.88857 13.5893 9.04774 12.725C9.84852 12.1284 11.0038 11.9755 12.4808 12.2709C12.8158 12.3374 13.163 12.2656 13.4432 12.0708C13.7235 11.8759 13.9125 11.5756 13.9662 11.2382C13.9706 11.2109 14.5326 8.59957 19.4286 8.5068C20.1712 9.52095 21.8099 12.1855 20.5941 14.5727C20.2796 15.1904 20.5257 15.9462 21.1429 16.2607C21.3255 16.3535 21.5199 16.3974 21.7113 16.3974C22.1683 16.3974 22.6092 16.1469 22.8309 15.7119C23.2831 14.8237 23.4911 13.9331 23.534 13.0732C24.2113 12.7851 25.266 12.4755 26.1078 12.726C26.6551 12.8881 27.076 13.2856 27.3949 13.9399C27.6121 14.3862 28.0589 14.6455 28.5243 14.6455C28.7083 14.6455 28.8958 14.6044 29.0731 14.518C29.6961 14.2148 29.9549 13.4633 29.6512 12.8403C29.0247 11.5551 28.0467 10.6835 26.8221 10.3198C25.5179 9.93257 24.1908 10.1796 23.2088 10.5107C22.8812 9.39058 22.3661 8.41744 21.9129 7.70113C22.5038 7.44381 23.3016 7.14401 24.284 6.88571C24.9544 6.70993 25.3553 6.0234 25.179 5.35348C25.0028 4.68259 24.3163 4.28269 23.6463 4.45847C21.6629 4.97946 20.3041 5.65719 19.7015 5.99362C14.619 5.9946 12.6542 8.2148 11.9144 9.6523C10.163 9.48677 8.68788 9.84957 7.51796 10.7348C6.1542 11.7666 5.5956 13.2514 5.37099 14.1684C3.44278 14.976 2.06436 16.2285 1.26798 17.8984C0.11222 20.3227 0.557531 22.9311 0.862706 24.1122C0.0951301 25.351 -0.162193 26.5458 0.098548 27.6708C0.319251 28.6249 0.864659 29.2885 1.32413 29.6996C1.26603 31.4379 1.78653 32.9589 2.87686 34.2289C5.57998 37.3759 10.9677 37.8158 12.0316 37.8724C12.3055 41.3719 14.9696 44.8251 20.8387 45.6937C20.8573 45.6966 20.8763 45.6991 20.8954 45.701C20.9476 45.7064 21.5975 45.7699 22.6957 45.7699C23.6927 45.7699 25.0609 45.7171 26.6864 45.5199C30.1483 48.7923 31.222 53.2332 32.0125 56.5091C32.3006 57.7015 32.5491 58.7318 32.8734 59.5257C33.0682 60.0032 33.5316 60.306 34.0345 60.306C34.1028 60.306 34.1717 60.3006 34.241 60.2889L39.9192 59.3441C40.2728 59.285 40.5843 59.0779 40.7752 58.7747C40.9661 58.4715 41.0184 58.1009 40.9183 57.7567C40.6087 56.6888 40.4407 55.5516 40.4158 54.3592C40.784 54.4823 41.1585 54.5911 41.5369 54.6864C44.5472 55.4442 47.6121 55.2796 50.1677 54.2225C52.8523 53.1121 54.6687 51.158 55.2825 48.7206C55.367 48.3836 55.426 48.0409 55.4612 47.6947C57.6033 47.3968 60.1819 46.1219 62.1589 42.3138C62.1706 42.2914 62.1814 42.2689 62.1916 42.246C62.2458 42.1244 63.5246 39.2211 63.8987 35.6805C64.3606 31.3051 63.2395 27.8554 60.6477 25.6151Z"/>
</mask>
<path d="M60.6477 25.6151C60.6868 25.5336 60.7165 25.4482 60.7371 25.3598C61.4265 22.3852 60.0247 20.3876 58.8171 19.4413C58.5432 17.2104 56.4402 15.7831 54.719 15.0942C54.5437 12.9926 53.7459 11.2861 52.3401 10.0122C50.0393 7.9277 46.743 7.64645 45.1311 7.64645C45.1145 7.64645 45.0984 7.64645 45.0818 7.64645C43.5115 4.96237 39.9183 4.83835 37.8231 5.22751C36.5941 4.80759 35.3548 4.4736 34.1356 4.23288C33.4564 4.09909 32.7957 4.5405 32.6614 5.22067C32.5272 5.90036 32.9696 6.56051 33.6497 6.69479C34.8602 6.93405 36.0955 7.27535 37.3196 7.70943C37.5467 7.79049 37.7918 7.80367 38.0262 7.7485C38.0682 7.73873 42.2093 6.79733 43.1175 9.35347C43.3103 9.89498 43.8484 10.2358 44.4207 10.1821C44.4602 10.1782 48.4124 9.83101 50.6624 11.8789C51.4539 12.5996 51.9426 13.5292 52.1424 14.6996C50.4495 14.7807 47.8089 15.3754 46.4344 18.0971C46.1219 18.7158 46.3694 19.4701 46.9881 19.7831C47.1697 19.8744 47.3631 19.9179 47.553 19.9179C48.0115 19.9179 48.4534 19.6659 48.6741 19.2289C49.8313 16.9389 52.7068 17.1689 53.2288 17.2314C53.6926 17.3837 56.4441 18.3647 56.3333 20.0463C56.3005 20.5444 56.5662 21.0146 57.01 21.2436C57.0144 21.2455 57.4597 21.496 57.8459 22.0219C58.3533 22.7123 58.5198 23.5605 58.343 24.5458L58.2585 24.6581C56.3108 24.872 53.3816 26.0976 52.9817 29.7206C52.906 30.4096 53.4026 31.0297 54.0916 31.1059C54.1384 31.1107 54.1848 31.1132 54.2307 31.1132C54.8621 31.1132 55.4055 30.6381 55.4763 29.996C55.7297 27.7001 57.7014 27.2436 58.5515 27.1537C64.05 31.1869 60.1687 40.5926 59.9119 41.1957C58.5505 43.7982 56.842 45.1297 54.7005 45.2513C53.7825 44.4842 51.3792 42.7787 47.179 41.7723C46.5047 41.6107 45.8274 42.0262 45.6658 42.7001C45.5047 43.3744 45.9197 44.0516 46.594 44.2128C50.1829 45.0726 52.2317 46.4852 52.9876 47.0926C52.9778 47.4369 52.9324 47.7772 52.8489 48.1078C51.9563 51.6537 47.157 53.5135 42.1502 52.2528C41.3216 52.0438 40.5188 51.7562 39.7645 51.3973C39.3934 51.2205 38.9593 51.2371 38.6023 51.4412C38.2459 51.6449 38.0115 52.0111 37.9754 52.4202C37.8318 54.0448 37.9017 55.6097 38.1819 57.0892L34.887 57.637C34.7464 57.138 34.6053 56.5545 34.4525 55.9202C33.7161 52.8709 32.6527 48.472 29.5257 44.8627C32.1287 44.2289 34.6331 43.8104 36.9935 43.6166C37.6844 43.5599 38.1985 42.954 38.1414 42.2635C38.0848 41.5726 37.4783 41.0594 36.7884 41.1156C33.6688 41.3715 30.3241 41.9955 26.8455 42.9696C23.6566 43.4012 21.4232 43.2284 21.1732 43.2064C15.7338 42.389 14.2147 39.1024 14.5682 36.5326C14.6249 36.121 14.474 35.7079 14.1654 35.4296C13.8568 35.1513 13.431 35.0438 13.0272 35.1425L12.1176 35.3651C10.5311 35.2865 6.56582 34.6723 4.78115 32.5941C4.00576 31.6908 3.70889 30.6 3.87442 29.2592C3.93789 28.7416 3.6752 28.2387 3.21426 27.996C3.20889 27.9931 2.67471 27.6713 2.54337 27.1044C2.38712 26.4291 2.84024 25.6205 3.24795 25.0614C3.49453 24.7231 3.55606 24.2836 3.41202 23.8905C3.40225 23.8642 2.47696 21.1947 3.5336 18.9789C4.12149 17.746 5.24844 16.8369 6.88369 16.2773C7.35732 16.1152 7.68837 15.6957 7.72743 15.1967C7.7289 15.1806 7.88857 13.5893 9.04774 12.725C9.84852 12.1284 11.0038 11.9755 12.4808 12.2709C12.8158 12.3374 13.163 12.2656 13.4432 12.0708C13.7235 11.8759 13.9125 11.5756 13.9662 11.2382C13.9706 11.2109 14.5326 8.59957 19.4286 8.5068C20.1712 9.52095 21.8099 12.1855 20.5941 14.5727C20.2796 15.1904 20.5257 15.9462 21.1429 16.2607C21.3255 16.3535 21.5199 16.3974 21.7113 16.3974C22.1683 16.3974 22.6092 16.1469 22.8309 15.7119C23.2831 14.8237 23.4911 13.9331 23.534 13.0732C24.2113 12.7851 25.266 12.4755 26.1078 12.726C26.6551 12.8881 27.076 13.2856 27.3949 13.9399C27.6121 14.3862 28.0589 14.6455 28.5243 14.6455C28.7083 14.6455 28.8958 14.6044 29.0731 14.518C29.6961 14.2148 29.9549 13.4633 29.6512 12.8403C29.0247 11.5551 28.0467 10.6835 26.8221 10.3198C25.5179 9.93257 24.1908 10.1796 23.2088 10.5107C22.8812 9.39058 22.3661 8.41744 21.9129 7.70113C22.5038 7.44381 23.3016 7.14401 24.284 6.88571C24.9544 6.70993 25.3553 6.0234 25.179 5.35348C25.0028 4.68259 24.3163 4.28269 23.6463 4.45847C21.6629 4.97946 20.3041 5.65719 19.7015 5.99362C14.619 5.9946 12.6542 8.2148 11.9144 9.6523C10.163 9.48677 8.68788 9.84957 7.51796 10.7348C6.1542 11.7666 5.5956 13.2514 5.37099 14.1684C3.44278 14.976 2.06436 16.2285 1.26798 17.8984C0.11222 20.3227 0.557531 22.9311 0.862706 24.1122C0.0951301 25.351 -0.162193 26.5458 0.098548 27.6708C0.319251 28.6249 0.864659 29.2885 1.32413 29.6996C1.26603 31.4379 1.78653 32.9589 2.87686 34.2289C5.57998 37.3759 10.9677 37.8158 12.0316 37.8724C12.3055 41.3719 14.9696 44.8251 20.8387 45.6937C20.8573 45.6966 20.8763 45.6991 20.8954 45.701C20.9476 45.7064 21.5975 45.7699 22.6957 45.7699C23.6927 45.7699 25.0609 45.7171 26.6864 45.5199C30.1483 48.7923 31.222 53.2332 32.0125 56.5091C32.3006 57.7015 32.5491 58.7318 32.8734 59.5257C33.0682 60.0032 33.5316 60.306 34.0345 60.306C34.1028 60.306 34.1717 60.3006 34.241 60.2889L39.9192 59.3441C40.2728 59.285 40.5843 59.0779 40.7752 58.7747C40.9661 58.4715 41.0184 58.1009 40.9183 57.7567C40.6087 56.6888 40.4407 55.5516 40.4158 54.3592C40.784 54.4823 41.1585 54.5911 41.5369 54.6864C44.5472 55.4442 47.6121 55.2796 50.1677 54.2225C52.8523 53.1121 54.6687 51.158 55.2825 48.7206C55.367 48.3836 55.426 48.0409 55.4612 47.6947C57.6033 47.3968 60.1819 46.1219 62.1589 42.3138C62.1706 42.2914 62.1814 42.2689 62.1916 42.246C62.2458 42.1244 63.5246 39.2211 63.8987 35.6805C64.3606 31.3051 63.2395 27.8554 60.6477 25.6151Z" fill="#14213D" stroke="white" stroke-width="0.6" mask="url(#path-1-inside-1)"/>
<path d="M29.3374 21.9006L29.3374 21.9008C29.3489 21.9644 29.6699 23.6691 30.8514 25.3405C31.1326 25.7384 31.477 26.1537 31.8931 26.5516L31.951 26.607L31.9372 26.6859C31.8129 27.396 31.2154 27.9249 30.6816 28.2688C30.1407 28.6174 29.6237 28.8025 29.595 28.8124L29.5942 28.8127C29.0181 29.0092 28.7094 29.6347 28.9037 30.2117L29.3374 21.9006ZM29.3374 21.9006C29.2277 21.3004 29.6254 20.7249 30.2254 20.6157L30.2257 20.6156C30.8243 20.5056 31.3987 20.9018 31.5101 21.5L31.5101 21.5M29.3374 21.9006L31.5101 21.5M30.3038 30.9056L30.304 30.9056C31.4458 30.5206 33.087 29.5658 33.8078 28.0525L33.871 27.9199L34.0049 27.9803C34.9608 28.4118 36.1159 28.6926 37.5077 28.6926L30.3038 30.9056ZM30.3038 30.9056C30.1867 30.9452 30.0676 30.9641 29.9505 30.9641C29.4891 30.9641 29.0593 30.6729 28.9037 30.2117L30.3038 30.9056ZM38.8528 27.5565L38.8528 27.5563C38.8378 26.9558 38.3464 26.4794 37.7489 26.4794L37.7362 26.4796L37.7356 26.4797L38.8528 27.5565ZM38.8528 27.5565C38.8687 28.1663 38.3871 28.6731 37.7771 28.6892L38.8528 27.5565ZM31.5101 21.5L31.5103 21.5011M31.5101 21.5L31.5103 21.5011M31.5103 21.5011C31.5333 21.6195 31.7948 22.8905 32.6938 24.1192C33.5974 25.3543 35.1447 26.544 37.7187 26.4799L31.5103 21.5011Z" fill="#14213D" stroke="white" stroke-width="0.3"/>
<path d="M41.7062 21.583L41.7062 21.583C41.7692 21.62 43.4263 22.6057 44.5747 24.4745C45.6561 26.2354 46.5059 29.1202 44.3589 32.8718C44.1548 33.2285 43.7828 33.4281 43.3983 33.4281C43.2127 33.4281 43.0242 33.3814 42.8514 33.2821L42.8512 33.2819C42.3215 32.9788 42.1375 32.3038 42.4406 31.7742C43.7021 29.5697 43.8153 27.5194 42.7357 25.7041C41.9031 24.3039 40.6477 23.525 40.5839 23.4866L40.5839 23.4866C40.0619 23.1734 39.889 22.4963 40.1992 21.9735C40.5098 21.4504 41.1816 21.2754 41.7062 21.583Z" fill="#14213D" stroke="white" stroke-width="0.3"/>
<path d="M55.1918 43.0395L55.0768 42.9431C54.8579 43.2042 54.5447 43.3392 54.2284 43.3392C53.9782 43.3392 53.7274 43.2546 53.5204 43.0816C51.321 41.2425 51.5525 38.6123 51.9373 37.0924L51.9702 36.9626L51.8449 36.9153C49.7287 36.1158 48.6632 34.12 48.6167 34.031L48.4838 34.1005L48.6167 34.0311C48.3343 33.4904 48.544 32.8231 49.0854 32.5406C49.625 32.2595 50.2891 32.4668 50.5728 33.0036L50.5728 33.0036L50.5743 33.0064L50.5744 33.0066C50.5883 33.0316 50.8079 33.4269 51.2118 33.861C51.6159 34.2951 52.2149 34.7794 52.9878 34.959C54.0195 35.1994 55.1773 34.8452 56.4181 33.9589C56.9146 33.6043 57.6047 33.7194 57.9594 34.216C58.314 34.7125 58.1988 35.4026 57.7022 35.7573C56.5368 36.5897 55.396 37.0686 54.2932 37.2036L54.1976 37.2153L54.1684 37.3071C54.0292 37.7458 53.8582 38.4557 53.9013 39.2088C53.9447 39.9647 54.2049 40.7735 54.9378 41.3865C55.406 41.7781 55.4679 42.4751 55.0767 42.9433L55.1918 43.0395ZM55.1918 43.0395C55.6361 42.5077 55.5658 41.7162 55.0341 41.2714L51.7919 37.0556C51.4032 38.5908 51.1556 41.2997 53.4242 43.1967C53.6591 43.393 53.9442 43.4892 54.2284 43.4892C54.5873 43.4892 54.9432 43.3359 55.1918 43.0395Z" fill="#14213D" stroke="white" stroke-width="0.3"/>
<path d="M20.6963 27.8393L20.6963 27.8394C21.0226 30.4129 19.4965 32.2225 18.2815 33.231L18.1752 33.3192L18.2545 33.4324C18.981 34.4699 19.3357 35.8246 19.2967 37.4893C19.2825 38.0908 18.7907 38.5685 18.1928 38.5685C18.1819 38.5685 18.1759 38.5684 18.1705 38.5682L18.1705 38.5681L18.1665 38.568C17.5564 38.5538 17.0732 38.0478 17.0874 37.4378C17.1216 35.9742 16.7672 34.8713 15.9956 34.2023L15.9956 34.2023C15.3263 33.6221 14.4416 33.4279 13.7377 33.3749C13.0471 33.3229 12.5078 33.4052 12.4654 33.4123L12.4654 33.4123C11.8652 33.5126 11.2943 33.1092 11.1912 32.5104C11.088 31.9107 11.4866 31.3411 12.0849 31.2353C12.1927 31.2165 14.3995 30.8465 16.3616 31.8177L16.4429 31.858L16.5163 31.8047C16.9227 31.5094 17.4739 31.0402 17.8965 30.4211C18.3201 29.8005 18.6189 29.0224 18.5042 28.1175L18.5042 28.1175C18.4272 27.5122 18.8559 26.9589 19.4611 26.8824C20.0672 26.8063 20.6198 27.2343 20.6963 27.8393Z" fill="#14213D" stroke="white" stroke-width="0.3"/>
<path d="M6.91253 23.2317L6.91252 23.2317C6.32781 23.3938 5.98261 23.9974 6.14081 24.5842C6.27359 25.0767 6.71976 25.4015 7.20643 25.4015C7.30167 25.4015 7.39833 25.3891 7.49531 25.3628C7.56641 25.3435 9.10787 24.9129 10.2956 23.5923L10.3869 23.4908L10.4965 23.5722C11.3081 24.1747 12.2609 24.4894 13.308 24.4894C13.6 24.4894 13.8991 24.4652 14.2049 24.4156L14.205 24.4156C15.5968 24.1915 16.6411 23.5339 16.7508 23.4628L16.7508 23.4627C17.2629 23.1308 17.409 22.4468 17.0771 21.9348C16.7453 21.4228 16.0613 21.2766 15.5487 21.6086L15.5483 21.6088C15.5346 21.6176 14.7837 22.0839 13.8539 22.2342L13.8539 22.2342C12.9085 22.3869 12.1445 22.1706 11.5178 21.5486L11.4564 21.4877L11.4784 21.404C11.7546 20.3527 11.7232 19.1748 11.3717 17.8809L11.3717 17.8807C11.2122 17.2919 10.6058 16.944 10.0162 17.104L6.91253 23.2317ZM6.91253 23.2317L6.91595 23.2307M6.91253 23.2317L6.91595 23.2307M6.91595 23.2307L6.91625 23.2306C6.95889 23.2177 7.84072 22.9506 8.54678 22.2309C8.81877 21.9543 9.0378 21.6467 9.18274 21.2997L9.04433 21.2419M6.91595 23.2307L9.23938 18.4595M9.23938 18.4595L9.23939 18.4595C9.53288 19.5419 9.53028 20.467 9.20623 21.2449L9.20545 21.2468L9.20544 21.2468C9.19759 21.2649 9.19006 21.2824 9.18257 21.3001L9.04433 21.2419M9.23938 18.4595C9.07946 17.8705 9.42718 17.2639 10.0162 17.104L9.23938 18.4595ZM9.04433 21.2419C8.9081 21.5681 8.70106 21.8601 8.43983 22.1257L9.09462 18.4988C9.3827 19.5613 9.37489 20.4499 9.06776 21.1872C9.05995 21.2053 9.05214 21.2234 9.04433 21.2419Z" fill="#14213D" stroke="white" stroke-width="0.3"/>
<path d="M37.2074 12.5959C36.5781 12.2225 35.8727 12.1404 35.3313 12.149C34.8088 12.1574 34.4242 12.2506 34.3802 12.2624L34.3802 12.2624C33.7923 12.4236 33.1831 12.0782 33.0216 11.4903L33.0215 11.4902C32.8595 10.9022 33.2051 10.2938 33.7932 10.1317L33.7933 10.1317C33.8914 10.1046 36.2727 9.47232 38.3351 10.6957C39.6116 11.4531 40.4722 12.7154 40.8842 14.4668L40.8843 14.4669C41.0244 15.0603 40.6561 15.6553 40.062 15.7951C39.9761 15.8151 39.8914 15.8249 39.8081 15.8249C39.3068 15.8249 38.8533 15.4816 38.7334 14.9727C38.4702 13.8547 37.9632 13.0443 37.2074 12.5959ZM37.2074 12.5959L37.1308 12.7249M37.2074 12.5959L37.1308 12.7249M37.1308 12.7249C35.9384 12.0174 34.4345 12.4026 34.4199 12.407L38.4116 10.5667C39.73 11.3489 40.6108 12.6497 41.0302 14.4324C41.1894 15.1067 40.771 15.7825 40.0962 15.9412C39.9995 15.9637 39.9033 15.9749 39.8081 15.9749C39.2387 15.9749 38.7236 15.5852 38.5874 15.0071C38.3301 13.9139 37.8403 13.1458 37.1308 12.7249Z" fill="#14213D" stroke="white" stroke-width="0.3"/>
<path d="M33.9952 34.3026L33.9952 34.3026C34.3022 33.775 34.9789 33.5962 35.5059 33.9031L35.5059 33.9032C36.0335 34.2102 36.2123 34.8869 35.9054 35.4138L35.9054 35.4139C34.2325 38.2879 31.7935 38.9673 30.0381 39.0338L30.0376 39.0338C29.9329 39.0381 29.8295 39.04 29.7279 39.04C28.07 39.04 26.8173 38.5414 26.6788 38.484L26.6787 38.484C26.1153 38.2511 25.8473 37.605 26.0808 37.0408L26.0808 37.0408C26.3134 36.4785 26.9565 36.2102 27.5197 36.4407C27.5733 36.4626 28.685 36.8922 30.034 36.8222L30.034 36.8222C31.7422 36.7329 33.0779 35.8786 33.9952 34.3026Z" fill="#14213D" stroke="white" stroke-width="0.3"/>
<path d="M41.6224 41.2177L41.6222 41.2178C41.1824 41.3358 40.8552 41.7227 40.8087 42.1765L41.6224 41.2177ZM41.6224 41.2177C42.0773 41.095 42.5664 41.2815 42.8274 41.6705C43.1242 42.114 43.054 42.7234 42.6628 43.091L42.6627 43.0911M41.6224 41.2177L42.6627 43.0911M42.6627 43.0911C42.3368 43.3977 41.8415 43.4729 41.4358 43.2824L42.6627 43.0911ZM41.4357 43.2823C41.0208 43.087 40.7621 42.6332 40.8087 42.1765L41.4357 43.2823Z" fill="#14213D" stroke="white" stroke-width="0.3"/>
<path d="M27.9121 5.42457L27.9121 5.42457C27.7134 4.9435 27.8882 4.37205 28.3198 4.08303C28.7182 3.81625 29.2628 3.8437 29.6332 4.14844L29.6332 4.14845C29.984 4.43701 30.1239 4.92731 29.9776 5.3568L29.9776 5.35696C29.8333 5.78211 29.4335 6.08403 28.9849 6.10593C28.5272 6.12774 28.0871 5.8484 27.9121 5.42457Z" fill="#14213D" stroke="white" stroke-width="0.3"/>
</g>
<defs>
<clipPath id="clip0">
<rect width="64" height="64" fill="white"/>
</clipPath>
</defs>
</svg>
