<svg width="64" height="64" fill="none" xmlns="http://www.w3.org/2000/svg"><g clip-path="url(#a)"><path d="M9.451 28.24a20.336 20.336 0 0 0-1.601 7.948c0 11.283 9.18 20.462 20.462 20.462 11.284 0 20.463-9.18 20.463-20.462 0-11.284-9.18-20.463-20.462-20.463a20.534 20.534 0 0 0-16.591 8.482 1.088 1.088 0 0 0 1.762 1.275A18.353 18.353 0 0 1 28.313 17.9c10.083 0 18.287 8.204 18.287 18.288 0 10.083-8.204 18.287-18.288 18.287-10.083 0-18.287-8.204-18.287-18.288 0-2.463.481-4.853 1.43-7.102a1.088 1.088 0 0 0-2.004-.845Z" fill="#14213D" stroke="#14213D" stroke-width=".3"/><mask id="b" maskUnits="userSpaceOnUse" x="-.5" y="-1" width="65" height="66" fill="#000"><path fill="#fff" d="M-.5-1h65v66h-65z"/><path d="M28.315 64a4.794 4.794 0 0 1-3.373-1.39 5.038 5.038 0 0 1-1.45-2.844 23.744 23.744 0 0 1-8.431-3.49 4.84 4.84 0 0 1-2.969 1.006 4.851 4.851 0 0 1-3.372-1.355 4.792 4.792 0 0 1-1.474-3.44 5.039 5.039 0 0 1 .986-3.037 23.745 23.745 0 0 1-3.495-8.429 4.839 4.839 0 0 1-2.81-1.386A4.852 4.852 0 0 1 .5 36.292a4.792 4.792 0 0 1 1.39-3.475 5.04 5.04 0 0 1 2.843-1.45 23.748 23.748 0 0 1 3.49-8.431 4.84 4.84 0 0 1-1.007-2.969c0-1.262.481-2.46 1.355-3.372a4.792 4.792 0 0 1 3.44-1.474 5.003 5.003 0 0 1 3.038.986 23.747 23.747 0 0 1 8.428-3.495 4.838 4.838 0 0 1 1.386-2.81 4.852 4.852 0 0 1 3.343-1.426 4.786 4.786 0 0 1 3.476 1.39 5.039 5.039 0 0 1 1.45 2.843 23.826 23.826 0 0 1 8.055 3.248c.04.025.153.092.408.218l.037-.028a.322.322 0 0 0 .108-.388 11.272 11.272 0 0 1-.866-4.347c0-3.021 1.177-5.862 3.313-7.999a11.239 11.239 0 0 1 8-3.313c3.021 0 5.862 1.177 7.999 3.313.223.224.44.46.645.702a.937.937 0 1 1-1.432 1.21 9.533 9.533 0 0 0-.539-.586 9.376 9.376 0 0 0-6.673-2.764c-2.521 0-4.891.982-6.674 2.764a9.376 9.376 0 0 0-2.764 6.673 9.398 9.398 0 0 0 .722 3.626c.39.937.093 2.013-.723 2.617a2.952 2.952 0 0 0-.128.1 1.556 1.556 0 0 1-1.66.197 7.97 7.97 0 0 1-.776-.41 21.97 21.97 0 0 0-8.093-3.12.937.937 0 0 1-.78-.924v-.063a3.14 3.14 0 0 0-.94-2.23 2.952 2.952 0 0 0-4.181.023 2.98 2.98 0 0 0-.878 2.122v.148a.938.938 0 0 1-.78.924 21.933 21.933 0 0 0-9.01 3.733.937.937 0 0 1-1.204-.104l-.045-.045a3.14 3.14 0 0 0-2.241-.91 2.932 2.932 0 0 0-2.107.897 2.985 2.985 0 0 0-.834 2.075c0 .801.313 1.555.88 2.122l.105.105a.938.938 0 0 1 .103 1.204 21.932 21.932 0 0 0-3.734 9.01.937.937 0 0 1-.924.779H5.46a3.14 3.14 0 0 0-2.23.941 2.931 2.931 0 0 0-.854 2.124c.016.777.328 1.508.877 2.057.566.566 1.32.877 2.122.877h.147c.457 0 .847.33.924.78a21.934 21.934 0 0 0 3.734 9.01.938.938 0 0 1-.103 1.204l-.045.044a3.141 3.141 0 0 0-.91 2.242c.008.813.326 1.56.896 2.107.56.537 1.298.834 2.075.834.801 0 1.555-.313 2.122-.88l.105-.105a.938.938 0 0 1 1.204-.102 21.932 21.932 0 0 0 9.01 3.733c.45.077.779.467.779.924v.062c0 .831.343 1.644.941 2.23a2.94 2.94 0 0 0 2.124.854 2.985 2.985 0 0 0 2.057-.877 2.98 2.98 0 0 0 .878-2.122v-.148c0-.456.329-.846.779-.923a21.932 21.932 0 0 0 9.01-3.733.937.937 0 0 1 1.203.101l.044.045c.589.589 1.41.924 2.243.912a2.931 2.931 0 0 0 2.107-.897c.537-.56.834-1.298.834-2.075 0-.801-.313-1.555-.88-2.122l-.104-.104a.937.937 0 0 1-.103-1.204 21.934 21.934 0 0 0 3.733-9.01.937.937 0 0 1 .924-.78h.062a3.14 3.14 0 0 0 2.23-.941c.567-.58.871-1.335.854-2.124a2.986 2.986 0 0 0-.877-2.057 2.981 2.981 0 0 0-2.122-.878h-.148a.938.938 0 0 1-.923-.778A21.926 21.926 0 0 0 46.7 23.77a1.563 1.563 0 0 1 .124-1.868c.12-.142.228-.295.319-.455a2.196 2.196 0 0 1 2.493-1.046c.831.233 1.685.35 2.55.35 2.521 0 4.891-.983 6.674-2.765a9.376 9.376 0 0 0 2.764-6.674 9.46 9.46 0 0 0-.355-2.575.938.938 0 1 1 1.804-.51c.283 1 .426 2.037.426 3.085a11.24 11.24 0 0 1-3.313 8 11.238 11.238 0 0 1-8 3.313c-1.036 0-2.06-.14-3.045-.416a.325.325 0 0 0-.367.162 4.853 4.853 0 0 1-.376.566 23.752 23.752 0 0 1 3.49 8.416 4.838 4.838 0 0 1 2.809 1.386c.893.894 1.4 2.081 1.426 3.344a4.792 4.792 0 0 1-1.39 3.475 5.04 5.04 0 0 1-2.843 1.45 23.742 23.742 0 0 1-3.49 8.431 4.839 4.839 0 0 1 1.006 2.968c0 1.264-.48 2.461-1.355 3.373a4.792 4.792 0 0 1-3.44 1.474h-.052a5.039 5.039 0 0 1-2.985-.986 23.745 23.745 0 0 1-8.428 3.495 4.838 4.838 0 0 1-1.387 2.81A4.85 4.85 0 0 1 28.315 64Z"/></mask><path d="M28.315 64a4.794 4.794 0 0 1-3.373-1.39 5.038 5.038 0 0 1-1.45-2.844 23.744 23.744 0 0 1-8.431-3.49 4.84 4.84 0 0 1-2.969 1.006 4.851 4.851 0 0 1-3.372-1.355 4.792 4.792 0 0 1-1.474-3.44 5.039 5.039 0 0 1 .986-3.037 23.745 23.745 0 0 1-3.495-8.429 4.839 4.839 0 0 1-2.81-1.386A4.852 4.852 0 0 1 .5 36.292a4.792 4.792 0 0 1 1.39-3.475 5.04 5.04 0 0 1 2.843-1.45 23.748 23.748 0 0 1 3.49-8.431 4.84 4.84 0 0 1-1.007-2.969c0-1.262.481-2.46 1.355-3.372a4.792 4.792 0 0 1 3.44-1.474 5.003 5.003 0 0 1 3.038.986 23.747 23.747 0 0 1 8.428-3.495 4.838 4.838 0 0 1 1.386-2.81 4.852 4.852 0 0 1 3.343-1.426 4.786 4.786 0 0 1 3.476 1.39 5.039 5.039 0 0 1 1.45 2.843 23.826 23.826 0 0 1 8.055 3.248c.04.025.153.092.408.218l.037-.028a.322.322 0 0 0 .108-.388 11.272 11.272 0 0 1-.866-4.347c0-3.021 1.177-5.862 3.313-7.999a11.239 11.239 0 0 1 8-3.313c3.021 0 5.862 1.177 7.999 3.313.223.224.44.46.645.702a.937.937 0 1 1-1.432 1.21 9.533 9.533 0 0 0-.539-.586 9.376 9.376 0 0 0-6.673-2.764c-2.521 0-4.891.982-6.674 2.764a9.376 9.376 0 0 0-2.764 6.673 9.398 9.398 0 0 0 .722 3.626c.39.937.093 2.013-.723 2.617a2.952 2.952 0 0 0-.128.1 1.556 1.556 0 0 1-1.66.197 7.97 7.97 0 0 1-.776-.41 21.97 21.97 0 0 0-8.093-3.12.937.937 0 0 1-.78-.924v-.063a3.14 3.14 0 0 0-.94-2.23 2.952 2.952 0 0 0-4.181.023 2.98 2.98 0 0 0-.878 2.122v.148a.938.938 0 0 1-.78.924 21.933 21.933 0 0 0-9.01 3.733.937.937 0 0 1-1.204-.104l-.045-.045a3.14 3.14 0 0 0-2.241-.91 2.932 2.932 0 0 0-2.107.897 2.985 2.985 0 0 0-.834 2.075c0 .801.313 1.555.88 2.122l.105.105a.938.938 0 0 1 .103 1.204 21.932 21.932 0 0 0-3.734 9.01.937.937 0 0 1-.924.779H5.46a3.14 3.14 0 0 0-2.23.941 2.931 2.931 0 0 0-.854 2.124c.016.777.328 1.508.877 2.057.566.566 1.32.877 2.122.877h.147c.457 0 .847.33.924.78a21.934 21.934 0 0 0 3.734 9.01.938.938 0 0 1-.103 1.204l-.045.044a3.141 3.141 0 0 0-.91 2.242c.008.813.326 1.56.896 2.107.56.537 1.298.834 2.075.834.801 0 1.555-.313 2.122-.88l.105-.105a.938.938 0 0 1 1.204-.102 21.932 21.932 0 0 0 9.01 3.733c.45.077.779.467.779.924v.062c0 .831.343 1.644.941 2.23a2.94 2.94 0 0 0 2.124.854 2.985 2.985 0 0 0 2.057-.877 2.98 2.98 0 0 0 .878-2.122v-.148c0-.456.329-.846.779-.923a21.932 21.932 0 0 0 9.01-3.733.937.937 0 0 1 1.203.101l.044.045c.589.589 1.41.924 2.243.912a2.931 2.931 0 0 0 2.107-.897c.537-.56.834-1.298.834-2.075 0-.801-.313-1.555-.88-2.122l-.104-.104a.937.937 0 0 1-.103-1.204 21.934 21.934 0 0 0 3.733-9.01.937.937 0 0 1 .924-.78h.062a3.14 3.14 0 0 0 2.23-.941c.567-.58.871-1.335.854-2.124a2.986 2.986 0 0 0-.877-2.057 2.981 2.981 0 0 0-2.122-.878h-.148a.938.938 0 0 1-.923-.778A21.926 21.926 0 0 0 46.7 23.77a1.563 1.563 0 0 1 .124-1.868c.12-.142.228-.295.319-.455a2.196 2.196 0 0 1 2.493-1.046c.831.233 1.685.35 2.55.35 2.521 0 4.891-.983 6.674-2.765a9.376 9.376 0 0 0 2.764-6.674 9.46 9.46 0 0 0-.355-2.575.938.938 0 1 1 1.804-.51c.283 1 .426 2.037.426 3.085a11.24 11.24 0 0 1-3.313 8 11.238 11.238 0 0 1-8 3.313c-1.036 0-2.06-.14-3.045-.416a.325.325 0 0 0-.367.162 4.853 4.853 0 0 1-.376.566 23.752 23.752 0 0 1 3.49 8.416 4.838 4.838 0 0 1 2.809 1.386c.893.894 1.4 2.081 1.426 3.344a4.792 4.792 0 0 1-1.39 3.475 5.04 5.04 0 0 1-2.843 1.45 23.742 23.742 0 0 1-3.49 8.431 4.839 4.839 0 0 1 1.006 2.968c0 1.264-.48 2.461-1.355 3.373a4.792 4.792 0 0 1-3.44 1.474h-.052a5.039 5.039 0 0 1-2.985-.986 23.745 23.745 0 0 1-8.428 3.495 4.838 4.838 0 0 1-1.387 2.81A4.85 4.85 0 0 1 28.315 64Z" fill="#14213D"/><path d="M28.315 64a4.794 4.794 0 0 1-3.373-1.39 5.038 5.038 0 0 1-1.45-2.844 23.744 23.744 0 0 1-8.431-3.49 4.84 4.84 0 0 1-2.969 1.006 4.851 4.851 0 0 1-3.372-1.355 4.792 4.792 0 0 1-1.474-3.44 5.039 5.039 0 0 1 .986-3.037 23.745 23.745 0 0 1-3.495-8.429 4.839 4.839 0 0 1-2.81-1.386A4.852 4.852 0 0 1 .5 36.292a4.792 4.792 0 0 1 1.39-3.475 5.04 5.04 0 0 1 2.843-1.45 23.748 23.748 0 0 1 3.49-8.431 4.84 4.84 0 0 1-1.007-2.969c0-1.262.481-2.46 1.355-3.372a4.792 4.792 0 0 1 3.44-1.474 5.003 5.003 0 0 1 3.038.986 23.747 23.747 0 0 1 8.428-3.495 4.838 4.838 0 0 1 1.386-2.81 4.852 4.852 0 0 1 3.343-1.426 4.786 4.786 0 0 1 3.476 1.39 5.039 5.039 0 0 1 1.45 2.843 23.826 23.826 0 0 1 8.055 3.248c.04.025.153.092.408.218l.037-.028a.322.322 0 0 0 .108-.388 11.272 11.272 0 0 1-.866-4.347c0-3.021 1.177-5.862 3.313-7.999a11.239 11.239 0 0 1 8-3.313c3.021 0 5.862 1.177 7.999 3.313.223.224.44.46.645.702a.937.937 0 1 1-1.432 1.21 9.533 9.533 0 0 0-.539-.586 9.376 9.376 0 0 0-6.673-2.764c-2.521 0-4.891.982-6.674 2.764a9.376 9.376 0 0 0-2.764 6.673 9.398 9.398 0 0 0 .722 3.626c.39.937.093 2.013-.723 2.617a2.952 2.952 0 0 0-.128.1 1.556 1.556 0 0 1-1.66.197 7.97 7.97 0 0 1-.776-.41 21.97 21.97 0 0 0-8.093-3.12.937.937 0 0 1-.78-.924v-.063a3.14 3.14 0 0 0-.94-2.23 2.952 2.952 0 0 0-4.181.023 2.98 2.98 0 0 0-.878 2.122v.148a.938.938 0 0 1-.78.924 21.933 21.933 0 0 0-9.01 3.733.937.937 0 0 1-1.204-.104l-.045-.045a3.14 3.14 0 0 0-2.241-.91 2.932 2.932 0 0 0-2.107.897 2.985 2.985 0 0 0-.834 2.075c0 .801.313 1.555.88 2.122l.105.105a.938.938 0 0 1 .103 1.204 21.932 21.932 0 0 0-3.734 9.01.937.937 0 0 1-.924.779H5.46a3.14 3.14 0 0 0-2.23.941 2.931 2.931 0 0 0-.854 2.124c.016.777.328 1.508.877 2.057.566.566 1.32.877 2.122.877h.147c.457 0 .847.33.924.78a21.934 21.934 0 0 0 3.734 9.01.938.938 0 0 1-.103 1.204l-.045.044a3.141 3.141 0 0 0-.91 2.242c.008.813.326 1.56.896 2.107.56.537 1.298.834 2.075.834.801 0 1.555-.313 2.122-.88l.105-.105a.938.938 0 0 1 1.204-.102 21.932 21.932 0 0 0 9.01 3.733c.45.077.779.467.779.924v.062c0 .831.343 1.644.941 2.23a2.94 2.94 0 0 0 2.124.854 2.985 2.985 0 0 0 2.057-.877 2.98 2.98 0 0 0 .878-2.122v-.148c0-.456.329-.846.779-.923a21.932 21.932 0 0 0 9.01-3.733.937.937 0 0 1 1.203.101l.044.045c.589.589 1.41.924 2.243.912a2.931 2.931 0 0 0 2.107-.897c.537-.56.834-1.298.834-2.075 0-.801-.313-1.555-.88-2.122l-.104-.104a.937.937 0 0 1-.103-1.204 21.934 21.934 0 0 0 3.733-9.01.937.937 0 0 1 .924-.78h.062a3.14 3.14 0 0 0 2.23-.941c.567-.58.871-1.335.854-2.124a2.986 2.986 0 0 0-.877-2.057 2.981 2.981 0 0 0-2.122-.878h-.148a.938.938 0 0 1-.923-.778A21.926 21.926 0 0 0 46.7 23.77a1.563 1.563 0 0 1 .124-1.868c.12-.142.228-.295.319-.455a2.196 2.196 0 0 1 2.493-1.046c.831.233 1.685.35 2.55.35 2.521 0 4.891-.983 6.674-2.765a9.376 9.376 0 0 0 2.764-6.674 9.46 9.46 0 0 0-.355-2.575.938.938 0 1 1 1.804-.51c.283 1 .426 2.037.426 3.085a11.24 11.24 0 0 1-3.313 8 11.238 11.238 0 0 1-8 3.313c-1.036 0-2.06-.14-3.045-.416a.325.325 0 0 0-.367.162 4.853 4.853 0 0 1-.376.566 23.752 23.752 0 0 1 3.49 8.416 4.838 4.838 0 0 1 2.809 1.386c.893.894 1.4 2.081 1.426 3.344a4.792 4.792 0 0 1-1.39 3.475 5.04 5.04 0 0 1-2.843 1.45 23.742 23.742 0 0 1-3.49 8.431 4.839 4.839 0 0 1 1.006 2.968c0 1.264-.48 2.461-1.355 3.373a4.792 4.792 0 0 1-3.44 1.474h-.052a5.039 5.039 0 0 1-2.985-.986 23.745 23.745 0 0 1-8.428 3.495 4.838 4.838 0 0 1-1.387 2.81A4.85 4.85 0 0 1 28.315 64Z" stroke="#000" stroke-width=".6" mask="url(#b)"/><path d="M29.975 40.813a6.72 6.72 0 0 0 6.712 6.712 6.72 6.72 0 0 0 6.713-6.712 6.72 6.72 0 0 0-6.712-6.713 6.72 6.72 0 0 0-6.713 6.712Zm2.175 0a4.543 4.543 0 0 1 4.538-4.538 4.543 4.543 0 0 1 4.537 4.538 4.543 4.543 0 0 1-4.538 4.537 4.543 4.543 0 0 1-4.537-4.538Z" fill="#14213D" stroke="#14213D" stroke-width=".3"/><path d="M24.125 31.875a3.754 3.754 0 0 1-3.75-3.75 3.754 3.754 0 0 1 3.75-3.75 3.754 3.754 0 0 1 3.75 3.75 3.754 3.754 0 0 1-3.75 3.75Zm0-5.625a1.877 1.877 0 0 0-1.875 1.875c0 1.034.841 1.875 1.875 1.875A1.877 1.877 0 0 0 26 28.125a1.877 1.877 0 0 0-1.875-1.875ZM24.5 38.875c-.69 0-1.25-.56-1.25-1.25s.56-1.25 1.25-1.25 1.25.56 1.25 1.25-.56 1.25-1.25 1.25ZM35.75 28.875c-.69 0-1.25-.56-1.25-1.25s.56-1.25 1.25-1.25 1.25.56 1.25 1.25-.56 1.25-1.25 1.25ZM35.75 41.375c-.69 0-1.25-.56-1.25-1.25s.56-1.25 1.25-1.25 1.25.56 1.25 1.25-.56 1.25-1.25 1.25ZM15.188 39a2.816 2.816 0 0 1-2.813-2.813 2.816 2.816 0 0 1 2.813-2.812A2.816 2.816 0 0 1 18 36.188 2.816 2.816 0 0 1 15.187 39Zm0-3.75a.938.938 0 0 0 0 1.875.938.938 0 0 0 0-1.875Z" fill="#14213D"/><path d="M18.6 46.813a4.217 4.217 0 0 0 4.212 4.212 4.217 4.217 0 0 0 4.213-4.212 4.217 4.217 0 0 0-4.212-4.213 4.217 4.217 0 0 0-4.213 4.212Zm2.175 0a2.04 2.04 0 0 1 2.038-2.038 2.04 2.04 0 0 1 2.037 2.038 2.04 2.04 0 0 1-2.038 2.037 2.04 2.04 0 0 1-2.037-2.038Z" fill="#14213D" stroke="#14213D" stroke-width=".3"/><path d="M50.25 10.688a2.816 2.816 0 0 1-2.813-2.813 2.816 2.816 0 0 1 2.813-2.813 2.816 2.816 0 0 1 2.813 2.813 2.816 2.816 0 0 1-2.813 2.813Zm0-3.75a.938.938 0 0 0 0 1.875.938.938 0 0 0 0-1.876ZM52.75 18.188a2.816 2.816 0 0 1-2.813-2.813 2.816 2.816 0 0 1 2.813-2.813 2.816 2.816 0 0 1 2.813 2.813 2.816 2.816 0 0 1-2.813 2.813Zm0-3.75a.938.938 0 0 0 0 1.874.938.938 0 0 0 0-1.875Z" fill="#14213D"/></g><defs><clipPath id="a"><path fill="#fff" d="M0 0h64v64H0z"/></clipPath></defs></svg>