<svg width="64" height="64" viewBox="0 0 64 64" fill="none" xmlns="http://www.w3.org/2000/svg">
<path d="M64 32C64 23.4526 60.6714 15.4167 54.6274 9.37263C48.5834 3.3285 40.5474 0 32 0C24.2791 0 16.822 2.78887 11.0022 7.85275C10.6116 8.19263 10.5705 8.78487 10.9104 9.17537C11.2505 9.566 11.8426 9.60713 12.233 9.26725C17.7115 4.50025 24.7316 1.875 32 1.875C40.0465 1.875 47.6116 5.00862 53.3015 10.6985C58.9914 16.3884 62.125 23.9535 62.125 32C62.125 35.7714 61.4409 39.4295 60.0926 42.8955C59.5407 42.3841 58.9417 41.9231 58.3027 41.5199C59.4012 38.4821 59.9589 35.284 59.9589 32C59.9589 28.9552 59.4771 25.9686 58.5269 23.123C58.3629 22.6319 57.8319 22.3665 57.3406 22.5308C56.8495 22.6947 56.5844 23.2259 56.7484 23.7169C57.6346 26.3705 58.084 29.1574 58.084 32C58.084 34.9769 57.5931 37.8769 56.6268 40.6365C55.1528 40.0014 53.5294 39.6488 51.8251 39.6488C51.6629 39.6488 51.5152 39.6519 51.3732 39.6585C50.856 39.6824 50.4561 40.121 50.48 40.6382C50.5037 41.1554 50.938 41.5545 51.4598 41.5315C51.5725 41.5263 51.6921 41.5238 51.8252 41.5238C57.5047 41.5238 62.1253 46.1449 62.1253 51.825C62.1253 57.5045 57.5046 62.125 51.8252 62.125C46.1452 62.125 41.5241 57.5045 41.5241 51.825C41.5241 47.7949 43.8942 44.1129 47.5622 42.4446C48.0336 42.2303 48.2419 41.6744 48.0275 41.2031C47.8131 40.7319 47.2572 40.5234 46.7859 40.7379C42.4505 42.7096 39.6491 47.0616 39.6491 51.825C39.6491 53.5293 40.0018 55.1524 40.6369 56.6265C37.8773 57.5929 34.9771 58.0838 32.0004 58.0838C25.0324 58.0838 18.482 55.3708 13.5557 50.4446C8.62925 45.5184 5.91625 38.968 5.91625 32C5.91625 25.032 8.62925 18.4816 13.5554 13.5554C18.4816 8.62925 25.032 5.91625 32 5.91625C38.968 5.91625 45.5184 8.62925 50.4446 13.5554C52.3092 15.4199 53.8721 17.5337 55.0899 19.838C55.3317 20.2957 55.899 20.4708 56.3568 20.2288C56.8146 19.9867 56.9895 19.4196 56.7476 18.9619C55.4422 16.4918 53.7676 14.2266 51.7706 12.2295C46.4901 6.94925 39.4689 4.04125 32 4.04125C24.5311 4.04125 17.5099 6.94925 12.2295 12.2296C6.94925 17.5099 4.04125 24.5312 4.04125 32C4.04125 39.4688 6.94925 46.4901 12.2295 51.7704C17.5099 57.0508 24.5311 59.9588 32 59.9588C35.2837 59.9588 38.4819 59.4011 41.5199 58.3026C41.9231 58.9417 42.3841 59.5407 42.8955 60.0925C39.4296 61.4408 35.7715 62.125 32 62.125C23.9535 62.125 16.3884 58.9914 10.6985 53.3015C5.00862 47.6116 1.875 40.0465 1.875 32C1.875 24.7485 4.4895 17.7409 9.237 12.2681C9.57638 11.877 9.53438 11.2849 9.14325 10.9456C8.752 10.6065 8.16 10.6484 7.82075 11.0395C2.7775 16.8531 0 24.2971 0 32C0 40.5474 3.32863 48.5833 9.37263 54.6274C15.4167 60.6714 23.4526 64 32 64C36.3179 64 40.4969 63.1549 44.4319 61.4917C46.4831 63.064 49.0466 64 51.825 64C58.5384 64 64 58.5384 64 51.825C64 49.0465 63.064 46.483 61.4917 44.4318C63.155 40.4966 64 36.3177 64 32Z" fill="#14213D"/>
<path d="M64 32C64 23.4526 60.6714 15.4167 54.6274 9.37263C48.5834 3.3285 40.5474 0 32 0C24.2791 0 16.822 2.78887 11.0022 7.85275C10.6116 8.19263 10.5705 8.78487 10.9104 9.17537C11.2505 9.566 11.8426 9.60713 12.233 9.26725C17.7115 4.50025 24.7316 1.875 32 1.875C40.0465 1.875 47.6116 5.00862 53.3015 10.6985C58.9914 16.3884 62.125 23.9535 62.125 32C62.125 35.7714 61.4409 39.4295 60.0926 42.8955C59.5407 42.3841 58.9417 41.9231 58.3027 41.5199C59.4012 38.4821 59.9589 35.284 59.9589 32C59.9589 28.9552 59.4771 25.9686 58.5269 23.123C58.3629 22.6319 57.8319 22.3665 57.3406 22.5308C56.8495 22.6947 56.5844 23.2259 56.7484 23.7169C57.6346 26.3705 58.084 29.1574 58.084 32C58.084 34.9769 57.5931 37.8769 56.6268 40.6365C55.1528 40.0014 53.5294 39.6488 51.8251 39.6488C51.6629 39.6488 51.5152 39.6519 51.3732 39.6585C50.856 39.6824 50.4561 40.121 50.48 40.6382C50.5037 41.1554 50.938 41.5545 51.4598 41.5315C51.5725 41.5263 51.6921 41.5238 51.8252 41.5238C57.5047 41.5238 62.1253 46.1449 62.1253 51.825C62.1253 57.5045 57.5046 62.125 51.8252 62.125C46.1452 62.125 41.5241 57.5045 41.5241 51.825C41.5241 47.7949 43.8942 44.1129 47.5622 42.4446C48.0336 42.2303 48.2419 41.6744 48.0275 41.2031C47.8131 40.7319 47.2572 40.5234 46.7859 40.7379C42.4505 42.7096 39.6491 47.0616 39.6491 51.825C39.6491 53.5293 40.0018 55.1524 40.6369 56.6265C37.8773 57.5929 34.9771 58.0838 32.0004 58.0838C25.0324 58.0838 18.482 55.3708 13.5557 50.4446C8.62925 45.5184 5.91625 38.968 5.91625 32C5.91625 25.032 8.62925 18.4816 13.5554 13.5554C18.4816 8.62925 25.032 5.91625 32 5.91625C38.968 5.91625 45.5184 8.62925 50.4446 13.5554C52.3092 15.4199 53.8721 17.5337 55.0899 19.838C55.3317 20.2957 55.899 20.4708 56.3568 20.2288C56.8146 19.9867 56.9895 19.4196 56.7476 18.9619C55.4422 16.4918 53.7676 14.2266 51.7706 12.2295C46.4901 6.94925 39.4689 4.04125 32 4.04125C24.5311 4.04125 17.5099 6.94925 12.2295 12.2296C6.94925 17.5099 4.04125 24.5312 4.04125 32C4.04125 39.4688 6.94925 46.4901 12.2295 51.7704C17.5099 57.0508 24.5311 59.9588 32 59.9588C35.2837 59.9588 38.4819 59.4011 41.5199 58.3026C41.9231 58.9417 42.3841 59.5407 42.8955 60.0925C39.4296 61.4408 35.7715 62.125 32 62.125C23.9535 62.125 16.3884 58.9914 10.6985 53.3015C5.00862 47.6116 1.875 40.0465 1.875 32C1.875 24.7485 4.4895 17.7409 9.237 12.2681C9.57638 11.877 9.53438 11.2849 9.14325 10.9456C8.752 10.6065 8.16 10.6484 7.82075 11.0395C2.7775 16.8531 0 24.2971 0 32C0 40.5474 3.32863 48.5833 9.37263 54.6274C15.4167 60.6714 23.4526 64 32 64C36.3179 64 40.4969 63.1549 44.4319 61.4917C46.4831 63.064 49.0466 64 51.825 64C58.5384 64 64 58.5384 64 51.825C64 49.0465 63.064 46.483 61.4917 44.4318C63.155 40.4966 64 36.3177 64 32Z" stroke="white"/>
<path d="M51.8243 48.8667C50.1933 48.8667 48.8665 50.1936 48.8665 51.8246C48.8665 53.4556 50.1933 54.7825 51.8243 54.7825C53.4552 54.7825 54.7821 53.4556 54.7821 51.8246C54.7821 50.1936 53.4552 48.8667 51.8243 48.8667ZM51.8243 52.9073C51.2273 52.9073 50.7415 52.4216 50.7415 51.8244C50.7415 51.2273 51.2273 50.7416 51.8243 50.7416C52.4213 50.7416 52.9071 51.2273 52.9071 51.8244C52.9071 52.4216 52.4213 52.9073 51.8243 52.9073Z" fill="#14213D"/>
<path d="M51.8243 48.8667C50.1933 48.8667 48.8665 50.1936 48.8665 51.8246C48.8665 53.4556 50.1933 54.7825 51.8243 54.7825C53.4552 54.7825 54.7821 53.4556 54.7821 51.8246C54.7821 50.1936 53.4552 48.8667 51.8243 48.8667ZM51.8243 52.9073C51.2273 52.9073 50.7415 52.4216 50.7415 51.8244C50.7415 51.2273 51.2273 50.7416 51.8243 50.7416C52.4213 50.7416 52.9071 51.2273 52.9071 51.8244C52.9071 52.4216 52.4213 52.9073 51.8243 52.9073Z" stroke="white"/>
<path d="M58.1572 47.9895C58.2967 47.2918 58.0797 46.5751 57.5767 46.0721C57.0737 45.5691 56.3572 45.3522 55.6592 45.4915L54.916 45.6401C54.8508 45.6533 54.7911 45.6342 54.7522 45.6158C54.5547 45.5227 54.35 45.4381 54.1433 45.364C54.1035 45.3497 54.0481 45.321 54.0112 45.2657L53.5906 44.6347C53.1961 44.0428 52.5358 43.6895 51.8243 43.6895C51.1128 43.6895 50.4526 44.0428 50.0581 44.6347L49.6372 45.266C49.6005 45.3211 49.5452 45.3497 49.5052 45.3641C49.2995 45.4378 49.0947 45.5226 48.8961 45.6161C48.8575 45.6343 48.7976 45.6531 48.7326 45.6402L47.9893 45.4916C47.2921 45.352 46.5751 45.5691 46.0721 46.0721C45.5691 46.5751 45.352 47.292 45.4915 47.9893L45.6401 48.7331C45.6531 48.7981 45.6341 48.8577 45.6158 48.8963C45.5227 49.0937 45.438 49.2987 45.364 49.5053C45.3496 49.5453 45.3208 49.6007 45.2656 49.6376L44.6346 50.0582C44.0427 50.4528 43.6892 51.1131 43.6892 51.8246C43.6892 52.536 44.0427 53.1963 44.6345 53.5908L45.2655 54.0116C45.3208 54.0485 45.3496 54.104 45.3638 54.1436C45.438 54.3505 45.5227 54.5553 45.6158 54.7528C45.6341 54.7915 45.6531 54.8511 45.64 54.9165L45.4915 55.6596C45.352 56.3572 45.569 57.074 46.0721 57.577C46.575 58.0798 47.2912 58.2971 47.9893 58.1575L48.7327 58.0088C48.7973 57.9958 48.8575 58.0148 48.8963 58.0331C49.0946 58.1266 49.2996 58.2113 49.5052 58.285C49.5616 58.3052 49.6085 58.3401 49.6373 58.3833L50.0581 59.0142C50.4526 59.6062 51.1128 59.9596 51.8243 59.9596C52.5358 59.9596 53.1961 59.6062 53.5906 59.0143L54.0111 58.3836C54.0481 58.3281 54.1033 58.2995 54.1435 58.2851C54.3498 58.2111 54.5548 58.1262 54.7525 58.0331C54.7911 58.0148 54.8508 57.9955 54.9161 58.009L55.6592 58.1576C56.357 58.2967 57.0735 58.08 57.5767 57.577C58.0796 57.074 58.2967 56.3572 58.1572 55.6596L58.0086 54.9166C57.9956 54.8512 58.0146 54.7913 58.0327 54.7528C58.1261 54.5547 58.211 54.3497 58.2847 54.144C58.2991 54.104 58.3278 54.0486 58.3832 54.0117L59.0141 53.591C59.606 53.1963 59.9593 52.5361 59.9593 51.8247C59.9593 51.1133 59.606 50.453 59.0141 50.0585L58.383 49.6377C58.3278 49.601 58.2991 49.5456 58.2848 49.5058C58.211 49.2997 58.1261 49.0947 58.0328 48.897C58.0146 48.8582 57.9955 48.7982 58.0086 48.7332L58.1572 47.9895ZM58.0843 51.8243C58.0843 51.8848 58.0652 51.9697 57.9738 52.0305L57.3431 52.4511C56.9618 52.7051 56.6772 53.0715 56.5196 53.511C56.4661 53.6603 56.4046 53.8088 56.3367 53.9527C56.1378 54.3746 56.0801 54.8347 56.1698 55.2837L56.3185 56.027C56.34 56.1343 56.2936 56.208 56.2507 56.2507C56.208 56.2935 56.1336 56.3401 56.0268 56.3185L55.2838 56.1698C54.8343 56.08 54.3743 56.1377 53.9525 56.3368C53.8092 56.4045 53.6607 56.4658 53.5111 56.5195C53.0721 56.6767 52.7057 56.9613 52.4512 57.3427L52.0306 57.9738C51.9698 58.065 51.8848 58.0841 51.8245 58.0841C51.7641 58.0841 51.6791 58.065 51.6183 57.9737L51.1977 57.3428C50.9436 56.9616 50.5771 56.6768 50.1378 56.5195C49.9886 56.4661 49.84 56.4046 49.6965 56.3368C49.4037 56.1988 49.0926 56.1287 48.7796 56.1287C48.6415 56.1287 48.5027 56.1423 48.3653 56.1698L47.6221 56.3185C47.5145 56.3403 47.4411 56.2935 47.3983 56.2507C47.3555 56.208 47.3091 56.1345 47.3306 56.0268L47.4791 55.284C47.569 54.8348 47.5112 54.3745 47.3121 53.9525C47.2447 53.8096 47.1833 53.6611 47.1293 53.5107C46.972 53.0717 46.6873 52.7055 46.3062 52.4513L45.6751 52.0306C45.5838 51.9698 45.5646 51.8848 45.5646 51.8245C45.5646 51.764 45.5837 51.6791 45.6751 51.6182L46.3062 51.1976C46.6873 50.9435 46.972 50.5771 47.1295 50.1378C47.1833 49.9877 47.2447 49.8392 47.3121 49.6965C47.5112 49.2743 47.569 48.8138 47.4791 48.3653L47.3306 47.6218C47.3091 47.5143 47.3555 47.4408 47.3983 47.398C47.4411 47.3552 47.5151 47.309 47.6221 47.3302L48.3652 47.4788C48.8146 47.5687 49.2746 47.511 49.696 47.3121C49.8398 47.2443 49.9887 47.1827 50.1381 47.1292C50.5773 46.9718 50.9437 46.6871 51.1977 46.3061L51.6185 45.675C51.6792 45.5838 51.7641 45.5647 51.8246 45.5647C51.8851 45.5647 51.97 45.5838 52.0307 45.675L52.4513 46.3061C52.7056 46.6873 53.0721 46.972 53.5108 47.1291C53.6608 47.1828 53.8096 47.2445 53.9526 47.3118C54.3745 47.5108 54.835 47.5685 55.2838 47.4788L56.027 47.3302C56.1346 47.3086 56.2081 47.3552 56.2508 47.398C56.2937 47.4407 56.3401 47.5143 56.3186 47.6217L56.17 48.3652C56.0802 48.814 56.138 49.2741 56.337 49.6963C56.4047 49.8398 56.4662 49.9883 56.5198 50.1381C56.6773 50.5773 56.962 50.9437 57.3431 51.1976L57.9741 51.6182C58.0651 51.6788 58.0843 51.7637 58.0843 51.8243Z" fill="#14213D"/>
<path d="M29.6498 14.3953C30.4036 14.6108 31.1943 14.7202 32.0001 14.7202C32.8058 14.7202 33.5964 14.6108 34.3503 14.3953C34.8481 14.2529 35.1362 13.7339 34.9938 13.2362C34.8516 12.7384 34.3322 12.4506 33.8348 12.5926C33.2487 12.7602 32.6314 12.8452 32.0001 12.8452C31.3687 12.8452 30.7516 12.7602 30.1653 12.5926C29.6679 12.4501 29.1486 12.7384 29.0063 13.2362C28.8641 13.7339 29.1521 14.2529 29.6498 14.3953Z" fill="#14213D"/>
<path d="M29.6498 14.3953C30.4036 14.6108 31.1943 14.7202 32.0001 14.7202C32.8058 14.7202 33.5964 14.6108 34.3503 14.3953C34.8481 14.2529 35.1362 13.7339 34.9938 13.2362C34.8516 12.7384 34.3322 12.4506 33.8348 12.5926C33.2487 12.7602 32.6314 12.8452 32.0001 12.8452C31.3687 12.8452 30.7516 12.7602 30.1653 12.5926C29.6679 12.4501 29.1486 12.7384 29.0063 13.2362C28.8641 13.7339 29.1521 14.2529 29.6498 14.3953Z" stroke="white"/>
<path d="M32 19.8055C35.9286 19.8055 39.1247 17.1758 39.1247 13.9435C39.1247 10.7112 35.9286 8.08154 32 8.08154C28.0714 8.08154 24.8752 10.7113 24.8752 13.9435C24.8752 17.1758 28.0714 19.8055 32 19.8055ZM32 9.95642C34.8947 9.95642 37.2497 11.745 37.2497 13.9434C37.2497 16.1418 34.8947 17.9304 32 17.9304C29.1052 17.9304 26.7502 16.1418 26.7502 13.9434C26.7502 11.745 29.1052 9.95642 32 9.95642Z" fill="#14213D"/>
<path d="M32 19.8055C35.9286 19.8055 39.1247 17.1758 39.1247 13.9435C39.1247 10.7112 35.9286 8.08154 32 8.08154C28.0714 8.08154 24.8752 10.7113 24.8752 13.9435C24.8752 17.1758 28.0714 19.8055 32 19.8055ZM32 9.95642C34.8947 9.95642 37.2497 11.745 37.2497 13.9434C37.2497 16.1418 34.8947 17.9304 32 17.9304C29.1052 17.9304 26.7502 16.1418 26.7502 13.9434C26.7502 11.745 29.1052 9.95642 32 9.95642Z" stroke="white"/>
<path d="M47.4718 22.8206C46.8856 22.9883 46.2682 23.0733 45.6371 23.0733C45.0059 23.0733 44.3887 22.9883 43.8023 22.8206C43.3046 22.6783 42.7856 22.9665 42.6433 23.4643C42.5009 23.9621 42.7892 24.481 43.2869 24.6233C44.0408 24.8389 44.8316 24.9481 45.6371 24.9481C46.4426 24.9481 47.2333 24.8389 47.9872 24.6233C48.4849 24.481 48.7732 23.962 48.6308 23.4643C48.4884 22.9665 47.9692 22.678 47.4718 22.8206Z" fill="#14213D"/>
<path d="M47.4718 22.8206C46.8856 22.9883 46.2682 23.0733 45.6371 23.0733C45.0059 23.0733 44.3887 22.9883 43.8023 22.8206C43.3046 22.6783 42.7856 22.9665 42.6433 23.4643C42.5009 23.9621 42.7892 24.481 43.2869 24.6233C44.0408 24.8389 44.8316 24.9481 45.6371 24.9481C46.4426 24.9481 47.2333 24.8389 47.9872 24.6233C48.4849 24.481 48.7732 23.962 48.6308 23.4643C48.4884 22.9665 47.9692 22.678 47.4718 22.8206Z" stroke="white"/>
<path d="M52.7619 24.1711C52.7619 20.9387 49.5658 18.3091 45.6372 18.3091C41.7086 18.3091 38.5125 20.9387 38.5125 24.1711C38.5125 27.4033 41.7086 30.0331 45.6372 30.0331C49.5658 30.0331 52.7619 27.4035 52.7619 24.1711ZM45.6372 28.1581C42.7424 28.1581 40.3875 26.3695 40.3875 24.1711C40.3875 21.9726 42.7424 20.1841 45.6372 20.1841C48.5319 20.1841 50.8869 21.9727 50.8869 24.1711C50.8869 26.3696 48.5319 28.1581 45.6372 28.1581Z" fill="#14213D"/>
<path d="M52.7619 24.1711C52.7619 20.9387 49.5658 18.3091 45.6372 18.3091C41.7086 18.3091 38.5125 20.9387 38.5125 24.1711C38.5125 27.4033 41.7086 30.0331 45.6372 30.0331C49.5658 30.0331 52.7619 27.4035 52.7619 24.1711ZM45.6372 28.1581C42.7424 28.1581 40.3875 26.3695 40.3875 24.1711C40.3875 21.9726 42.7424 20.1841 45.6372 20.1841C48.5319 20.1841 50.8869 21.9727 50.8869 24.1711C50.8869 26.3696 48.5319 28.1581 45.6372 28.1581Z" stroke="white"/>
<path d="M20.783 27.5496C20.1969 27.7173 19.5797 27.8023 18.9483 27.8023C18.3169 27.8023 17.6998 27.7173 17.1136 27.5496C16.6162 27.407 16.0968 27.6955 15.9546 28.1933C15.8123 28.691 16.1003 29.21 16.5981 29.3524C17.3518 29.5679 18.1426 29.6773 18.9483 29.6773C19.7541 29.6773 20.5447 29.5679 21.2985 29.3524C21.7963 29.21 22.0844 28.691 21.942 28.1933C21.7998 27.6955 21.2804 27.4075 20.783 27.5496Z" fill="#14213D"/>
<path d="M20.783 27.5496C20.1969 27.7173 19.5797 27.8023 18.9483 27.8023C18.3169 27.8023 17.6998 27.7173 17.1136 27.5496C16.6162 27.407 16.0968 27.6955 15.9546 28.1933C15.8123 28.691 16.1003 29.21 16.5981 29.3524C17.3518 29.5679 18.1426 29.6773 18.9483 29.6773C19.7541 29.6773 20.5447 29.5679 21.2985 29.3524C21.7963 29.21 22.0844 28.691 21.942 28.1933C21.7998 27.6955 21.2804 27.4075 20.783 27.5496Z" stroke="white"/>
<path d="M18.9482 23.0386C15.0196 23.0386 11.8235 25.6683 11.8235 28.9006C11.8235 32.1328 15.0196 34.7626 18.9482 34.7626C22.8769 34.7626 26.073 32.1328 26.073 28.9006C26.073 25.6683 22.8769 23.0386 18.9482 23.0386ZM18.9482 32.8877C16.0535 32.8877 13.6985 31.0991 13.6985 28.9007C13.6985 26.7023 16.0535 24.9137 18.9482 24.9137C21.843 24.9137 24.198 26.7023 24.198 28.9007C24.198 31.0991 21.843 32.8877 18.9482 32.8877Z" fill="#14213D"/>
<path d="M18.9482 23.0386C15.0196 23.0386 11.8235 25.6683 11.8235 28.9006C11.8235 32.1328 15.0196 34.7626 18.9482 34.7626C22.8769 34.7626 26.073 32.1328 26.073 28.9006C26.073 25.6683 22.8769 23.0386 18.9482 23.0386ZM18.9482 32.8877C16.0535 32.8877 13.6985 31.0991 13.6985 28.9007C13.6985 26.7023 16.0535 24.9137 18.9482 24.9137C21.843 24.9137 24.198 26.7023 24.198 28.9007C24.198 31.0991 21.843 32.8877 18.9482 32.8877Z" stroke="white"/>
<path d="M33.9066 36.3663C34.6604 36.5818 35.4511 36.6912 36.2569 36.6912C37.0626 36.6912 37.8533 36.5818 38.607 36.3663C39.1048 36.2239 39.3929 35.7049 39.2505 35.2072C39.1081 34.7094 38.5898 34.4214 38.0914 34.5637C37.5054 34.7313 36.8883 34.8163 36.2569 34.8163C35.6255 34.8163 35.0084 34.7313 34.4221 34.5637C33.9248 34.4214 33.4054 34.7096 33.2631 35.2073C33.1209 35.7051 33.4089 36.2239 33.9066 36.3663Z" fill="#14213D"/>
<path d="M33.9066 36.3663C34.6604 36.5818 35.4511 36.6912 36.2569 36.6912C37.0626 36.6912 37.8533 36.5818 38.607 36.3663C39.1048 36.2239 39.3929 35.7049 39.2505 35.2072C39.1081 34.7094 38.5898 34.4214 38.0914 34.5637C37.5054 34.7313 36.8883 34.8163 36.2569 34.8163C35.6255 34.8163 35.0084 34.7313 34.4221 34.5637C33.9248 34.4214 33.4054 34.7096 33.2631 35.2073C33.1209 35.7051 33.4089 36.2239 33.9066 36.3663Z" stroke="white"/>
<path d="M36.2568 41.7762C40.1855 41.7762 43.3816 39.1465 43.3816 35.9142C43.3816 32.682 40.1855 30.0522 36.2568 30.0522C32.3282 30.0522 29.1321 32.682 29.1321 35.9142C29.1321 39.1465 32.3282 41.7762 36.2568 41.7762ZM36.2568 31.9271C39.1516 31.9271 41.5066 33.7157 41.5066 35.9141C41.5066 38.1125 39.1516 39.9011 36.2568 39.9011C33.3621 39.9011 31.0071 38.1125 31.0071 35.9141C31.0071 33.7157 33.362 31.9271 36.2568 31.9271Z" fill="#14213D"/>
<path d="M36.2568 41.7762C40.1855 41.7762 43.3816 39.1465 43.3816 35.9142C43.3816 32.682 40.1855 30.0522 36.2568 30.0522C32.3282 30.0522 29.1321 32.682 29.1321 35.9142C29.1321 39.1465 32.3282 41.7762 36.2568 41.7762ZM36.2568 31.9271C39.1516 31.9271 41.5066 33.7157 41.5066 35.9141C41.5066 38.1125 39.1516 39.9011 36.2568 39.9011C33.3621 39.9011 31.0071 38.1125 31.0071 35.9141C31.0071 33.7157 33.362 31.9271 36.2568 31.9271Z" stroke="white"/>
<path d="M20.6929 47.6804C21.4467 47.8961 22.2373 48.0053 23.0429 48.0053C23.8483 48.0053 24.6392 47.8961 25.3931 47.6804C25.8908 47.5382 26.1791 47.0192 26.0367 46.5214C25.8943 46.0236 25.3751 45.7351 24.8777 45.8778C24.2914 46.0454 23.6741 46.1304 23.0429 46.1304C22.4118 46.1304 21.7946 46.0454 21.2083 45.8778C20.7111 45.7353 20.1916 46.0237 20.0493 46.5214C19.9069 47.0192 20.1952 47.5381 20.6929 47.6804Z" fill="#14213D"/>
<path d="M20.6929 47.6804C21.4467 47.8961 22.2373 48.0053 23.0429 48.0053C23.8483 48.0053 24.6392 47.8961 25.3931 47.6804C25.8908 47.5382 26.1791 47.0192 26.0367 46.5214C25.8943 46.0236 25.3751 45.7351 24.8777 45.8778C24.2914 46.0454 23.6741 46.1304 23.0429 46.1304C22.4118 46.1304 21.7946 46.0454 21.2083 45.8778C20.7111 45.7353 20.1916 46.0237 20.0493 46.5214C19.9069 47.0192 20.1952 47.5381 20.6929 47.6804Z" stroke="white"/>
<path d="M23.043 53.0902C26.9716 53.0902 30.1677 50.4605 30.1677 47.2282C30.1677 43.9958 26.9716 41.3662 23.043 41.3662C19.1143 41.3662 15.9182 43.996 15.9182 47.2282C15.9182 50.4606 19.1143 53.0902 23.043 53.0902ZM23.043 43.2412C25.9377 43.2412 28.2927 45.0298 28.2927 47.2282C28.2927 49.4266 25.9377 51.2152 23.043 51.2152C20.1482 51.2152 17.7932 49.4266 17.7932 47.2282C17.7932 45.0297 20.1482 43.2412 23.043 43.2412Z" fill="#14213D"/>
<path d="M23.043 53.0902C26.9716 53.0902 30.1677 50.4605 30.1677 47.2282C30.1677 43.9958 26.9716 41.3662 23.043 41.3662C19.1143 41.3662 15.9182 43.996 15.9182 47.2282C15.9182 50.4606 19.1143 53.0902 23.043 53.0902ZM23.043 43.2412C25.9377 43.2412 28.2927 45.0298 28.2927 47.2282C28.2927 49.4266 25.9377 51.2152 23.043 51.2152C20.1482 51.2152 17.7932 49.4266 17.7932 47.2282C17.7932 45.0297 20.1482 43.2412 23.043 43.2412Z" stroke="white"/>
</svg>
