<svg width="64" height="64" fill="none" xmlns="http://www.w3.org/2000/svg"><path d="M64 32c0-8.547-3.329-16.583-9.373-22.627C48.583 3.329 40.547 0 32 0a31.986 31.986 0 0 0-20.998 7.853.937.937 0 0 0 1.231 1.414A30.11 30.11 0 0 1 32 1.875c8.047 0 15.612 3.134 21.301 8.823 5.69 5.69 8.824 13.255 8.824 21.302a29.9 29.9 0 0 1-2.032 10.895 12.258 12.258 0 0 0-1.79-1.375A27.89 27.89 0 0 0 59.959 32c0-3.045-.482-6.031-1.432-8.877a.937.937 0 1 0-1.779.594A26.097 26.097 0 0 1 58.084 32c0 2.977-.49 5.877-1.457 8.636a12.106 12.106 0 0 0-5.254-.978.937.937 0 1 0 .087 1.873c.112-.005.232-.007.365-.007 5.68 0 10.3 4.62 10.3 10.301 0 5.68-4.62 10.3-10.3 10.3-5.68 0-10.3-4.62-10.3-10.3 0-4.03 2.37-7.712 6.037-9.38a.937.937 0 1 0-.776-1.707 12.206 12.206 0 0 0-7.137 11.087c0 1.704.353 3.327.988 4.801A26.039 26.039 0 0 1 32 58.084c-6.968 0-13.518-2.713-18.444-7.64C8.629 45.519 5.916 38.969 5.916 32c0-6.968 2.713-13.518 7.64-18.445C18.481 8.63 25.031 5.916 32 5.916c6.968 0 13.518 2.713 18.445 7.64a26.184 26.184 0 0 1 4.645 6.282.937.937 0 1 0 1.658-.876 28.062 28.062 0 0 0-4.977-6.732C46.49 6.95 39.469 4.04 32 4.04c-7.469 0-14.49 2.908-19.77 8.189C6.95 17.51 4.04 24.53 4.04 32c0 7.469 2.908 14.49 8.188 19.77C17.51 57.05 24.532 59.96 32 59.96c3.284 0 6.482-.558 9.52-1.656.403.639.864 1.238 1.375 1.79A29.9 29.9 0 0 1 32 62.124c-8.047 0-15.612-3.134-21.302-8.824C5.008 47.611 1.875 40.046 1.875 32c0-7.252 2.614-14.26 7.362-19.732a.937.937 0 1 0-1.416-1.229A31.988 31.988 0 0 0 0 32c0 8.547 3.329 16.583 9.373 22.627C15.417 60.671 23.453 64 32 64c4.318 0 8.497-.845 12.432-2.508A12.114 12.114 0 0 0 51.825 64C58.538 64 64 58.538 64 51.825c0-2.779-.936-5.342-2.508-7.393A31.744 31.744 0 0 0 64 32Z" fill="#14213D"/><path d="M64 32c0-8.547-3.329-16.583-9.373-22.627C48.583 3.329 40.547 0 32 0a31.986 31.986 0 0 0-20.998 7.853.937.937 0 0 0 1.231 1.414A30.11 30.11 0 0 1 32 1.875c8.047 0 15.612 3.134 21.301 8.823 5.69 5.69 8.824 13.255 8.824 21.302a29.9 29.9 0 0 1-2.032 10.895 12.258 12.258 0 0 0-1.79-1.375A27.89 27.89 0 0 0 59.959 32c0-3.045-.482-6.031-1.432-8.877a.937.937 0 1 0-1.779.594A26.097 26.097 0 0 1 58.084 32c0 2.977-.49 5.877-1.457 8.636a12.106 12.106 0 0 0-5.254-.978.937.937 0 1 0 .087 1.873c.112-.005.232-.007.365-.007 5.68 0 10.3 4.62 10.3 10.301 0 5.68-4.62 10.3-10.3 10.3-5.68 0-10.3-4.62-10.3-10.3 0-4.03 2.37-7.712 6.037-9.38a.937.937 0 1 0-.776-1.707 12.206 12.206 0 0 0-7.137 11.087c0 1.704.353 3.327.988 4.801A26.039 26.039 0 0 1 32 58.084c-6.968 0-13.518-2.713-18.444-7.64C8.629 45.519 5.916 38.969 5.916 32c0-6.968 2.713-13.518 7.64-18.445C18.481 8.63 25.031 5.916 32 5.916c6.968 0 13.518 2.713 18.445 7.64a26.184 26.184 0 0 1 4.645 6.282.937.937 0 1 0 1.658-.876 28.062 28.062 0 0 0-4.977-6.732C46.49 6.95 39.469 4.04 32 4.04c-7.469 0-14.49 2.908-19.77 8.189C6.95 17.51 4.04 24.53 4.04 32c0 7.469 2.908 14.49 8.188 19.77C17.51 57.05 24.532 59.96 32 59.96c3.284 0 6.482-.558 9.52-1.656.403.639.864 1.238 1.375 1.79A29.9 29.9 0 0 1 32 62.124c-8.047 0-15.612-3.134-21.302-8.824C5.008 47.611 1.875 40.046 1.875 32c0-7.252 2.614-14.26 7.362-19.732a.937.937 0 1 0-1.416-1.229A31.988 31.988 0 0 0 0 32c0 8.547 3.329 16.583 9.373 22.627C15.417 60.671 23.453 64 32 64c4.318 0 8.497-.845 12.432-2.508A12.114 12.114 0 0 0 51.825 64C58.538 64 64 58.538 64 51.825c0-2.779-.936-5.342-2.508-7.393A31.744 31.744 0 0 0 64 32Z" stroke="#fff"/><path d="M51.824 48.867a2.961 2.961 0 0 0-2.957 2.958 2.961 2.961 0 0 0 2.957 2.957 2.961 2.961 0 0 0 2.958-2.957 2.961 2.961 0 0 0-2.958-2.958Zm0 4.04a1.084 1.084 0 0 1 0-2.165 1.084 1.084 0 0 1 0 2.165Z" fill="#14213D"/><path d="M51.824 48.867a2.961 2.961 0 0 0-2.957 2.958 2.961 2.961 0 0 0 2.957 2.957 2.961 2.961 0 0 0 2.958-2.957 2.961 2.961 0 0 0-2.958-2.958Zm0 4.04a1.084 1.084 0 0 1 0-2.165 1.084 1.084 0 0 1 0 2.165Z" stroke="#fff"/><path d="M58.157 47.99a2.119 2.119 0 0 0-.58-1.918 2.12 2.12 0 0 0-1.918-.58l-.743.148a.265.265 0 0 1-.164-.024 6.871 6.871 0 0 0-.609-.252.265.265 0 0 1-.132-.098l-.42-.631a2.118 2.118 0 0 0-1.767-.945c-.711 0-1.371.353-1.766.945l-.42.631a.264.264 0 0 1-.133.098c-.206.074-.41.159-.609.252a.267.267 0 0 1-.163.024l-.744-.148a2.118 2.118 0 0 0-1.917.58 2.119 2.119 0 0 0-.58 1.917l.148.744a.265.265 0 0 1-.024.163 6.843 6.843 0 0 0-.252.61.266.266 0 0 1-.098.132l-.631.42a2.119 2.119 0 0 0-.946 1.767c0 .711.354 1.371.946 1.766l.63.42a.265.265 0 0 1 .099.133c.074.206.159.411.252.609a.265.265 0 0 1 .024.163l-.148.744c-.14.697.077 1.414.58 1.917.503.503 1.22.72 1.917.58l.744-.148a.267.267 0 0 1 .163.024c.199.094.404.178.61.252.056.02.102.055.131.098l.421.631a2.118 2.118 0 0 0 1.766.946c.712 0 1.372-.354 1.767-.946l.42-.63a.264.264 0 0 1 .133-.099 6.92 6.92 0 0 0 .608-.252.262.262 0 0 1 .164-.024l.743.149a2.12 2.12 0 0 0 1.918-.581c.503-.503.72-1.22.58-1.917l-.148-.743a.267.267 0 0 1 .024-.164 6.86 6.86 0 0 0 .252-.609.265.265 0 0 1 .098-.132l.631-.421a2.119 2.119 0 0 0 .945-1.766c0-.712-.353-1.372-.945-1.767l-.631-.42a.264.264 0 0 1-.098-.132 6.82 6.82 0 0 0-.252-.609.267.267 0 0 1-.024-.164l.148-.743Zm-.073 3.834c0 .06-.019.146-.11.207l-.63.42c-.382.254-.667.62-.824 1.06a4.96 4.96 0 0 1-.183.442 2.125 2.125 0 0 0-.167 1.33l.148.744a.238.238 0 0 1-.067.224.239.239 0 0 1-.224.068l-.743-.15c-.45-.089-.91-.031-1.331.168a4.96 4.96 0 0 1-.442.182 2.123 2.123 0 0 0-1.06.824l-.42.63a.238.238 0 0 1-.206.111.238.238 0 0 1-.207-.11l-.42-.631a2.122 2.122 0 0 0-1.06-.824 4.914 4.914 0 0 1-.441-.182 2.145 2.145 0 0 0-1.332-.167l-.743.148a.237.237 0 0 1-.224-.067.238.238 0 0 1-.067-.224l.148-.743c.09-.45.032-.91-.167-1.331a5 5 0 0 1-.183-.442 2.122 2.122 0 0 0-.823-1.06l-.63-.42a.238.238 0 0 1-.111-.206c0-.061.019-.146.11-.207l.631-.42c.381-.255.666-.62.824-1.06.053-.15.115-.299.182-.441.2-.423.257-.883.167-1.332l-.148-.743a.238.238 0 0 1 .067-.224.24.24 0 0 1 .224-.068l.743.149c.45.09.91.032 1.331-.167.144-.068.293-.13.442-.183.44-.157.806-.442 1.06-.823l.42-.631a.238.238 0 0 1 .207-.11c.06 0 .145.019.206.11l.42.631c.255.381.621.666 1.06.823.15.054.299.116.442.183.421.199.882.257 1.33.167l.744-.149a.238.238 0 0 1 .224.068c.043.043.09.116.068.224l-.149.743c-.09.449-.032.91.167 1.331.068.144.13.292.183.442.157.44.442.806.823 1.06l.631.42c.091.06.11.146.11.206ZM29.65 14.395a8.548 8.548 0 0 0 2.35.325c.806 0 1.596-.11 2.35-.325a.937.937 0 0 0-.515-1.802 6.671 6.671 0 0 1-1.835.252 6.672 6.672 0 0 1-1.835-.252.937.937 0 0 0-.515 1.802Z" fill="#14213D"/><path d="M29.65 14.395a8.548 8.548 0 0 0 2.35.325c.806 0 1.596-.11 2.35-.325a.937.937 0 0 0-.515-1.802 6.671 6.671 0 0 1-1.835.252 6.672 6.672 0 0 1-1.835-.252.937.937 0 0 0-.515 1.802Z" stroke="#fff"/><path d="M32 19.805c3.929 0 7.125-2.63 7.125-5.861 0-3.233-3.196-5.862-7.125-5.862s-7.125 2.63-7.125 5.861c0 3.233 3.196 5.862 7.125 5.862Zm0-9.849c2.895 0 5.25 1.789 5.25 3.987 0 2.199-2.355 3.987-5.25 3.987s-5.25-1.788-5.25-3.987c0-2.198 2.355-3.987 5.25-3.987Z" fill="#14213D"/><path d="M32 19.805c3.929 0 7.125-2.63 7.125-5.861 0-3.233-3.196-5.862-7.125-5.862s-7.125 2.63-7.125 5.861c0 3.233 3.196 5.862 7.125 5.862Zm0-9.849c2.895 0 5.25 1.789 5.25 3.987 0 2.199-2.355 3.987-5.25 3.987s-5.25-1.788-5.25-3.987c0-2.198 2.355-3.987 5.25-3.987Z" stroke="#fff"/><path d="M47.472 22.82a6.67 6.67 0 0 1-1.835.253 6.67 6.67 0 0 1-1.835-.252.937.937 0 0 0-.515 1.802 8.545 8.545 0 0 0 2.35.325c.806 0 1.596-.11 2.35-.325a.937.937 0 0 0-.515-1.802Z" fill="#14213D"/><path d="M47.472 22.82a6.67 6.67 0 0 1-1.835.253 6.67 6.67 0 0 1-1.835-.252.937.937 0 0 0-.515 1.802 8.545 8.545 0 0 0 2.35.325c.806 0 1.596-.11 2.35-.325a.937.937 0 0 0-.515-1.802Z" stroke="#fff"/><path d="M52.762 24.171c0-3.232-3.196-5.862-7.125-5.862-3.928 0-7.124 2.63-7.124 5.862s3.196 5.862 7.124 5.862c3.929 0 7.125-2.63 7.125-5.862Zm-7.125 3.987c-2.895 0-5.25-1.789-5.25-3.987 0-2.198 2.355-3.987 5.25-3.987s5.25 1.789 5.25 3.987c0 2.199-2.355 3.987-5.25 3.987Z" fill="#14213D"/><path d="M52.762 24.171c0-3.232-3.196-5.862-7.125-5.862-3.928 0-7.124 2.63-7.124 5.862s3.196 5.862 7.124 5.862c3.929 0 7.125-2.63 7.125-5.862Zm-7.125 3.987c-2.895 0-5.25-1.789-5.25-3.987 0-2.198 2.355-3.987 5.25-3.987s5.25 1.789 5.25 3.987c0 2.199-2.355 3.987-5.25 3.987Z" stroke="#fff"/><path d="M20.783 27.55a6.667 6.667 0 0 1-1.835.252 6.668 6.668 0 0 1-1.834-.252.937.937 0 1 0-.516 1.802 8.547 8.547 0 0 0 2.35.325c.806 0 1.597-.11 2.35-.325a.937.937 0 0 0-.515-1.802Z" fill="#14213D"/><path d="M20.783 27.55a6.667 6.667 0 0 1-1.835.252 6.668 6.668 0 0 1-1.834-.252.937.937 0 1 0-.516 1.802 8.547 8.547 0 0 0 2.35.325c.806 0 1.597-.11 2.35-.325a.937.937 0 0 0-.515-1.802Z" stroke="#fff"/><path d="M18.948 23.039c-3.928 0-7.125 2.63-7.125 5.862s3.197 5.862 7.125 5.862c3.929 0 7.125-2.63 7.125-5.862 0-3.233-3.196-5.862-7.125-5.862Zm0 9.849c-2.895 0-5.25-1.789-5.25-3.987 0-2.199 2.355-3.987 5.25-3.987s5.25 1.788 5.25 3.987c0 2.198-2.355 3.987-5.25 3.987Z" fill="#14213D"/><path d="M18.948 23.039c-3.928 0-7.125 2.63-7.125 5.862s3.197 5.862 7.125 5.862c3.929 0 7.125-2.63 7.125-5.862 0-3.233-3.196-5.862-7.125-5.862Zm0 9.849c-2.895 0-5.25-1.789-5.25-3.987 0-2.199 2.355-3.987 5.25-3.987s5.25 1.788 5.25 3.987c0 2.198-2.355 3.987-5.25 3.987Z" stroke="#fff"/><path d="M33.907 36.366a8.548 8.548 0 0 0 2.35.325c.806 0 1.596-.11 2.35-.325a.937.937 0 0 0-.516-1.802 6.669 6.669 0 0 1-1.834.252 6.672 6.672 0 0 1-1.835-.252.938.938 0 0 0-.515 1.802Z" fill="#14213D"/><path d="M33.907 36.366a8.548 8.548 0 0 0 2.35.325c.806 0 1.596-.11 2.35-.325a.937.937 0 0 0-.516-1.802 6.669 6.669 0 0 1-1.834.252 6.672 6.672 0 0 1-1.835-.252.938.938 0 0 0-.515 1.802Z" stroke="#fff"/><path d="M36.257 41.776c3.928 0 7.125-2.63 7.125-5.862s-3.197-5.862-7.125-5.862c-3.929 0-7.125 2.63-7.125 5.862 0 3.233 3.196 5.862 7.125 5.862Zm0-9.849c2.895 0 5.25 1.789 5.25 3.987 0 2.198-2.355 3.987-5.25 3.987s-5.25-1.789-5.25-3.987c0-2.198 2.355-3.987 5.25-3.987Z" fill="#14213D"/><path d="M36.257 41.776c3.928 0 7.125-2.63 7.125-5.862s-3.197-5.862-7.125-5.862c-3.929 0-7.125 2.63-7.125 5.862 0 3.233 3.196 5.862 7.125 5.862Zm0-9.849c2.895 0 5.25 1.789 5.25 3.987 0 2.198-2.355 3.987-5.25 3.987s-5.25-1.789-5.25-3.987c0-2.198 2.355-3.987 5.25-3.987Z" stroke="#fff"/><path d="M20.693 47.68a8.539 8.539 0 0 0 2.35.325c.805 0 1.596-.109 2.35-.325a.937.937 0 1 0-.515-1.802 6.674 6.674 0 0 1-1.835.252 6.673 6.673 0 0 1-1.835-.252.938.938 0 0 0-.515 1.802Z" fill="#14213D"/><path d="M20.693 47.68a8.539 8.539 0 0 0 2.35.325c.805 0 1.596-.109 2.35-.325a.937.937 0 1 0-.515-1.802 6.674 6.674 0 0 1-1.835.252 6.673 6.673 0 0 1-1.835-.252.938.938 0 0 0-.515 1.802Z" stroke="#fff"/><path d="M23.043 53.09c3.929 0 7.125-2.63 7.125-5.862s-3.196-5.862-7.125-5.862-7.125 2.63-7.125 5.862c0 3.233 3.196 5.862 7.125 5.862Zm0-9.849c2.895 0 5.25 1.789 5.25 3.987 0 2.199-2.355 3.987-5.25 3.987s-5.25-1.788-5.25-3.987c0-2.198 2.355-3.987 5.25-3.987Z" fill="#14213D"/><path d="M23.043 53.09c3.929 0 7.125-2.63 7.125-5.862s-3.196-5.862-7.125-5.862-7.125 2.63-7.125 5.862c0 3.233 3.196 5.862 7.125 5.862Zm0-9.849c2.895 0 5.25 1.789 5.25 3.987 0 2.199-2.355 3.987-5.25 3.987s-5.25-1.788-5.25-3.987c0-2.198 2.355-3.987 5.25-3.987Z" stroke="#fff"/></svg>