<svg width="64" height="64" viewBox="0 0 64 64" fill="none" xmlns="http://www.w3.org/2000/svg">
<g clip-path="url(#clip0)">
<path d="M9.4513 28.2392L9.4513 28.2392C8.3887 30.7577 7.85 33.432 7.85 36.1875C7.85 47.4707 17.0294 56.65 28.3125 56.65C39.5957 56.65 48.775 47.4707 48.775 36.1875C48.775 24.9043 39.5957 15.725 28.3125 15.725C21.7655 15.725 15.5638 18.8959 11.7218 24.2072L11.7218 24.2072C11.3699 24.694 11.4791 25.3737 11.9657 25.7258L11.9657 25.7258C12.4525 26.0777 13.1322 25.9685 13.4843 25.4819L13.4843 25.4819C16.9183 20.7343 22.4617 17.9 28.3125 17.9C38.3962 17.9 46.6 26.1038 46.6 36.1875C46.6 46.2712 38.3963 54.475 28.3125 54.475C18.2288 54.475 10.025 46.2712 10.025 36.1875C10.025 33.7235 10.5063 31.3339 11.4553 29.0846C11.6888 28.5313 11.4294 27.8934 10.8761 27.6599L10.876 27.6599C10.3226 27.4266 9.6849 27.6857 9.4513 28.2392Z" fill="#14213D" stroke="#14213D" stroke-width="0.3"/>
<mask id="path-2-outside-1" maskUnits="userSpaceOnUse" x="-0.500244" y="-1" width="65" height="66" fill="black">
<rect fill="white" x="-0.500244" y="-1" width="65" height="66"/>
<path d="M28.3146 64C27.0548 64 25.8608 63.5084 24.9422 62.6091C24.1608 61.844 23.6517 60.8356 23.4916 59.7659C20.4691 59.153 17.6393 57.9815 15.061 56.2756C14.2132 56.9287 13.18 57.2825 12.0923 57.2825C10.8295 57.2825 9.63184 56.8011 8.72021 55.9272C7.78346 55.0291 7.25996 53.8076 7.24609 52.4873C7.23459 51.3934 7.58784 50.3199 8.23159 49.45C6.52421 46.8724 5.35109 44.0434 4.73659 41.0214C3.67546 40.8836 2.69509 40.4036 1.92684 39.6354C1.03384 38.7423 0.527461 37.5549 0.500836 36.292C0.473461 34.9945 0.967086 33.7605 1.89084 32.817C2.65596 32.0358 3.66421 31.5268 4.73384 31.3665C5.34684 28.3439 6.51834 25.5143 8.22409 22.936C7.57096 22.0883 7.21721 21.055 7.21721 19.9674C7.21721 18.7045 7.69846 17.507 8.57246 16.5952C9.47059 15.6585 10.6922 15.135 12.0126 15.1211C13.1057 15.1039 14.18 15.4629 15.0498 16.1066C17.6275 14.3993 20.4563 13.2261 23.4783 12.6116C23.616 11.5505 24.096 10.5703 24.8642 9.80188C25.7572 8.909 26.9445 8.40263 28.2075 8.37588C29.5063 8.3475 30.7392 8.84212 31.6826 9.76587C32.4638 10.5309 32.973 11.5393 33.1331 12.6089C35.9982 13.1906 38.7048 14.2816 41.1882 15.8569C41.228 15.882 41.3411 15.9491 41.5956 16.0754C41.6082 16.066 41.6206 16.0566 41.6332 16.0471C41.7563 15.956 41.7996 15.8001 41.7408 15.6591C41.6635 15.4736 41.5892 15.2809 41.5207 15.0868C41.0925 13.8784 40.875 12.608 40.875 11.3125C40.875 8.29075 42.0516 5.45 44.1882 3.31337C46.325 1.17675 49.1657 0 52.1875 0C55.2092 0 58.05 1.17675 60.1866 3.3135C60.4098 3.53662 60.6271 3.77288 60.8321 4.01538C61.1663 4.41075 61.1166 5.00238 60.7211 5.3365C60.3256 5.67063 59.7341 5.621 59.4 5.2255C59.2288 5.023 59.0475 4.82575 58.861 4.63938C57.0783 2.85675 54.7083 1.875 52.1875 1.875C49.6666 1.875 47.2966 2.85675 45.5141 4.63925C43.7317 6.42162 42.75 8.79163 42.75 11.3125C42.75 12.394 42.9312 13.4536 43.2887 14.4618C43.346 14.624 43.4073 14.7837 43.4717 14.938C43.8621 15.8751 43.5647 16.951 42.7491 17.5546C42.7057 17.5868 42.6631 17.6201 42.6211 17.655C42.1601 18.0366 41.5087 18.1141 40.9617 17.8522C40.611 17.6844 40.357 17.5499 40.1851 17.4411C37.7028 15.8665 34.98 14.8171 32.0916 14.3215C31.6416 14.2444 31.3127 13.8541 31.3127 13.3975V13.3349C31.3127 12.5041 30.9696 11.6916 30.3712 11.1059C29.791 10.5376 29.0338 10.238 28.2475 10.2506C27.4703 10.2671 26.7397 10.5786 26.1905 11.128C25.6242 11.694 25.3125 12.4476 25.3125 13.25V13.3975C25.3125 13.854 24.9836 14.2443 24.5336 14.3215C21.269 14.8818 18.2375 16.1377 15.5233 18.0546C15.1501 18.3181 14.6412 18.2744 14.3187 17.9509L14.2741 17.9061C13.6875 17.3195 12.8743 16.9891 12.0326 16.9964C11.2206 17.0049 10.4726 17.3234 9.92621 17.8932C9.38859 18.454 9.09246 19.1909 9.09246 19.9678C9.09246 20.7693 9.40471 21.5229 9.97171 22.09L10.0766 22.1949C10.3993 22.5176 10.4427 23.0259 10.1795 23.3986C8.26271 26.1127 7.00671 29.1441 6.44646 32.4089C6.36921 32.8589 5.97909 33.1878 5.52246 33.1878H5.45984C4.62909 33.1878 3.81659 33.5309 3.23084 34.1292C2.66271 34.7095 2.35896 35.4636 2.37571 36.2528C2.39209 37.03 2.70359 37.7605 3.25296 38.3099C3.81896 38.8758 4.57259 39.1875 5.37496 39.1875H5.52246C5.97909 39.1875 6.36921 39.5164 6.44646 39.9664C7.00671 43.231 8.26271 46.2625 10.1795 48.9767C10.4427 49.3495 10.3992 49.8577 10.0766 50.1805L10.0318 50.2253C9.44433 50.8128 9.11246 51.63 9.12121 52.4675C9.12971 53.2795 9.44833 54.0274 10.0181 54.5737C10.5788 55.1114 11.3156 55.4075 12.0926 55.4075C12.8941 55.4075 13.6477 55.0952 14.2148 54.5284L14.3197 54.4234C14.6425 54.1009 15.1507 54.0571 15.5235 54.3206C18.2376 56.2374 21.2691 57.4934 24.5337 58.0536C24.9837 58.1307 25.3126 58.521 25.3126 58.9776V59.0402C25.3126 59.871 25.6558 60.6835 26.2542 61.2694C26.8343 61.8374 27.5911 62.1401 28.3777 62.1245C29.1548 62.108 29.8853 61.7965 30.4347 61.2471C31.0008 60.6811 31.3126 59.9274 31.3126 59.125V58.9775C31.3126 58.521 31.6415 58.1308 32.0915 58.0535C35.3561 57.4933 38.3876 56.2373 41.1017 54.3205C41.4738 54.0575 41.9815 54.1003 42.3045 54.4224L42.3492 54.467C42.9377 55.0556 43.759 55.3908 44.5923 55.3787C45.4043 55.3703 46.1523 55.0518 46.6987 54.4819C47.2363 53.9211 47.5325 53.1842 47.5325 52.4072C47.5325 51.6058 47.2202 50.8523 46.6533 50.2853L46.5487 50.1806C46.2256 49.8579 46.182 49.3495 46.4455 48.9765C48.3623 46.2623 49.6183 43.2308 50.1786 39.9661C50.2557 39.516 50.646 39.1872 51.1026 39.1872H51.1652C51.996 39.1872 52.8085 38.8441 53.3942 38.2458C53.9623 37.6655 54.2661 36.9114 54.2495 36.1222C54.233 35.3451 53.9215 34.6145 53.3721 34.0651C52.806 33.4991 52.0522 33.1874 51.25 33.1874H51.1025C50.646 33.1874 50.2558 32.8585 50.1785 32.4086C49.6441 29.2958 48.4741 26.3895 46.7011 23.7705C46.6452 23.6864 46.6006 23.6 46.56 23.4993C46.3438 22.9631 46.4458 22.3514 46.8255 21.9025C46.9457 21.7603 47.0526 21.607 47.1435 21.4466C47.644 20.5636 48.669 20.1334 49.6367 20.4006C50.468 20.6335 51.3223 20.7501 52.1873 20.7501C54.7082 20.7501 57.0782 19.7684 58.8606 17.986C60.6433 16.2034 61.625 13.8334 61.625 11.3125C61.625 10.4371 61.5053 9.5705 61.2695 8.737C61.1285 8.23888 61.4181 7.72062 61.9163 7.57963C62.4146 7.43837 62.9327 7.72837 63.0737 8.2265C63.3566 9.22625 63.5 10.2645 63.5 11.3125C63.5 14.3342 62.3232 17.175 60.1866 19.3118C58.05 21.4484 55.2092 22.625 52.1875 22.625C51.1513 22.625 50.1267 22.485 49.142 22.209C49.0005 22.1701 48.8508 22.2369 48.7748 22.3708C48.6637 22.567 48.5378 22.7568 48.3993 22.9369C50.1013 25.5077 51.2741 28.3366 51.8881 31.3535C52.9491 31.4913 53.9295 31.9712 54.6978 32.7395C55.591 33.6327 56.0972 34.8201 56.1238 36.0829C56.1512 37.3804 55.6576 38.6144 54.7338 39.5579C53.9688 40.3391 52.9606 40.8481 51.8908 41.0084C51.278 44.0309 50.1065 46.8605 48.4005 49.439C49.0538 50.2868 49.4075 51.32 49.4075 52.4075C49.4075 53.6705 48.9261 54.868 48.0522 55.7798C47.154 56.7165 45.9323 57.2401 44.612 57.2539C44.5948 57.254 44.5776 57.2541 44.5605 57.2541C43.4845 57.2541 42.4312 56.9019 41.575 56.2682C38.9972 57.9757 36.1686 59.1488 33.1465 59.7634C33.0087 60.8244 32.5287 61.8047 31.7603 62.5731C30.8673 63.4661 29.68 63.9724 28.4171 63.999C28.383 63.9996 28.3487 64 28.3146 64Z"/>
</mask>
<path d="M28.3146 64C27.0548 64 25.8608 63.5084 24.9422 62.6091C24.1608 61.844 23.6517 60.8356 23.4916 59.7659C20.4691 59.153 17.6393 57.9815 15.061 56.2756C14.2132 56.9287 13.18 57.2825 12.0923 57.2825C10.8295 57.2825 9.63184 56.8011 8.72021 55.9272C7.78346 55.0291 7.25996 53.8076 7.24609 52.4873C7.23459 51.3934 7.58784 50.3199 8.23159 49.45C6.52421 46.8724 5.35109 44.0434 4.73659 41.0214C3.67546 40.8836 2.69509 40.4036 1.92684 39.6354C1.03384 38.7423 0.527461 37.5549 0.500836 36.292C0.473461 34.9945 0.967086 33.7605 1.89084 32.817C2.65596 32.0358 3.66421 31.5268 4.73384 31.3665C5.34684 28.3439 6.51834 25.5143 8.22409 22.936C7.57096 22.0883 7.21721 21.055 7.21721 19.9674C7.21721 18.7045 7.69846 17.507 8.57246 16.5952C9.47059 15.6585 10.6922 15.135 12.0126 15.1211C13.1057 15.1039 14.18 15.4629 15.0498 16.1066C17.6275 14.3993 20.4563 13.2261 23.4783 12.6116C23.616 11.5505 24.096 10.5703 24.8642 9.80188C25.7572 8.909 26.9445 8.40263 28.2075 8.37588C29.5063 8.3475 30.7392 8.84212 31.6826 9.76587C32.4638 10.5309 32.973 11.5393 33.1331 12.6089C35.9982 13.1906 38.7048 14.2816 41.1882 15.8569C41.228 15.882 41.3411 15.9491 41.5956 16.0754C41.6082 16.066 41.6206 16.0566 41.6332 16.0471C41.7563 15.956 41.7996 15.8001 41.7408 15.6591C41.6635 15.4736 41.5892 15.2809 41.5207 15.0868C41.0925 13.8784 40.875 12.608 40.875 11.3125C40.875 8.29075 42.0516 5.45 44.1882 3.31337C46.325 1.17675 49.1657 0 52.1875 0C55.2092 0 58.05 1.17675 60.1866 3.3135C60.4098 3.53662 60.6271 3.77288 60.8321 4.01538C61.1663 4.41075 61.1166 5.00238 60.7211 5.3365C60.3256 5.67063 59.7341 5.621 59.4 5.2255C59.2288 5.023 59.0475 4.82575 58.861 4.63938C57.0783 2.85675 54.7083 1.875 52.1875 1.875C49.6666 1.875 47.2966 2.85675 45.5141 4.63925C43.7317 6.42162 42.75 8.79163 42.75 11.3125C42.75 12.394 42.9312 13.4536 43.2887 14.4618C43.346 14.624 43.4073 14.7837 43.4717 14.938C43.8621 15.8751 43.5647 16.951 42.7491 17.5546C42.7057 17.5868 42.6631 17.6201 42.6211 17.655C42.1601 18.0366 41.5087 18.1141 40.9617 17.8522C40.611 17.6844 40.357 17.5499 40.1851 17.4411C37.7028 15.8665 34.98 14.8171 32.0916 14.3215C31.6416 14.2444 31.3127 13.8541 31.3127 13.3975V13.3349C31.3127 12.5041 30.9696 11.6916 30.3712 11.1059C29.791 10.5376 29.0338 10.238 28.2475 10.2506C27.4703 10.2671 26.7397 10.5786 26.1905 11.128C25.6242 11.694 25.3125 12.4476 25.3125 13.25V13.3975C25.3125 13.854 24.9836 14.2443 24.5336 14.3215C21.269 14.8818 18.2375 16.1377 15.5233 18.0546C15.1501 18.3181 14.6412 18.2744 14.3187 17.9509L14.2741 17.9061C13.6875 17.3195 12.8743 16.9891 12.0326 16.9964C11.2206 17.0049 10.4726 17.3234 9.92621 17.8932C9.38859 18.454 9.09246 19.1909 9.09246 19.9678C9.09246 20.7693 9.40471 21.5229 9.97171 22.09L10.0766 22.1949C10.3993 22.5176 10.4427 23.0259 10.1795 23.3986C8.26271 26.1127 7.00671 29.1441 6.44646 32.4089C6.36921 32.8589 5.97909 33.1878 5.52246 33.1878H5.45984C4.62909 33.1878 3.81659 33.5309 3.23084 34.1292C2.66271 34.7095 2.35896 35.4636 2.37571 36.2528C2.39209 37.03 2.70359 37.7605 3.25296 38.3099C3.81896 38.8758 4.57259 39.1875 5.37496 39.1875H5.52246C5.97909 39.1875 6.36921 39.5164 6.44646 39.9664C7.00671 43.231 8.26271 46.2625 10.1795 48.9767C10.4427 49.3495 10.3992 49.8577 10.0766 50.1805L10.0318 50.2253C9.44433 50.8128 9.11246 51.63 9.12121 52.4675C9.12971 53.2795 9.44833 54.0274 10.0181 54.5737C10.5788 55.1114 11.3156 55.4075 12.0926 55.4075C12.8941 55.4075 13.6477 55.0952 14.2148 54.5284L14.3197 54.4234C14.6425 54.1009 15.1507 54.0571 15.5235 54.3206C18.2376 56.2374 21.2691 57.4934 24.5337 58.0536C24.9837 58.1307 25.3126 58.521 25.3126 58.9776V59.0402C25.3126 59.871 25.6558 60.6835 26.2542 61.2694C26.8343 61.8374 27.5911 62.1401 28.3777 62.1245C29.1548 62.108 29.8853 61.7965 30.4347 61.2471C31.0008 60.6811 31.3126 59.9274 31.3126 59.125V58.9775C31.3126 58.521 31.6415 58.1308 32.0915 58.0535C35.3561 57.4933 38.3876 56.2373 41.1017 54.3205C41.4738 54.0575 41.9815 54.1003 42.3045 54.4224L42.3492 54.467C42.9377 55.0556 43.759 55.3908 44.5923 55.3787C45.4043 55.3703 46.1523 55.0518 46.6987 54.4819C47.2363 53.9211 47.5325 53.1842 47.5325 52.4072C47.5325 51.6058 47.2202 50.8523 46.6533 50.2853L46.5487 50.1806C46.2256 49.8579 46.182 49.3495 46.4455 48.9765C48.3623 46.2623 49.6183 43.2308 50.1786 39.9661C50.2557 39.516 50.646 39.1872 51.1026 39.1872H51.1652C51.996 39.1872 52.8085 38.8441 53.3942 38.2458C53.9623 37.6655 54.2661 36.9114 54.2495 36.1222C54.233 35.3451 53.9215 34.6145 53.3721 34.0651C52.806 33.4991 52.0522 33.1874 51.25 33.1874H51.1025C50.646 33.1874 50.2558 32.8585 50.1785 32.4086C49.6441 29.2958 48.4741 26.3895 46.7011 23.7705C46.6452 23.6864 46.6006 23.6 46.56 23.4993C46.3438 22.9631 46.4458 22.3514 46.8255 21.9025C46.9457 21.7603 47.0526 21.607 47.1435 21.4466C47.644 20.5636 48.669 20.1334 49.6367 20.4006C50.468 20.6335 51.3223 20.7501 52.1873 20.7501C54.7082 20.7501 57.0782 19.7684 58.8606 17.986C60.6433 16.2034 61.625 13.8334 61.625 11.3125C61.625 10.4371 61.5053 9.5705 61.2695 8.737C61.1285 8.23888 61.4181 7.72062 61.9163 7.57963C62.4146 7.43837 62.9327 7.72837 63.0737 8.2265C63.3566 9.22625 63.5 10.2645 63.5 11.3125C63.5 14.3342 62.3232 17.175 60.1866 19.3118C58.05 21.4484 55.2092 22.625 52.1875 22.625C51.1513 22.625 50.1267 22.485 49.142 22.209C49.0005 22.1701 48.8508 22.2369 48.7748 22.3708C48.6637 22.567 48.5378 22.7568 48.3993 22.9369C50.1013 25.5077 51.2741 28.3366 51.8881 31.3535C52.9491 31.4913 53.9295 31.9712 54.6978 32.7395C55.591 33.6327 56.0972 34.8201 56.1238 36.0829C56.1512 37.3804 55.6576 38.6144 54.7338 39.5579C53.9688 40.3391 52.9606 40.8481 51.8908 41.0084C51.278 44.0309 50.1065 46.8605 48.4005 49.439C49.0538 50.2868 49.4075 51.32 49.4075 52.4075C49.4075 53.6705 48.9261 54.868 48.0522 55.7798C47.154 56.7165 45.9323 57.2401 44.612 57.2539C44.5948 57.254 44.5776 57.2541 44.5605 57.2541C43.4845 57.2541 42.4312 56.9019 41.575 56.2682C38.9972 57.9757 36.1686 59.1488 33.1465 59.7634C33.0087 60.8244 32.5287 61.8047 31.7603 62.5731C30.8673 63.4661 29.68 63.9724 28.4171 63.999C28.383 63.9996 28.3487 64 28.3146 64Z" fill="#14213D"/>
<path d="M28.3146 64C27.0548 64 25.8608 63.5084 24.9422 62.6091C24.1608 61.844 23.6517 60.8356 23.4916 59.7659C20.4691 59.153 17.6393 57.9815 15.061 56.2756C14.2132 56.9287 13.18 57.2825 12.0923 57.2825C10.8295 57.2825 9.63184 56.8011 8.72021 55.9272C7.78346 55.0291 7.25996 53.8076 7.24609 52.4873C7.23459 51.3934 7.58784 50.3199 8.23159 49.45C6.52421 46.8724 5.35109 44.0434 4.73659 41.0214C3.67546 40.8836 2.69509 40.4036 1.92684 39.6354C1.03384 38.7423 0.527461 37.5549 0.500836 36.292C0.473461 34.9945 0.967086 33.7605 1.89084 32.817C2.65596 32.0358 3.66421 31.5268 4.73384 31.3665C5.34684 28.3439 6.51834 25.5143 8.22409 22.936C7.57096 22.0883 7.21721 21.055 7.21721 19.9674C7.21721 18.7045 7.69846 17.507 8.57246 16.5952C9.47059 15.6585 10.6922 15.135 12.0126 15.1211C13.1057 15.1039 14.18 15.4629 15.0498 16.1066C17.6275 14.3993 20.4563 13.2261 23.4783 12.6116C23.616 11.5505 24.096 10.5703 24.8642 9.80188C25.7572 8.909 26.9445 8.40263 28.2075 8.37588C29.5063 8.3475 30.7392 8.84212 31.6826 9.76587C32.4638 10.5309 32.973 11.5393 33.1331 12.6089C35.9982 13.1906 38.7048 14.2816 41.1882 15.8569C41.228 15.882 41.3411 15.9491 41.5956 16.0754C41.6082 16.066 41.6206 16.0566 41.6332 16.0471C41.7563 15.956 41.7996 15.8001 41.7408 15.6591C41.6635 15.4736 41.5892 15.2809 41.5207 15.0868C41.0925 13.8784 40.875 12.608 40.875 11.3125C40.875 8.29075 42.0516 5.45 44.1882 3.31337C46.325 1.17675 49.1657 0 52.1875 0C55.2092 0 58.05 1.17675 60.1866 3.3135C60.4098 3.53662 60.6271 3.77288 60.8321 4.01538C61.1663 4.41075 61.1166 5.00238 60.7211 5.3365C60.3256 5.67063 59.7341 5.621 59.4 5.2255C59.2288 5.023 59.0475 4.82575 58.861 4.63938C57.0783 2.85675 54.7083 1.875 52.1875 1.875C49.6666 1.875 47.2966 2.85675 45.5141 4.63925C43.7317 6.42162 42.75 8.79163 42.75 11.3125C42.75 12.394 42.9312 13.4536 43.2887 14.4618C43.346 14.624 43.4073 14.7837 43.4717 14.938C43.8621 15.8751 43.5647 16.951 42.7491 17.5546C42.7057 17.5868 42.6631 17.6201 42.6211 17.655C42.1601 18.0366 41.5087 18.1141 40.9617 17.8522C40.611 17.6844 40.357 17.5499 40.1851 17.4411C37.7028 15.8665 34.98 14.8171 32.0916 14.3215C31.6416 14.2444 31.3127 13.8541 31.3127 13.3975V13.3349C31.3127 12.5041 30.9696 11.6916 30.3712 11.1059C29.791 10.5376 29.0338 10.238 28.2475 10.2506C27.4703 10.2671 26.7397 10.5786 26.1905 11.128C25.6242 11.694 25.3125 12.4476 25.3125 13.25V13.3975C25.3125 13.854 24.9836 14.2443 24.5336 14.3215C21.269 14.8818 18.2375 16.1377 15.5233 18.0546C15.1501 18.3181 14.6412 18.2744 14.3187 17.9509L14.2741 17.9061C13.6875 17.3195 12.8743 16.9891 12.0326 16.9964C11.2206 17.0049 10.4726 17.3234 9.92621 17.8932C9.38859 18.454 9.09246 19.1909 9.09246 19.9678C9.09246 20.7693 9.40471 21.5229 9.97171 22.09L10.0766 22.1949C10.3993 22.5176 10.4427 23.0259 10.1795 23.3986C8.26271 26.1127 7.00671 29.1441 6.44646 32.4089C6.36921 32.8589 5.97909 33.1878 5.52246 33.1878H5.45984C4.62909 33.1878 3.81659 33.5309 3.23084 34.1292C2.66271 34.7095 2.35896 35.4636 2.37571 36.2528C2.39209 37.03 2.70359 37.7605 3.25296 38.3099C3.81896 38.8758 4.57259 39.1875 5.37496 39.1875H5.52246C5.97909 39.1875 6.36921 39.5164 6.44646 39.9664C7.00671 43.231 8.26271 46.2625 10.1795 48.9767C10.4427 49.3495 10.3992 49.8577 10.0766 50.1805L10.0318 50.2253C9.44433 50.8128 9.11246 51.63 9.12121 52.4675C9.12971 53.2795 9.44833 54.0274 10.0181 54.5737C10.5788 55.1114 11.3156 55.4075 12.0926 55.4075C12.8941 55.4075 13.6477 55.0952 14.2148 54.5284L14.3197 54.4234C14.6425 54.1009 15.1507 54.0571 15.5235 54.3206C18.2376 56.2374 21.2691 57.4934 24.5337 58.0536C24.9837 58.1307 25.3126 58.521 25.3126 58.9776V59.0402C25.3126 59.871 25.6558 60.6835 26.2542 61.2694C26.8343 61.8374 27.5911 62.1401 28.3777 62.1245C29.1548 62.108 29.8853 61.7965 30.4347 61.2471C31.0008 60.6811 31.3126 59.9274 31.3126 59.125V58.9775C31.3126 58.521 31.6415 58.1308 32.0915 58.0535C35.3561 57.4933 38.3876 56.2373 41.1017 54.3205C41.4738 54.0575 41.9815 54.1003 42.3045 54.4224L42.3492 54.467C42.9377 55.0556 43.759 55.3908 44.5923 55.3787C45.4043 55.3703 46.1523 55.0518 46.6987 54.4819C47.2363 53.9211 47.5325 53.1842 47.5325 52.4072C47.5325 51.6058 47.2202 50.8523 46.6533 50.2853L46.5487 50.1806C46.2256 49.8579 46.182 49.3495 46.4455 48.9765C48.3623 46.2623 49.6183 43.2308 50.1786 39.9661C50.2557 39.516 50.646 39.1872 51.1026 39.1872H51.1652C51.996 39.1872 52.8085 38.8441 53.3942 38.2458C53.9623 37.6655 54.2661 36.9114 54.2495 36.1222C54.233 35.3451 53.9215 34.6145 53.3721 34.0651C52.806 33.4991 52.0522 33.1874 51.25 33.1874H51.1025C50.646 33.1874 50.2558 32.8585 50.1785 32.4086C49.6441 29.2958 48.4741 26.3895 46.7011 23.7705C46.6452 23.6864 46.6006 23.6 46.56 23.4993C46.3438 22.9631 46.4458 22.3514 46.8255 21.9025C46.9457 21.7603 47.0526 21.607 47.1435 21.4466C47.644 20.5636 48.669 20.1334 49.6367 20.4006C50.468 20.6335 51.3223 20.7501 52.1873 20.7501C54.7082 20.7501 57.0782 19.7684 58.8606 17.986C60.6433 16.2034 61.625 13.8334 61.625 11.3125C61.625 10.4371 61.5053 9.5705 61.2695 8.737C61.1285 8.23888 61.4181 7.72062 61.9163 7.57963C62.4146 7.43837 62.9327 7.72837 63.0737 8.2265C63.3566 9.22625 63.5 10.2645 63.5 11.3125C63.5 14.3342 62.3232 17.175 60.1866 19.3118C58.05 21.4484 55.2092 22.625 52.1875 22.625C51.1513 22.625 50.1267 22.485 49.142 22.209C49.0005 22.1701 48.8508 22.2369 48.7748 22.3708C48.6637 22.567 48.5378 22.7568 48.3993 22.9369C50.1013 25.5077 51.2741 28.3366 51.8881 31.3535C52.9491 31.4913 53.9295 31.9712 54.6978 32.7395C55.591 33.6327 56.0972 34.8201 56.1238 36.0829C56.1512 37.3804 55.6576 38.6144 54.7338 39.5579C53.9688 40.3391 52.9606 40.8481 51.8908 41.0084C51.278 44.0309 50.1065 46.8605 48.4005 49.439C49.0538 50.2868 49.4075 51.32 49.4075 52.4075C49.4075 53.6705 48.9261 54.868 48.0522 55.7798C47.154 56.7165 45.9323 57.2401 44.612 57.2539C44.5948 57.254 44.5776 57.2541 44.5605 57.2541C43.4845 57.2541 42.4312 56.9019 41.575 56.2682C38.9972 57.9757 36.1686 59.1488 33.1465 59.7634C33.0087 60.8244 32.5287 61.8047 31.7603 62.5731C30.8673 63.4661 29.68 63.9724 28.4171 63.999C28.383 63.9996 28.3487 64 28.3146 64Z" stroke="black" stroke-width="0.6" mask="url(#path-2-outside-1)"/>
<path d="M29.975 40.8125C29.975 44.5138 32.9862 47.525 36.6875 47.525C40.3888 47.525 43.4 44.5138 43.4 40.8125C43.4 37.1112 40.3888 34.1 36.6875 34.1C32.9862 34.1 29.975 37.1112 29.975 40.8125ZM32.15 40.8125C32.15 38.3106 34.1856 36.275 36.6875 36.275C39.1894 36.275 41.225 38.3106 41.225 40.8125C41.225 43.3144 39.1894 45.35 36.6875 45.35C34.1856 45.35 32.15 43.3144 32.15 40.8125Z" fill="#14213D" stroke="#14213D" stroke-width="0.3"/>
<path d="M24.125 31.875C22.0573 31.875 20.375 30.1927 20.375 28.125C20.375 26.0573 22.0573 24.375 24.125 24.375C26.1927 24.375 27.875 26.0573 27.875 28.125C27.875 30.1927 26.1927 31.875 24.125 31.875ZM24.125 26.25C23.0911 26.25 22.25 27.0911 22.25 28.125C22.25 29.1589 23.0911 30 24.125 30C25.1589 30 26 29.1589 26 28.125C26 27.0911 25.1589 26.25 24.125 26.25Z" fill="#14213D"/>
<path d="M24.5 38.875C23.8108 38.875 23.25 38.3142 23.25 37.625C23.25 36.9358 23.8108 36.375 24.5 36.375C25.1892 36.375 25.75 36.9358 25.75 37.625C25.75 38.3142 25.1892 38.875 24.5 38.875Z" fill="#14213D"/>
<path d="M35.75 28.875C35.0608 28.875 34.5 28.3142 34.5 27.625C34.5 26.9358 35.0608 26.375 35.75 26.375C36.4392 26.375 37 26.9358 37 27.625C37 28.3142 36.4392 28.875 35.75 28.875Z" fill="#14213D"/>
<path d="M35.75 41.375C35.0608 41.375 34.5 40.8142 34.5 40.125C34.5 39.4358 35.0608 38.875 35.75 38.875C36.4392 38.875 37 39.4358 37 40.125C37 40.8142 36.4392 41.375 35.75 41.375Z" fill="#14213D"/>
<path d="M15.1875 39C13.6366 39 12.375 37.7382 12.375 36.1875C12.375 34.6367 13.6366 33.375 15.1875 33.375C16.7384 33.375 18 34.6367 18 36.1875C18 37.7382 16.7384 39 15.1875 39ZM15.1875 35.25C14.6705 35.25 14.25 35.6705 14.25 36.1875C14.25 36.7045 14.6705 37.125 15.1875 37.125C15.7045 37.125 16.125 36.7045 16.125 36.1875C16.125 35.6705 15.7045 35.25 15.1875 35.25Z" fill="#14213D"/>
<path d="M18.6 46.8125C18.6 49.1355 20.4897 51.025 22.8125 51.025C25.1355 51.025 27.025 49.1355 27.025 46.8125C27.025 44.4895 25.1353 42.6 22.8125 42.6C20.4897 42.6 18.6 44.4895 18.6 46.8125ZM20.775 46.8125C20.775 45.6892 21.6892 44.775 22.8125 44.775C23.9359 44.775 24.85 45.6892 24.85 46.8125C24.85 47.9358 23.9358 48.85 22.8125 48.85C21.6892 48.85 20.775 47.9358 20.775 46.8125Z" fill="#14213D" stroke="#14213D" stroke-width="0.3"/>
<path d="M50.25 10.6875C48.6992 10.6875 47.4375 9.42575 47.4375 7.875C47.4375 6.32425 48.6992 5.0625 50.25 5.0625C51.8007 5.0625 53.0625 6.32425 53.0625 7.875C53.0625 9.42575 51.8007 10.6875 50.25 10.6875ZM50.25 6.9375C49.733 6.9375 49.3125 7.358 49.3125 7.875C49.3125 8.392 49.733 8.8125 50.25 8.8125C50.767 8.8125 51.1875 8.392 51.1875 7.875C51.1875 7.358 50.767 6.9375 50.25 6.9375Z" fill="#14213D"/>
<path d="M52.75 18.1875C51.1992 18.1875 49.9375 16.9257 49.9375 15.375C49.9375 13.8242 51.1992 12.5625 52.75 12.5625C54.3007 12.5625 55.5625 13.8242 55.5625 15.375C55.5625 16.9257 54.3007 18.1875 52.75 18.1875ZM52.75 14.4375C52.233 14.4375 51.8125 14.858 51.8125 15.375C51.8125 15.892 52.233 16.3125 52.75 16.3125C53.267 16.3125 53.6875 15.892 53.6875 15.375C53.6875 14.858 53.267 14.4375 52.75 14.4375Z" fill="#14213D"/>
</g>
<defs>
<clipPath id="clip0">
<rect width="64" height="64" fill="white"/>
</clipPath>
</defs>
</svg>
