<svg width="64" height="64" fill="none" xmlns="http://www.w3.org/2000/svg"><g clip-path="url(#a)" fill="#14213D"><path d="M25.384 32.366a1.249 1.249 0 0 0-1.768 0 1.249 1.249 0 1 0 1.768 0ZM32 34.5a3.754 3.754 0 0 0-3.75 3.75A3.754 3.754 0 0 0 32 42a3.754 3.754 0 0 0 3.75-3.75A3.754 3.754 0 0 0 32 34.5Zm0 5c-.69 0-1.25-.56-1.25-1.25S31.31 37 32 37s1.25.56 1.25 1.25-.56 1.25-1.25 1.25Z"/><path d="M32 28.25a9.917 9.917 0 0 0-4.015.84 1.25 1.25 0 0 0 1.006 2.288A7.433 7.433 0 0 1 32 30.75c4.136 0 7.5 3.364 7.5 7.5s-3.364 7.5-7.5 7.5-7.5-3.364-7.5-7.5v-.127a1.25 1.25 0 1 0-2.498-.058 7.619 7.619 0 0 0-.002.185c0 5.514 4.486 10 10 10s10-4.486 10-10-4.486-10-10-10ZM32 9.5c-.69 0-1.25.56-1.25 1.25v7.5a1.25 1.25 0 1 0 2.5 0v-7.5c0-.69-.56-1.25-1.25-1.25ZM18.035 18.767l-5.302-5.302a1.25 1.25 0 0 0-1.768 1.768l5.302 5.302a1.25 1.25 0 1 0 1.768-1.768ZM53.035 13.465a1.25 1.25 0 0 0-1.768 0l-5.302 5.302a1.25 1.25 0 0 0 1.768 1.768l5.302-5.302a1.25 1.25 0 0 0 0-1.768Z"/><path d="M63.687 38.464C55.747 29.474 43.956 22 32 22 20.043 22 8.252 29.476.313 38.464a1.25 1.25 0 0 0 1.874 1.655c.266-.302.54-.602.815-.901C9.18 48.551 20.377 54.5 32 54.5c11.623 0 22.82-5.949 28.998-15.282.276.299.549.6.815.9a1.25 1.25 0 0 0 1.874-1.654ZM32 52c-10.99 0-21.559-5.71-27.211-14.623C9.242 33.014 19.533 24.5 32 24.5c12.468 0 22.758 8.514 27.211 12.877C53.56 46.29 42.99 52 32 52Z"/></g><defs><clipPath id="a"><path fill="#fff" d="M0 0h64v64H0z"/></clipPath></defs></svg>