<svg width="64" height="64" fill="none" xmlns="http://www.w3.org/2000/svg"><path d="m51.104 39.21.004.008a1.25 1.25 0 0 0 1.14.755c.172 0 .346-.036.514-.11.64-.285.916-1.014.63-1.66a1.243 1.243 0 0 0-1.652-.65c-.64.281-.92 1.01-.636 1.657Z" fill="#14213D"/><path d="M54.553 42.853a1.249 1.249 0 1 0-2.469.39c.28 1.776.357 3.587.228 5.38a14.124 14.124 0 0 1-5.766 10.411l-.845.617a9.542 9.542 0 0 1-5.664 1.849 9.61 9.61 0 0 1-2.207-.257l-3.312-.782c-6.403-1.512-12.243-5.065-16.444-10.004-1.868-2.195-2.71-3.793-3.357-5.438.052-.166.07-.347.046-.532-.007-.053-.622-5.452 6.991-8.918 5.222-2.377 7.665-6.442 8.515-8.195 5.725.79 7.695 2.402 7.841 2.528.303.32.72.424 1.151.326l.31-.067c4.005-.84 8.137 1.293 9.825 5.07a1.25 1.25 0 1 0 2.283-1.02 11.45 11.45 0 0 0-4.568-5.137l.005-.013a8.346 8.346 0 0 0 .362-3.003h.868a1.25 1.25 0 0 0 0-2.5h-1.413a8.355 8.355 0 0 0-1.325-2.272l.566-.566a1.25 1.25 0 0 0-1.767-1.768l-.655.654a8.302 8.302 0 0 0-3.44-1.307c1.657-1.324 3.833-1.952 6.484-1.861a1.248 1.248 0 0 0 1.292-1.25v-4.761a1.25 1.25 0 0 0-1.147-1.246c-.202-.016-2.543-.195-5.587.172-1.36-2.634-3.276-4.59-5.479-5.676l.885-1.32A1.25 1.25 0 1 0 34.683.964l-1.267 1.891a9.074 9.074 0 0 0-2.605-.1V1.25a1.25 1.25 0 1 0-2.5 0v2.138c-1.173.477-2.284 1.198-3.299 2.153A13.53 13.53 0 0 0 22.971 8a2.843 2.843 0 0 0-2.535-1.562h-3.393a2.844 2.844 0 0 0-2.84 2.841v12.778a13.156 13.156 0 0 0-1.816 1.723C9.647 26.905 9.1 31 9.126 33.886c.028 3.263.817 6.59 2.065 8.724.188.505.357.992.522 1.464.84 2.409 1.634 4.685 4.457 8.003 4.544 5.342 10.856 9.184 17.773 10.817l3.312.782c.91.215 1.846.324 2.782.324 2.584 0 5.052-.806 7.138-2.33l.846-.617a16.619 16.619 0 0 0 6.785-12.25 26.142 26.142 0 0 0-.253-5.95ZM39.299 27.666c-.504-.35-1.363-.85-2.705-1.35.103-1.204.452-3.47 1.626-5.526a5.857 5.857 0 0 1 6.59 7.239 11.224 11.224 0 0 0-5.511-.363Zm6.29-16.034v2.312c-3.097.135-5.652 1.169-7.608 3.082-2.747 2.688-3.576 6.422-3.824 8.543a34.81 34.81 0 0 0-4.296-.768 28.11 28.11 0 0 0-1.135-.997c.002-.03.004-.06.004-.091 0-3.358 1.085-6.06 3.224-8.034 4.069-3.752 10.927-4.074 13.634-4.047Zm-13.82-6.428c.626 0 1.243.092 1.844.267h.002c1.992.583 3.797 2.095 5.122 4.317-2.905.626-6.05 1.817-8.47 4.046-2.305 2.123-3.632 4.88-3.957 8.214-1.023-.634-2.035-1.122-3.033-1.46v-7.229c.021-.05.041-.101.057-.155 1.378-4.785 4.768-8 8.435-8ZM16.702 9.278c0-.188.153-.34.341-.34h3.393c.188 0 .34.152.34.34V20.05a9.456 9.456 0 0 0-1.247-.028 8.83 8.83 0 0 0-2.827.597V9.278Zm-2.435 16.15c1.615-1.844 3.424-2.822 5.374-2.909 2.487-.111 5.348 1.24 8.299 3.914-.763 1.498-2.887 4.887-7.221 6.86-4.784 2.178-6.826 5.132-7.697 7.226l-.043.105c-1.58-3.5-2.43-10.957 1.288-15.196Z" fill="#14213D"/><path d="M24.977 50.27a1.25 1.25 0 0 0-1.596 1.925 28.8 28.8 0 0 0 11.711 5.833 1.25 1.25 0 0 0 .575-2.433 26.295 26.295 0 0 1-10.69-5.324ZM20.108 47.08a1.246 1.246 0 0 0-.129 1.759 1.248 1.248 0 0 0 1.76.16 1.25 1.25 0 0 0 .161-1.76l-.025-.03a1.253 1.253 0 0 0-1.767-.13Z" fill="#14213D"/></svg>