<svg width="64" height="64" fill="none" xmlns="http://www.w3.org/2000/svg"><path d="M35.728 42.56c0-.635.516-1.155 1.15-1.155.636 0 1.15.51 1.15 1.144v.012a1.15 1.15 0 1 1-2.3 0Z" fill="#14213D" stroke="#fff" stroke-width=".2"/><path d="m50.662 10.875.256-.256H48a1.1 1.1 0 0 1-1.1-1.1V4.565a1.1 1.1 0 0 1 1.1-1.1h14.75a1.1 1.1 0 0 1 1.1 1.1v14.747a1.1 1.1 0 0 1-1.1 1.1h-4.956a1.1 1.1 0 0 1-1.1-1.1V16.44l-.256.256-3.411 3.412-.084.083.062.1a18.747 18.747 0 0 1 2.724 9.766c0 10.394-8.456 18.85-18.85 18.85a18.831 18.831 0 0 1-13.521-5.717l-.258-.265v5.66H27a1.1 1.1 0 0 1 1.1 1.1v5.5a1.1 1.1 0 0 1-1.1 1.1h-3.9v3.15a1.1 1.1 0 0 1-1.1 1.1h-6a1.1 1.1 0 0 1-1.1-1.1v-3.15H11a1.1 1.1 0 0 1-1.1-1.1v-5.5a1.1 1.1 0 0 1 1.1-1.1h3.9v-7.748l-.117-.026c-3.929-.9-7.498-3.06-10.136-6.156l-.114.098.114-.098A18.853 18.853 0 0 1 .15 22.434C.15 12.042 8.606 3.585 19 3.585c6.24 0 11.78 3.048 15.212 7.733l.053.072.088-.012a19.066 19.066 0 0 1 2.526-.171c3.678 0 7.2 1.044 10.253 3.03l.102.067.086-.086 3.342-3.342ZM25.9 50.935v-.15H22a1.1 1.1 0 0 1-1.1-1.1V39.93a1.1 1.1 0 0 1 .915-1.084A16.597 16.597 0 0 0 35.65 22.435c0-9.181-7.469-16.65-16.65-16.65-9.181 0-16.65 7.469-16.65 16.65a16.597 16.597 0 0 0 13.835 16.412 1.1 1.1 0 0 1 .915 1.084v9.754a1.1 1.1 0 0 1-1.1 1.1h-3.9v3.3H16a1.1 1.1 0 0 1 1.1 1.1v3.15h3.8v-3.15a1.1 1.1 0 0 1 1.1-1.1h3.9v-3.15Zm35.6-32.723h.15V5.665H49.1v2.754h4.474a1.1 1.1 0 0 1 .778 1.878l-6.213 6.212a1.1 1.1 0 0 1-1.428.11 16.52 16.52 0 0 0-10.907-3.176l-.232.015.108.205c.454.859.844 1.757 1.162 2.688l.035.1.106.001c7.451.056 13.496 6.135 13.496 13.599a13.48 13.48 0 0 1-2.743 8.192 13.707 13.707 0 0 1-6.947 4.837 1.1 1.1 0 0 1-1.37-.738l-.144.043.144-.043a1.1 1.1 0 0 1 .738-1.37l-.043-.143.043.144c4.783-1.434 8.122-5.924 8.122-10.922 0-6.022-4.693-10.967-10.614-11.373l-.194-.013.037.191a18.854 18.854 0 0 1-4.155 15.798 18.912 18.912 0 0 1-4.112 3.604l-.164.106.145.131a11.368 11.368 0 0 0 4.379 2.477 1.1 1.1 0 0 1 .738 1.37l.143.043-.143-.043a1.1 1.1 0 0 1-1.37.738 13.578 13.578 0 0 1-5.824-3.534l-.074-.077-.097.046c-.887.414-1.806.76-2.75 1.033l-.222.064.15.177a16.637 16.637 0 0 0 12.727 5.917c9.181 0 16.65-7.47 16.65-16.65 0-3.372-1.003-6.62-2.901-9.392a1.1 1.1 0 0 1 .13-1.4l6.258-6.258a1.1 1.1 0 0 1 1.878.778v4.428H61.5Z" fill="#14213D" stroke="#fff" stroke-width=".3"/><path d="m9.33 12.8-.012.013a1.15 1.15 0 0 0 .025 1.627L9.33 12.8Zm0 0a1.15 1.15 0 0 1 1.62-.018m-1.62.018 1.62-.018m0 0a1.15 1.15 0 0 1 .025 1.626l-.012.013a1.147 1.147 0 0 1-1.62.019l1.607-1.658Z" fill="#14213D" stroke="#fff" stroke-width=".2"/><path d="m26.635 14.23.163-.105-.144-.131A11.357 11.357 0 0 0 19 11.035a11.3 11.3 0 0 0-4.855 1.082 1.1 1.1 0 0 1-.938-1.99l-.064-.136.064.136A13.482 13.482 0 0 1 19 8.835c7.499 0 13.6 6.101 13.6 13.6s-6.101 13.6-13.6 13.6-13.6-6.101-13.6-13.6c0-1.912.389-3.76 1.156-5.494a1.1 1.1 0 1 1 2.012.89 11.316 11.316 0 0 0-.968 4.604c0 6.021 4.692 10.966 10.612 11.372l.195.014-.037-.192a18.869 18.869 0 0 1 8.265-19.399Zm-6.03 19.35.03.139.14-.022c.938-.148 1.838-.41 2.687-.772l.112-.048-.024-.12a13.692 13.692 0 0 1-.271-2.706c0-4.645 2.409-9.002 6.317-11.487l.103-.065-.043-.115a11.384 11.384 0 0 0-1.306-2.464l-.082-.116-.12.075a16.667 16.667 0 0 0-7.544 17.701Zm4.962-2.107.032.257.207-.155A11.39 11.39 0 0 0 30.31 21.01l-.032-.256-.207.154a11.456 11.456 0 0 0-4.593 9.144c0 .477.03.952.088 1.422Z" fill="#14213D" stroke="#fff" stroke-width=".3"/></svg>