<svg width="64" height="64" fill="none" xmlns="http://www.w3.org/2000/svg"><g clip-path="url(#a)" fill="#14213D"><path d="M59.233 10.497a16.21 16.21 0 0 0-8.604-4.512 16.28 16.28 0 0 0-9.416 1.081 1.25 1.25 0 1 0 .995 2.294 13.733 13.733 0 0 1 15.257 2.905 13.712 13.712 0 0 1 4.042 9.76c0 3.687-1.435 7.153-4.042 9.76l-9.09 9.09-19.52-19.52 5.112-5.112a1.25 1.25 0 0 0-1.768-1.768l-15.97 15.97a16.3 16.3 0 0 0-4.747 10.596 13.97 13.97 0 0 0-10.128-1.16 1.25 1.25 0 0 0-.885.886A13.962 13.962 0 0 0 4.07 54.204a13.96 13.96 0 0 0 13.437 3.602l.01-.004c.033-.009.065-.02.096-.031.032.011.064.022.096.031l.011.004c1.18.315 2.383.469 3.578.469 1.046 0 2.086-.119 3.099-.35a16.47 16.47 0 0 0 3.386.355c4.273 0 8.4-1.678 11.501-4.78l19.948-19.947c6.356-6.357 6.356-16.7 0-23.056ZM13.927 55.775a11.452 11.452 0 0 1-8.088-3.34A11.457 11.457 0 0 1 2.718 42.13a11.458 11.458 0 0 1 10.305 3.122 11.455 11.455 0 0 1 3.32 8.735l-4.652-4.651a1.25 1.25 0 0 0-1.768 1.768l4.651 4.65c-.216.013-.432.02-.647.02Zm6.728-.02 4.65-4.651a1.25 1.25 0 0 0-1.767-1.768l-4.651 4.65c-.183-3.214 1-6.416 3.319-8.734A11.457 11.457 0 0 1 32.51 42.13a11.458 11.458 0 0 1-3.121 10.306 11.453 11.453 0 0 1-8.735 3.319Zm16.862-4.023a13.747 13.747 0 0 1-8.106 3.949 13.79 13.79 0 0 0 1.747-1.477c3.5-3.5 4.88-8.65 3.602-13.437a1.25 1.25 0 0 0-.885-.886 13.962 13.962 0 0 0-13.437 3.602 13.858 13.858 0 0 0-2.824 4.085c-.68-1.5-1.627-2.889-2.823-4.085-.262-.262-.534-.51-.814-.748a13.802 13.802 0 0 1 4.02-10.522l9.09-9.09 19.52 19.52-9.09 9.09Z"/><path d="M37.06 12.632a1.255 1.255 0 0 0 1.25-1.25 1.255 1.255 0 0 0-1.25-1.25 1.26 1.26 0 0 0-.883.366 1.26 1.26 0 0 0-.367.884c0 .328.134.65.367.883.232.233.555.367.884.367Z"/></g><defs><clipPath id="a"><path fill="#fff" d="M0 0h64v64H0z"/></clipPath></defs></svg>