<svg width="64" height="64" fill="none" xmlns="http://www.w3.org/2000/svg"><g clip-path="url(#a)" fill="#14213D" stroke="#fff" stroke-width=".2"><path d="m42.337 25.94-.001-.008-.003-.02-.001-.008v-.009a87.275 87.275 0 0 0-.122-12.806l-.017-.209.173.118a6.981 6.981 0 0 0 1.89.908l.056.017.013.056a85.003 85.003 0 0 1 2.173 16.847 1.91 1.91 0 0 1-.551 1.4c-.367.374-.865.58-1.387.581h-.007m-2.216-6.867 2.216 6.867m-2.216-6.867c.149 1.652.247 3.33.294 4.987a1.935 1.935 0 0 0 1.919 1.88m-2.213-6.867 2.213 6.867m.003 0h-.003m.003 0 .002-.1-.005.1m.08 2.356a.116.116 0 0 1 0 .035.177.177 0 0 0-.011-.048.14.14 0 0 1 .01.013Zm-.148-.031a.138.138 0 0 0-.008.013.072.072 0 0 1 .006-.011l.002-.002Zm3.106-1.294a4.25 4.25 0 0 1-3.044 1.27 4.252 4.252 0 0 1-3.689-2.183l-.063-.115-.094.092a4.198 4.198 0 0 1-2.96 1.218 3.28 3.28 0 0 1-.217-.009l-.222-.01.139.173 2.637 3.304a7.292 7.292 0 0 1 1.459 5.956l-3.8 19.437a1.15 1.15 0 0 1-1.128.929h-7.473A1.15 1.15 0 0 1 28 62.55l2.11-12.01.066-.378-.242.299L19.35 63.475a1.15 1.15 0 0 1-1.64.148l-4.902-4.199a1.15 1.15 0 0 1-.156-1.584l9.759-12.396.033-.042-.017-.051-3.575-10.699-.01-.03-.026-.02-.54-.388h-.001c-2.504-1.839-3.98-4.433-4.28-7.513-.268-2.762.458-5.717 2.048-8.321l-.085-.052.085.052a36.025 36.025 0 0 1 7.622-8.855 1.15 1.15 0 1 1 1.477 1.763l.064.076-.064-.076a33.72 33.72 0 0 0-6.462 7.233l-.057.086.088.055 11.02 6.729.08.049.055-.078a20.587 20.587 0 0 1 4.138-4.4l.037-.03v-.047a78.59 78.59 0 0 0-.051-3.503 1.15 1.15 0 0 1 2.298-.086 81.209 81.209 0 0 1-.483 12.365 1.927 1.927 0 0 0 1.626 2.134 1.922 1.922 0 0 0 1.47-.374c.42-.32.685-.785.746-1.308a84.923 84.923 0 0 0-.12-20.548 2.006 2.006 0 0 0-.588-1.177 6.6 6.6 0 0 0-4.636-1.93 1.15 1.15 0 0 1 .003-2.3h.002a8.93 8.93 0 0 1 5.052 1.598l.12.084.034-.143A6.944 6.944 0 0 1 44.745.503l1.027-.231-.022-.098.022.098a6.889 6.889 0 0 1 5.23.905 6.89 6.89 0 0 1 3.06 4.338 6.889 6.889 0 0 1-.906 5.231 6.89 6.89 0 0 1-4.338 3.06l.022.097-.022-.098-1.026.231a6.971 6.971 0 0 1-.946.144l-.114.01.025.11a87.304 87.304 0 0 1 2.04 16.461 4.188 4.188 0 0 1-1.21 3.077ZM18.232 61.043l.078.066.065-.08 10.46-12.863a4.12 4.12 0 0 0 .795-3.595l-.668-2.64-.01-.036-.029-.022-6.638-4.774-.252-.18.098.293 2.69 8.05a1.15 1.15 0 0 1-.187 1.076l-9.433 11.983-.06.075.074.063 3.017 2.584Zm17.345.557h.083l.015-.08 3.602-18.427a4.996 4.996 0 0 0-1-4.08l-8.872-11.119-.011-.014-.015-.009-11.832-7.225-.095-.057-.048.1c-1.793 3.75-1.841 8.681 2.222 11.665h.001l13.63 9.803c.359.258.538.698.462 1.133l-3.196 18.193-.02.117h5.074ZM31.62 26.87l-.042.061.046.057 1.749 2.192.15.188.027-.24c.18-1.593.31-3.196.392-4.802l.013-.262-.184.186a18.305 18.305 0 0 0-2.151 2.62Zm13.03 5.859v.007a.123.123 0 0 1-.005.01.21.21 0 0 0 .005-.017Zm-.192-.009v-.007l.003.02a.119.119 0 0 1-.003-.013Zm.792-29.973.022.097-.022-.097a4.641 4.641 0 0 0-3.504 5.54 4.641 4.641 0 0 0 5.54 3.505l1.027-.23a4.607 4.607 0 0 0 2.9-2.045 4.607 4.607 0 0 0 .605-3.497l-.098.022.098-.022a4.607 4.607 0 0 0-2.045-2.9l-.053.085.053-.084a4.606 4.606 0 0 0-3.496-.605l-1.027.23ZM13.553 12.951a1.15 1.15 0 0 0 1.454-.727l-1.454.727Zm0 0a1.15 1.15 0 0 1-.728-1.454l-.095-.032.095.032a4.333 4.333 0 0 1 2.727-2.727 2.021 2.021 0 0 0 1.272-1.272m-3.271 5.453 3.271-5.453m0 0a4.332 4.332 0 0 1 2.727-2.727 1.15 1.15 0 1 1 .727 2.182 2.02 2.02 0 0 0-1.272 1.272 4.332 4.332 0 0 1-2.727 2.727 2.02 2.02 0 0 0-1.272 1.272l1.817-4.726Z"/><path d="M12.553 48.265a4.332 4.332 0 0 0-2.727 2.727 1.15 1.15 0 0 0 .727 1.455 1.148 1.148 0 0 0 1.455-.728l.095.032.45-3.486Zm0 0a2.021 2.021 0 0 0 1.272-1.272 4.333 4.333 0 0 1 2.727-2.727m-4 4 3.455-.546a2.02 2.02 0 0 1 1.272-1.272m0 0 .032.095-.032-.095Zm0 0a1.15 1.15 0 0 0-.727-2.182m0 0-.032-.095.032.095ZM30.142 7.154a1.15 1.15 0 1 1-2.3 0 1.15 1.15 0 0 1 2.3 0Z"/></g><defs><clipPath id="a"><path fill="#fff" d="M0 0h64v64H0z"/></clipPath></defs></svg>