<svg width="65" height="64" fill="none" xmlns="http://www.w3.org/2000/svg"><path d="M31.933 60.999a.988.988 0 0 0-.99.946.948.948 0 0 0 .935.987h.106a.948.948 0 0 0 .935-.987.984.984 0 0 0-.986-.946ZM13.42 12.305a.934.934 0 0 0-.002 1.351l.024.024c.368.36.989.324 1.366-.027.377-.35.383-.91.041-1.295l-.022-.025a.95.95 0 0 0-1.358-.075l-.05.047ZM17.92 10.02a.94.94 0 0 0-1.387-.238.937.937 0 0 0-.201 1.338l.023.03a.946.946 0 0 0 1.3.207c.422-.292.562-.873.286-1.305l-.02-.033Z" fill="#14213D"/><path d="M20.332 33.217a5.09 5.09 0 0 0 5.083-5.084 5.089 5.089 0 0 0-5.083-5.084 5.09 5.09 0 0 0-5.084 5.084 5.09 5.09 0 0 0 5.084 5.084Zm0-7.734a2.653 2.653 0 0 1 2.65 2.65c0 1.461-1.19 2.65-2.65 2.65a2.653 2.653 0 0 1-2.65-2.65 2.653 2.653 0 0 1 2.65-2.65ZM37.91 39.344a1.217 1.217 0 0 0-1.72-1.72l-4.257 4.256-4.257-4.257a1.217 1.217 0 1 0-1.72 1.721l5.665 5.666a.441.441 0 0 0 .624 0l5.665-5.666ZM43.533 27.416c1.157 0 2.145.746 2.505 1.784.193.556.678 1.117 1.362 1.117.655 0 1.26-.548 1.116-1.26a5.092 5.092 0 0 0-4.983-4.074 5.092 5.092 0 0 0-4.983 4.073c-.144.713.462 1.26 1.116 1.26.684 0 1.17-.56 1.363-1.116a2.655 2.655 0 0 1 2.504-1.784Z" fill="#14213D" stroke="#14213D" stroke-width=".5"/><path d="m8.867 52.985.185-.169-.185.169a31.105 31.105 0 0 0 18.962 9.93 1.194 1.194 0 0 0 1.338-1.074 1.243 1.243 0 0 0-1.082-1.347C13.822 58.6 3.183 46.514 3.183 32c0-15.852 12.897-28.749 28.75-28.749 15.236 0 27.742 11.915 28.69 26.916l-1.012-.58-2.299-4.004a1.25 1.25 0 0 0-2.167 0l-2.3 4.002-4.004 2.3a1.25 1.25 0 0 0 0 2.168l4.002 2.302 2.302 4.002a1.25 1.25 0 0 0 2.167 0l2.3-4.004.805-.462c-1.738 12.662-11.92 22.91-24.675 24.608a1.244 1.244 0 0 0-1.082 1.346 1.194 1.194 0 0 0 1.337 1.075 31.173 31.173 0 0 0 18.437-9.332 31.16 31.16 0 0 0 8.59-19.194l.591-.34a1.25 1.25 0 0 0 0-2.169l-.505-.29c-.103-8.177-3.334-15.85-9.128-21.644-5.89-5.89-13.72-9.134-22.05-9.134-8.328 0-16.16 3.244-22.049 9.134C3.993 15.84.75 23.67.75 32a31.108 31.108 0 0 0 8.117 20.985Zm49.021-18.448-.058.034-.034.059-1.568 2.73-1.57-2.729-.033-.058-.059-.034-2.728-1.569 2.73-1.569.058-.033.034-.059 1.568-2.728 1.566 2.73.034.058.059.034 2.73 1.567-2.729 1.567Z" fill="#14213D" stroke="#14213D" stroke-width=".5"/></svg>