<svg width="84" height="84" fill="none" xmlns="http://www.w3.org/2000/svg"><path fill-rule="evenodd" clip-rule="evenodd" d="m42 13.09.852.492 34.746 20.06.83.478-.807.49-8.116 4.95 8.291 4.786.84.486-.83.491-17.898 10.602-.04-.022a19.657 19.657 0 0 1-12.217 6.83l-4.887 2.82-.852.492-.851-.491-.892-.515-.894 1.548-.492.852-.851-.492-2.271-1.311-.164.284-1.424 2.466.06-.037c.483-.279 1.265-.279 1.748 0 .483.278.483.73 0 1.009-.483.279-1.265.279-1.748 0-.22-.127-.339-.289-.359-.454l-4.505 7.803-.984 1.704-1.703-.984-1.136-.656-1.703-.983.984-1.703 6.228-10.788.164-.283-2.555-1.476-.852-.491.492-.852.893-1.548L6.03 45.33l-.852-.492.852-.492 8.543-4.932-8.176-4.793-.84-.492.846-.488 34.746-20.059.852-.492Zm-8.21 51.852-.002-.01-1.13-.651-6.228 10.787 1.135.656 6.225-10.782Zm-3.841-7.77.344-.595a19.703 19.703 0 0 1-5.027-10.895l-9.003-5.277-7.68 4.433L29.95 57.172Zm1.794.827-1.344 2.328 7.664 4.425 1.458-2.524a19.705 19.705 0 0 1-4.569-1.922A19.757 19.757 0 0 1 31.742 58Zm9.79 4.677-.513.888.892.515 1.997-1.153a19.566 19.566 0 0 1-2.376-.25Zm33.719-17.832-13.175 7.804a19.566 19.566 0 0 0 2.37-10.004l3.401-2.074 7.404 4.274Zm-.186-10.698-10.778 6.572c-.77-5.854-4.159-11.297-9.668-14.477-9.407-5.431-21.435-2.208-26.866 7.199a19.577 19.577 0 0 0-2.635 10.174L8.95 34.137 42 15.057l33.065 19.09Zm-2.471 17.045c.482.279 1.265.279 1.748 0 .483-.279.483-.73 0-1.01-.483-.278-1.266-.278-1.748 0-.483.28-.483.731 0 1.01Zm5.244 2.019c-.483.278-1.265.278-1.748 0-.483-.279-.483-.73 0-1.01.483-.278 1.266-.278 1.748 0 .483.28.483.731 0 1.01Zm-8.741 0c.483.278 1.266.278 1.748 0 .483-.279.483-.73 0-1.01-.483-.278-1.265-.278-1.748 0-.483.28-.483.731 0 1.01Zm5.245 2.018c-.483.279-1.266.279-1.748 0-.483-.279-.483-.73 0-1.01.482-.278 1.265-.278 1.748 0 .483.28.483.731 0 1.01Zm-8.742 0c.483.279 1.266.279 1.749 0 .483-.279.483-.73 0-1.01-.483-.278-1.266-.278-1.748 0-.483.28-.483.731 0 1.01Zm5.245 2.019c-.483.278-1.265.278-1.748 0-.483-.279-.483-.73 0-1.01.483-.278 1.266-.278 1.748 0 .483.28.483.731 0 1.01Zm-8.741 0c.483.278 1.266.278 1.748 0 .483-.279.483-.73 0-1.01-.483-.278-1.265-.278-1.748 0-.483.28-.483.731 0 1.01Zm5.245 2.018c-.483.279-1.266.279-1.748 0-.483-.278-.483-.73 0-1.009.482-.279 1.265-.279 1.748 0 .483.279.483.73 0 1.01Zm-8.741 0c.482.279 1.265.279 1.748 0 .483-.278.483-.73 0-1.009-.483-.279-1.266-.279-1.748 0-.483.279-.483.73 0 1.01Zm5.244 2.019c-.483.279-1.265.279-1.748 0-.483-.279-.483-.73 0-1.01.483-.278 1.266-.278 1.748 0 .483.28.483.731 0 1.01Zm-8.741 0c.483.279 1.265.279 1.748 0 .483-.279.483-.73 0-1.01-.483-.278-1.265-.278-1.748 0-.483.28-.483.731 0 1.01Zm5.245 2.018c-.483.279-1.266.279-1.748 0-.483-.278-.483-.73 0-1.009.482-.279 1.265-.279 1.748 0 .483.279.483.73 0 1.01Zm-8.742 0c.483.279 1.266.279 1.749 0 .483-.278.483-.73 0-1.009-.483-.279-1.266-.279-1.748 0-.483.279-.483.73 0 1.01Zm5.245 2.019c-.483.279-1.265.279-1.748 0-.483-.279-.483-.73 0-1.01.483-.278 1.265-.278 1.748 0 .483.28.483.731 0 1.01Zm-8.741 0c.483.279 1.266.279 1.748 0 .483-.279.483-.73 0-1.01-.482-.278-1.265-.278-1.748 0-.483.28-.483.731 0 1.01Zm5.245 2.018c-.483.28-1.266.28-1.748 0-.483-.278-.483-.73 0-1.009.482-.279 1.265-.279 1.748 0 .483.279.483.73 0 1.01Zm-8.741 0c.482.28 1.265.28 1.748 0 .482-.278.482-.73 0-1.009-.483-.279-1.266-.279-1.748 0-.483.279-.483.73 0 1.01Zm5.244 2.019c-.482.279-1.265.279-1.748 0-.483-.279-.483-.73 0-1.01.483-.278 1.266-.278 1.748 0 .483.28.483.731 0 1.01ZM9.657 51.19c.483.279 1.266.279 1.749 0 .482-.279.482-.73 0-1.01-.483-.278-1.266-.278-1.749 0-.482.28-.482.731 0 1.01Zm5.245 2.019c-.482.278-1.265.278-1.748 0-.483-.279-.483-.73 0-1.01.483-.278 1.265-.278 1.748 0 .483.28.483.731 0 1.01Zm1.749 2.018c.482.279 1.265.279 1.748 0 .482-.279.482-.73 0-1.01-.483-.278-1.266-.278-1.748 0-.483.28-.483.731 0 1.01Zm5.244 2.019c-.482.278-1.265.278-1.748 0-.483-.279-.483-.73 0-1.01.483-.278 1.266-.278 1.748 0 .483.28.483.731 0 1.01Zm1.748 2.018c.483.279 1.266.279 1.749 0 .483-.278.483-.73 0-1.009-.483-.279-1.266-.279-1.748 0-.483.279-.483.73 0 1.01Zm17.483 10.093c.483.279 1.266.279 1.748 0 .483-.279.483-.73 0-1.01-.483-.278-1.265-.278-1.748 0-.483.28-.483.731 0 1.01Zm5.245 2.018c-.483.28-1.266.28-1.748 0-.483-.278-.483-.73 0-1.009.482-.279 1.265-.279 1.748 0 .482.279.482.73 0 1.01ZM6.16 53.21c.483.278 1.265.278 1.748 0 .483-.279.483-.73 0-1.01-.483-.278-1.265-.278-1.748 0-.483.28-.483.731 0 1.01Zm5.245 2.018c-.483.279-1.266.279-1.749 0-.482-.279-.482-.73 0-1.01.483-.278 1.266-.278 1.749 0 .482.28.482.731 0 1.01Zm1.748 2.019c.483.278 1.265.278 1.748 0 .483-.279.483-.73 0-1.01-.482-.278-1.265-.278-1.748 0-.483.28-.483.731 0 1.01Zm5.245 2.018c-.483.279-1.266.279-1.748 0-.483-.278-.483-.73 0-1.009.482-.279 1.265-.279 1.748 0 .482.279.482.73 0 1.01Zm1.748 2.019c.483.279 1.266.279 1.748 0 .483-.279.483-.73 0-1.01-.482-.278-1.265-.278-1.748 0-.483.28-.483.731 0 1.01Zm5.245 2.018c-.483.279-1.266.279-1.748 0-.483-.278-.483-.73 0-1.009.482-.279 1.265-.279 1.748 0 .483.279.483.73 0 1.01Zm1.748 2.019c.483.279 1.265.279 1.748 0 .483-.279.483-.73 0-1.01-.483-.278-1.265-.278-1.748 0-.483.28-.483.731 0 1.01Zm10.49 6.055c.482.28 1.265.28 1.748 0 .483-.278.483-.73 0-1.009-.483-.279-1.266-.279-1.748 0-.483.279-.483.73 0 1.01Zm5.244 2.019c-.483.279-1.265.279-1.748 0-.483-.279-.483-.73 0-1.01.483-.278 1.266-.278 1.748 0 .483.28.483.731 0 1.01ZM56.142 49.83c-3.621 6.27-11.64 8.42-17.912 4.799-6.27-3.621-8.42-11.64-4.799-17.911 3.621-6.272 11.64-8.42 17.911-4.8A13.106 13.106 0 0 1 57.9 43.186l-2.13-1.917-.694-.624-.66.66-2.334 2.334h-1.506l-2.398-7.195-.952-2.856-.918 2.867-2.096 6.553-1.477-1.661-.965-1.086-.65 1.3-2.35 4.7h-2.015v1.967H39.986l.271-.544 1.973-3.945 1.658 1.864 1.145 1.29.526-1.643 1.705-5.328 1.67 5.011.224.673h3.739l.288-.288 1.963-1.963 2.539 2.285a13.09 13.09 0 0 1-1.545 4.19Zm1.703.983c-4.164 7.212-13.386 9.683-20.598 5.52-7.212-4.165-9.683-13.387-5.52-20.599 4.165-7.212 13.387-9.683 20.599-5.519s9.683 13.386 5.519 20.598Zm-21.91 7.79c8.467 4.888 19.293 1.987 24.181-6.479 4.888-8.466 1.987-19.292-6.479-24.18-8.466-4.888-19.292-1.987-24.18 6.479-4.888 8.466-1.987 19.292 6.479 24.18Z" fill="#1D3557"/></svg>