<svg width="84" height="84" fill="none" xmlns="http://www.w3.org/2000/svg"><path fill-rule="evenodd" clip-rule="evenodd" d="M15.12 15.12h24.585v24.585H15.121V15.121Zm51.137 0H41.672v23.193a18.274 18.274 0 0 1 10.818-3.525 18.312 18.312 0 0 1 13.767 6.215V15.121Zm1.967 28.565V13.154h-55.07v55.07h28.864a18.272 18.272 0 0 0 10.471 3.278c10.139 0 18.357-8.219 18.357-18.357 0-3.46-.958-6.698-2.622-9.46ZM39.642 66.257a18.301 18.301 0 0 1-5.51-13.112c0-4.341 1.508-8.33 4.027-11.473H15.121v24.585h24.521ZM68.88 53.145c0 9.052-7.338 16.39-16.39 16.39-9.051 0-16.39-7.338-16.39-16.39s7.339-16.39 16.39-16.39c9.052 0 16.39 7.338 16.39 16.39ZM26.593 28.56v4.262h1.967V28.56h4.262v-1.966H28.56v-4.262h-1.966v4.261h-4.262v1.967h4.261Zm31.797-1.966H47.9v1.966h10.49v-1.966Zm0 22.945H47.9v1.967h10.49V49.54Zm0 5.9H47.9v1.967h10.49V55.44Zm-35.217.72 3.013-3.014-3.013-3.013 1.39-1.39 3.014 3.012 3.013-3.013 1.39 1.39-3.012 3.014 3.013 3.013-1.39 1.391-3.014-3.013-3.013 3.013-1.391-1.39Z" fill="#1D3557"/></svg>