<svg width="84" height="85" fill="none" xmlns="http://www.w3.org/2000/svg"><path fill-rule="evenodd" clip-rule="evenodd" d="M18.015 25.014c-2.534 5.464-1.596 12.036.091 16.712-2.77 4.952-4.67 9.98-5.894 14.069l1.884.564c1.136-3.796 2.855-8.37 5.3-12.897 1.623 1.644 3.648 3.302 5.927 4.606a19.587 19.587 0 0 0 5.672 12.034C37.222 66.33 46.586 67.508 54 63.638l2.954 2.954.695.695.696-.695 2.086-2.086.232.232 8.808 8.808 1.39 1.39 1.391-1.39.927-.927 1.39-1.391-1.39-1.39-8.808-8.809-.231-.232 1.854-1.854.695-.695-.695-.696L62.8 54.36c3.307-7.253 1.977-16.103-3.992-22.071a19.675 19.675 0 0 0-4.48-3.36c.084-.094.169-.187.255-.279 1.773-1.89 4.157-3.349 7.376-3.41.561-.01 1.073-.354 1.24-.89a1.2 1.2 0 0 0-.538-1.397c-9.024-5.225-17.933-7.32-21.923-7.52-13.206-.668-19.946 3.591-22.724 9.582Zm12.98 7.274a19.6 19.6 0 0 0-5.755 13.427 26.74 26.74 0 0 1-4.837-4.042c2.168-3.696 4.838-7.288 8.09-10.322 3.857-3.597 8.52-6.399 14.135-7.674 4.495-1.02 9.639-1.072 15.517.27-2.028.722-3.678 1.951-4.996 3.357-.227.243-.445.49-.654.742-7.142-2.985-15.688-1.571-21.5 4.242Zm-11.196-6.446c-1.97 4.25-1.58 9.428-.361 13.624 2.114-3.41 4.664-6.709 7.714-9.553 4.066-3.793 9.032-6.79 15.04-8.154 3.899-.885 8.21-1.077 12.968-.374-6.283-2.703-11.792-3.852-14.52-3.99-12.756-.644-18.527 3.456-20.841 8.447Zm37.62 7.836c6.912 6.913 6.912 18.12 0 25.033-6.913 6.913-18.12 6.913-25.033 0-6.913-6.912-6.913-18.12 0-25.033 6.912-6.912 18.12-6.912 25.033 0Zm1.39 26.424c1.2-1.2 2.214-2.518 3.04-3.915l2.06 2.06-6.259 6.26-1.9-1.902a19.756 19.756 0 0 0 3.06-2.503Zm-4.635-23.179c5.12 5.12 5.12 13.423 0 18.543-5.12 5.12-13.423 5.12-18.543 0a13.051 13.051 0 0 1-3.567-6.6H37.363l.272-.544 1.967-3.935 1.33 1.52.965 1.103.655-1.31 1.614-3.228 2.158 5.755.536 1.43 1.08-1.08 1.927-1.927 1.927 1.927 1.391-1.39-2.622-2.623-.696-.695-.695.695-1.542 1.543-2.414-6.437-.792-2.112-1.009 2.017-1.967 3.935-1.33-1.52-.965-1.103-.655 1.31-2.35 4.702h-4.339a13.08 13.08 0 0 1 3.822-9.976c5.12-5.12 13.422-5.12 18.543 0Zm1.39-1.39c5.889 5.888 5.889 15.435 0 21.324-5.888 5.889-15.435 5.889-21.324 0-5.889-5.889-5.889-15.436 0-21.324 5.889-5.889 15.436-5.889 21.324 0Zm6.49 27.814.928-.927 8.808 8.808-.928.927-8.808-8.808Z" fill="#1D3557"/></svg>