<svg width="84" height="84" fill="none" xmlns="http://www.w3.org/2000/svg"><path fill-rule="evenodd" clip-rule="evenodd" d="M17.743 15.12h38.025V54.13H46.26v9.506H17.743V15.12Zm30.485 46.717 5.741-5.742h-5.74v5.742Zm-.983 3.764 10.49-10.49V22.989h8.522v48.514H28.232v-5.9h19.013Zm10.49-50.48v5.9h10.489v52.448H26.266V65.6h-10.49V13.154h41.958v1.967Zm-34.092 9.506h26.224V22.66H23.643v1.967Zm26.224 5.245H23.643v-1.967h26.224v1.966Zm-26.224 5.244h26.224V33.15H23.643v1.967Zm13.112 5.245H23.643v-1.967h13.112v1.967Zm-2.622 10.49h10.49v-1.967h-10.49v1.966Zm10.49-10.49h-5.245v-1.967h5.244v1.967Zm-15.08 9.506a1.967 1.967 0 1 1-3.933 0 1.967 1.967 0 0 1 3.934 0Zm1.968 0a3.934 3.934 0 1 1-7.868 0 3.934 3.934 0 0 1 7.867 0Z" fill="#1D3557"/></svg>