<svg width="84" height="84" fill="none" xmlns="http://www.w3.org/2000/svg"><path fill-rule="evenodd" clip-rule="evenodd" d="M36.477 25.17c-4.926-4.922-14.565-5.493-21.387-5.493a1.28 1.28 0 0 0-1.28 1.28c0 6.823.568 16.461 5.493 21.387 2.08 2.079 5.267 3.008 8.426 3.008 2.556 0 5.095-.609 7.015-1.71 2.602 5.449 4.667 13.595 4.667 25.957a1.28 1.28 0 0 0 2.56.003c0-6.943 1.18-15.285 5.604-22.145 1.922 1.878 5.292 2.957 8.694 2.957 3.159 0 6.344-.927 8.428-3.006 4.923-4.925 5.494-14.564 5.494-21.387a1.28 1.28 0 0 0-1.28-1.28c-6.823 0-16.462.568-21.387 5.494-3.631 3.629-3.755 10.63-1.553 14.971-2.362 3.405-3.932 7.173-4.942 10.988-.934-6.057-2.476-10.665-4.232-14.196 3.384-3.868 3.892-12.617-.32-16.827ZM35.442 39.54c2.02-3.269 2.098-9.682-.775-12.556-3.976-3.975-12.053-4.664-18.29-4.738.075 6.236.763 14.313 4.74 18.29 2.838 2.838 9.128 2.795 12.433.847-2.858-4.898-6.056-7.086-7.844-8.308-.591-.404-1.029-.72-1.282-.97a1.281 1.281 0 0 1 1.81-1.81c.147.145.393.312.707.525l.21.143.001.001c1.894 1.296 5.25 3.593 8.29 8.576Zm13.647 5.795c2.435-3.09 5.65-5.78 9.863-7.76 0-.002.207-.1.207-.1.638-.301.81-1.013.507-1.653-.302-.643-1.167-.863-1.805-.566-4.231 1.99-7.535 4.617-10.1 7.625-1.178-3.45-.858-8.407 1.57-10.835 3.976-3.976 12.053-4.665 18.29-4.739-.075 6.239-.763 14.316-4.74 18.29-3.205 3.205-10.813 2.736-13.55 0a4.654 4.654 0 0 1-.242-.262Z" fill="#1D3557"/></svg>