<svg width="84" height="84" fill="none" xmlns="http://www.w3.org/2000/svg"><g filter="url(#a)"><path fill-rule="evenodd" clip-rule="evenodd" d="m42 15.12 33.307 19.228L42 53.576 8.694 34.348 42 15.121Zm0-1.966 1.703.983L77.01 33.365l1.703.983-1.703.984-7.414 4.28 8.2 4.734.852.492-.852.492-35.032 20.224-.852.491-.851-.491L6.029 45.33l-.852-.492.852-.492 8.288-4.785-7.327-4.23-1.703-.983 1.703-.983 33.307-19.228L42 13.154Zm-25.98 27.39-7.436 4.294 33.328 19.24 33.33-19.24-7.35-4.243L43.704 54.56 42 55.543l-1.703-.983L16.02 40.545Zm58.323 10.647c-.483.279-1.266.279-1.748 0-.483-.279-.483-.73 0-1.01.482-.278 1.265-.278 1.748 0 .483.28.483.731 0 1.01Zm1.748 2.019c.483.278 1.266.278 1.748 0 .483-.279.483-.73 0-1.01-.482-.278-1.265-.278-1.748 0-.483.28-.483.731 0 1.01Zm-5.245 0c-.482.278-1.265.278-1.748 0-.483-.279-.483-.73 0-1.01.483-.278 1.266-.278 1.748 0 .483.28.483.731 0 1.01Zm1.749 2.018c.482.279 1.265.279 1.748 0 .483-.279.483-.73 0-1.01-.483-.278-1.266-.278-1.748 0-.483.28-.483.731 0 1.01Zm-5.245 0c-.483.279-1.266.279-1.748 0-.483-.279-.483-.73 0-1.01.482-.278 1.265-.278 1.748 0 .483.28.483.731 0 1.01Zm1.748 2.019c.483.278 1.266.278 1.748 0 .483-.279.483-.73 0-1.01-.482-.278-1.265-.278-1.748 0-.483.28-.483.731 0 1.01Zm-5.245 0c-.482.278-1.265.278-1.748 0-.483-.279-.483-.73 0-1.01.483-.278 1.266-.278 1.748 0 .483.28.483.731 0 1.01Zm1.749 2.018c.482.279 1.265.279 1.748 0 .483-.278.483-.73 0-1.009-.483-.279-1.266-.279-1.748 0-.483.279-.483.73 0 1.01Zm-5.245 0c-.483.279-1.266.279-1.748 0-.483-.278-.483-.73 0-1.009.482-.279 1.265-.279 1.748 0 .483.279.483.73 0 1.01Zm1.748 2.019c.483.279 1.266.279 1.748 0 .483-.279.483-.73 0-1.01-.482-.278-1.265-.278-1.748 0-.483.28-.483.731 0 1.01Zm-5.245 0c-.482.279-1.265.279-1.748 0-.483-.279-.483-.73 0-1.01.483-.278 1.266-.278 1.748 0 .483.28.483.731 0 1.01Zm1.749 2.018c.482.279 1.265.279 1.748 0 .483-.278.483-.73 0-1.009-.483-.279-1.266-.279-1.748 0-.483.279-.483.73 0 1.01Zm-5.245 0c-.483.279-1.266.279-1.748 0-.483-.278-.483-.73 0-1.009.482-.279 1.265-.279 1.748 0 .483.279.483.73 0 1.01Zm1.748 2.019c.483.279 1.266.279 1.748 0 .483-.279.483-.73 0-1.01-.482-.278-1.265-.278-1.748 0-.483.28-.483.731 0 1.01Zm-5.245 0c-.482.279-1.265.279-1.748 0-.483-.279-.483-.73 0-1.01.483-.278 1.266-.278 1.748 0 .483.28.483.731 0 1.01Zm1.749 2.018c.482.28 1.265.28 1.748 0 .483-.278.483-.73 0-1.009-.483-.279-1.266-.279-1.748 0-.483.279-.483.73 0 1.01Zm-5.245 0c-.483.28-1.266.28-1.748 0-.483-.278-.483-.73 0-1.009.482-.279 1.265-.279 1.748 0 .483.279.483.73 0 1.01Zm1.748 2.019c.483.279 1.266.279 1.748 0 .483-.279.483-.73 0-1.01-.482-.278-1.265-.278-1.748 0-.483.28-.483.731 0 1.01ZM11.406 51.19c-.483.279-1.266.279-1.748 0-.483-.279-.483-.73 0-1.01.482-.278 1.265-.278 1.748 0 .483.28.483.731 0 1.01Zm1.748 2.019c.483.278 1.265.278 1.748 0 .483-.279.483-.73 0-1.01-.482-.278-1.265-.278-1.748 0-.483.28-.483.731 0 1.01Zm5.245 2.018c-.483.279-1.266.279-1.748 0-.483-.279-.483-.73 0-1.01.482-.278 1.265-.278 1.748 0 .483.28.483.731 0 1.01Zm1.748 2.019c.483.278 1.266.278 1.748 0 .483-.279.483-.73 0-1.01-.482-.278-1.265-.278-1.748 0-.483.28-.483.731 0 1.01Zm5.245 2.018c-.483.279-1.266.279-1.748 0-.483-.278-.483-.73 0-1.009.482-.279 1.265-.279 1.748 0 .483.279.483.73 0 1.01Zm1.748 2.019c.483.279 1.266.279 1.748 0 .483-.279.483-.73 0-1.01-.482-.278-1.265-.278-1.748 0-.483.28-.483.731 0 1.01Zm5.245 2.018c-.483.279-1.266.279-1.748 0-.483-.278-.483-.73 0-1.009.482-.279 1.265-.279 1.748 0 .483.279.483.73 0 1.01Zm1.748 2.019c.483.279 1.266.279 1.748 0 .483-.279.483-.73 0-1.01-.482-.278-1.265-.278-1.748 0-.483.28-.483.731 0 1.01Zm5.245 2.018c-.483.28-1.266.28-1.748 0-.483-.278-.483-.73 0-1.009.482-.279 1.265-.279 1.748 0 .483.279.483.73 0 1.01Zm1.748 2.019c.483.279 1.266.279 1.748 0 .483-.279.483-.73 0-1.01-.482-.278-1.265-.278-1.748 0-.483.28-.483.731 0 1.01Zm5.245 2.018c-.483.28-1.266.28-1.748 0-.483-.278-.483-.73 0-1.009.482-.279 1.265-.279 1.748 0 .483.279.483.73 0 1.01ZM6.16 53.21c.483.278 1.266.278 1.748 0 .483-.279.483-.73 0-1.01-.482-.278-1.265-.278-1.748 0-.483.28-.483.731 0 1.01Zm5.245 2.018c-.483.279-1.266.279-1.748 0-.483-.279-.483-.73 0-1.01.482-.278 1.265-.278 1.748 0 .483.28.483.731 0 1.01Zm1.748 2.019c.483.278 1.265.278 1.748 0 .483-.279.483-.73 0-1.01-.482-.278-1.265-.278-1.748 0-.483.28-.483.731 0 1.01Zm5.245 2.018c-.483.279-1.266.279-1.748 0-.483-.278-.483-.73 0-1.009.482-.279 1.265-.279 1.748 0 .483.279.483.73 0 1.01Zm1.748 2.019c.483.279 1.266.279 1.748 0 .483-.279.483-.73 0-1.01-.482-.278-1.265-.278-1.748 0-.483.28-.483.731 0 1.01Zm5.245 2.018c-.483.279-1.266.279-1.748 0-.483-.278-.483-.73 0-1.009.482-.279 1.265-.279 1.748 0 .483.279.483.73 0 1.01Zm1.748 2.019c.483.279 1.266.279 1.748 0 .483-.279.483-.73 0-1.01-.482-.278-1.265-.278-1.748 0-.483.28-.483.731 0 1.01Zm5.245 2.018c-.483.28-1.266.28-1.748 0-.483-.278-.483-.73 0-1.009.482-.279 1.265-.279 1.748 0 .483.279.483.73 0 1.01Zm1.748 2.019c.483.279 1.266.279 1.748 0 .483-.279.483-.73 0-1.01-.482-.278-1.265-.278-1.748 0-.483.28-.483.731 0 1.01Zm5.245 2.018c-.483.28-1.266.28-1.748 0-.483-.278-.483-.73 0-1.009.482-.279 1.265-.279 1.748 0 .483.279.483.73 0 1.01Zm1.748 2.019c.483.279 1.266.279 1.748 0 .483-.279.483-.73 0-1.01-.482-.278-1.265-.278-1.748 0-.483.28-.483.731 0 1.01Z" fill="#1D3557"/></g><defs><filter id="a" x="-3.958" y=".042" width="91.916" height="91.916" filterUnits="userSpaceOnUse" color-interpolation-filters="sRGB"><feFlood flood-opacity="0" result="BackgroundImageFix"/><feColorMatrix in="SourceAlpha" values="0 0 0 0 0 0 0 0 0 0 0 0 0 0 0 0 0 0 127 0" result="hardAlpha"/><feOffset dy="4"/><feGaussianBlur stdDeviation="2"/><feColorMatrix values="0 0 0 0 0 0 0 0 0 0 0 0 0 0 0 0 0 0 0.25 0"/><feBlend in2="BackgroundImageFix" result="effect1_dropShadow"/><feBlend in="SourceGraphic" in2="effect1_dropShadow" result="shape"/></filter></defs></svg>