<svg width="84" height="84" fill="none" xmlns="http://www.w3.org/2000/svg"><path fill-rule="evenodd" clip-rule="evenodd" d="m62.115 10.933 4.01 2.917a17.884 17.884 0 0 1 7.344 14.421v7.436a3.147 3.147 0 0 1-3.147 3.147h-6.294v3.34a3.147 3.147 0 0 1 2.098 2.953v14.686a5.245 5.245 0 0 1-10.49 0V45.148a3.147 3.147 0 0 1 2.098-2.954v-3.34h-6.293a3.147 3.147 0 0 1-3.147-3.147v-7.436a17.884 17.884 0 0 1 7.343-14.42l4.01-2.918a2.098 2.098 0 0 1 2.468 0ZM59.832 32.56V42h2.098v-9.44a1.05 1.05 0 0 0-2.098 0Zm1.05 30.42a3.147 3.147 0 0 0 3.146-3.147V45.148c0-.58-.47-1.05-1.049-1.05h-4.196c-.579 0-1.049.47-1.049 1.05v14.685a3.147 3.147 0 0 0 3.147 3.146Zm9.44-26.224c.579 0 1.049-.47 1.049-1.049v-7.436a15.785 15.785 0 0 0-6.48-12.724l-4.01-2.917-4.009 2.917a15.783 15.783 0 0 0-6.48 12.724v7.436c0 .58.47 1.049 1.049 1.049h6.293V32.56a3.147 3.147 0 1 1 6.294 0v4.196h6.294ZM61.93 59.833a1.049 1.049 0 1 1-2.098 0 1.049 1.049 0 0 1 2.098 0Zm-1.049-44.056c-.58 0-1.049.47-1.049 1.05v9.44a1.049 1.049 0 1 0 2.098 0v-9.44c0-.58-.47-1.05-1.049-1.05ZM46.196 73.47H12.63a2.098 2.098 0 0 1-2.098-2.098v-1.848a5.477 5.477 0 0 1 3.191-5.05 4.96 4.96 0 0 1 3.026-.347 5.312 5.312 0 0 1 4.273-2.196c1.068 0 2.11.33 2.985.944a6.334 6.334 0 0 1 4.357-2.944v-3.152a5.258 5.258 0 0 0-2.2-4.26l-1.134-.812-.076.07c-.097.09-.194.179-.297.262a7.096 7.096 0 0 1-4.419 1.5 7.63 7.63 0 0 1-5.394-2.231c-4.131-4.166-4.57-8.065-4.207-10.606a2.127 2.127 0 0 1 1.298-1.681 2.098 2.098 0 0 1 2.086.27c.986.746 2.806 1.493 5.867.799a5.585 5.585 0 0 1 5.313 1.538 6.844 6.844 0 0 1 1.154 8.442l1.032.734c.35.256.678.542.977.856v-.126a7.353 7.353 0 0 1 2.25-5.276 6.865 6.865 0 0 1 .908-8.83 5.585 5.585 0 0 1 5.314-1.544c3.061.695 4.88-.052 5.866-.799a2.098 2.098 0 0 1 2.087-.27 2.131 2.131 0 0 1 1.306 1.686c.36 2.54-.08 6.442-4.21 10.604a7.632 7.632 0 0 1-5.396 2.229 7.1 7.1 0 0 1-4.427-1.508l-.026-.023a5.251 5.251 0 0 0-1.574 3.731v8.397c1.814.301 3.4 1.39 4.333 2.974a5.124 5.124 0 0 1 3.01-.974 5.245 5.245 0 0 1 4.249 2.195 5.018 5.018 0 0 1 3.048.348 5.476 5.476 0 0 1 3.192 5.05v1.848c0 1.158-.94 2.098-2.098 2.098Zm-9.824-35.536a3.48 3.48 0 0 0-3.392 1 4.825 4.825 0 0 0-1.464 3.687c.048.831.314 1.636.771 2.332l3.858-2.755a1.049 1.049 0 1 1 1.22 1.705l-3.577 2.554a5.385 5.385 0 0 0 6.609-.828c3.52-3.55 3.912-6.761 3.62-8.832-1.39.98-3.797 2.005-7.645 1.137Zm-23.614 3.024c-.337 2.107.05 5.32 3.574 8.87a5.366 5.366 0 0 0 6.946.614l-1.811-1.294a1.049 1.049 0 1 1 1.218-1.706l1.965 1.403a4.752 4.752 0 0 0 .568-2.027 4.825 4.825 0 0 0-1.473-3.689 3.483 3.483 0 0 0-3.39-.997c-3.849.868-6.255-.157-7.597-1.174Zm1.813 25.436a3.378 3.378 0 0 0-1.94 3.13v1.848h33.565v-1.848a3.379 3.379 0 0 0-1.94-3.128 2.855 2.855 0 0 0-1.77-.21 2.124 2.124 0 0 1-2.137-.84 3.107 3.107 0 0 0-4.324-.754 2.162 2.162 0 0 1-1.691.349 2.04 2.04 0 0 1-1.34-.965 4.154 4.154 0 0 0-7.16 0c-.29.496-.777.846-1.34.964a2.165 2.165 0 0 1-1.69-.35 3.107 3.107 0 0 0-4.324.755 2.127 2.127 0 0 1-2.139.839 2.883 2.883 0 0 0-.564-.057 2.944 2.944 0 0 0-1.206.267Z" fill="#1D3557"/></svg>