<svg width="84" height="84" fill="none" xmlns="http://www.w3.org/2000/svg"><path fill-rule="evenodd" clip-rule="evenodd" d="M37.771 15.82h2.352c5.629 0 10.191 4.563 10.191 10.192v1.317l-.727-.783a7.389 7.389 0 0 0-6.776-2.235 8.99 8.99 0 0 1-4.995-.489l-2.61-1.044a5.096 5.096 0 0 0-5.61 1.246l-2.016 2.15v-.162c0-5.629 4.563-10.192 10.191-10.192Zm10.093 12.326 2.45 2.64v.713h-2.352v-2.351h-7.839v2.351h-3.136v-2.351h-7.839v2.351H27.58V29.613l3.73-3.98a2.744 2.744 0 0 1 3.022-.671l2.61 1.044c2 .8 4.186 1.014 6.303.617a5.036 5.036 0 0 1 4.619 1.523Zm5.194 6.49h-.392v-3.92h.392a1.96 1.96 0 0 1 0 3.92Zm-.392 2.351h-.097a12.528 12.528 0 0 1-4.614 8.23 19.47 19.47 0 0 1 1.672.417 12.538 12.538 0 0 1 10.879-6.295c6.927 0 12.543 5.616 12.543 12.543 0 5.846-4 10.758-9.411 12.15.002.13.004.262.004.393v8.624H13.468v-8.624c0-9.708 7.06-17.768 16.325-19.326a12.525 12.525 0 0 1-4.468-8.112h-.489a4.312 4.312 0 1 1 0-8.623h.392v-2.352c0-6.928 5.616-12.543 12.543-12.543h2.352c6.927 0 12.543 5.615 12.543 12.543v2.352h.392a4.312 4.312 0 0 1 0 8.623h-.392Zm8.624 27.414c-.26.016-.521.025-.784.025-6.928 0-12.544-5.616-12.544-12.544 0-.216.006-.43.017-.644l-3.24 2.377-.788.577-.713-.668-1.417-1.329-.378 2.59 2.182 10.178.057.267-.066.265-1.301 5.202H61.29v-6.296ZM34.01 70.697l-1.3-5.202-.067-.265.058-.267 2.18-10.179-.377-2.589-1.417 1.33-.733.686-.793-.617-6.028-4.688c-5.75 2.797-9.714 8.695-9.714 15.52v6.271h18.191Zm2.975-14.503-1.928 8.995 1.28 5.116h3.65l1.28-5.116-1.928-8.995h-2.354Zm1.177-7.428 1.567 1.469-.526 3.607h-2.082l-.526-3.607 1.567-1.47Zm2.566-.818 3.406 3.193 4.49-3.294.017-.048a17.235 17.235 0 0 0-4.16-.615c-1.177.437-2.438.702-3.753.764Zm-7.333-.77c.754.281 1.543.491 2.358.623l-3.542 3.32-4.129-3.211a17.245 17.245 0 0 1 4.984-.731h.33Zm16.918-12.543v.784c0 5.629-4.563 10.192-10.191 10.192H37.77c-5.629 0-10.191-4.563-10.191-10.192V33.067h1.568V35.42h7.839V33.067h3.136V35.42h7.839V33.067h2.352v1.568Zm-25.086-3.92h-.392a1.96 1.96 0 1 0 0 3.92h.392v-3.92Zm5.487 0h4.704v3.136h-4.703v-3.136Zm15.68 0H41.69v3.136h4.704v-3.136ZM35.419 40.907h6.272v1.568h-6.272v-1.568Zm35.278 10.975c0 5.629-4.563 10.192-10.191 10.192-5.629 0-10.192-4.563-10.192-10.192 0-5.628 4.563-10.191 10.192-10.191 5.628 0 10.191 4.563 10.191 10.191Zm-9.015-.784v6.272H59.33v-6.272h2.352Zm0-2.743a1.176 1.176 0 1 0-2.352 0 1.176 1.176 0 0 0 2.352 0Z" fill="#1D3557"/></svg>