<svg width="85" height="85" fill="none" xmlns="http://www.w3.org/2000/svg"><path fill-rule="evenodd" clip-rule="evenodd" d="M52.31 22.028c-2.19 2.414-3.177 5.41-3.276 7.897l6.18-6.18 1.391 1.39-7.134 7.135c6.152-.335 9.582-2.838 11.443-5.775 1.835-2.895 2.231-6.349 1.996-8.922-5.035.193-8.431 2.066-10.6 4.455Zm-5.13 6.555a14.39 14.39 0 0 0-1.855-2.625c-2.65-2.973-6.816-5.124-12.84-5.124h-.841l-.13.831c-.464 2.95-.197 7.39 2.172 11.128 2.289 3.611 6.446 6.422 13.373 6.703v3.406c-.288-.01-.573-.012-.857-.006-4.95.105-9.117 2.636-11.598 5.06l-.63-.269a4.262 4.262 0 0 0-3.332-.01l-3.58 1.507V45.42H13.95V69.022h13.112V62.616l16.8 6.834a3.996 3.996 0 0 0 3.128-.05l18.988-8.439a4.51 4.51 0 0 0-3.54-8.293c-4.404-6.055-9.054-8.823-13.412-9.564v-8.846c7.033-.24 11.241-3.068 13.55-6.71 2.369-3.739 2.635-8.178 2.173-11.128l-.13-.83h-.842c-6.024 0-10.23 2.149-12.923 5.116a14.8 14.8 0 0 0-3.673 7.877Zm-.13 6.587c-.094-2.496-1.045-5.494-3.194-7.904-2.124-2.383-5.475-4.255-10.504-4.448-.235 2.573.16 6.027 1.996 8.922 1.842 2.907 5.22 5.389 11.255 5.764l-7.124-7.123 1.391-1.391 6.18 6.18Zm-.806 9.692c-3.955.084-7.402 1.962-9.661 3.943l11.583 4.964a3.946 3.946 0 0 1 2.367 4.064l10.053-4.363c-4.998-6.704-10.075-8.698-14.342-8.608Zm-30.327 2.525h9.179v19.668h-9.179V47.387Zm11.146 13.106 17.54 7.135a2.03 2.03 0 0 0 1.589-.025l18.988-8.44a2.542 2.542 0 0 0-2.045-4.655l-14.373 6.238-.015-.035a3.942 3.942 0 0 1-3.6.345l-10.582-4.233.73-1.826 10.583 4.233a1.977 1.977 0 0 0 1.513-3.653L33.2 49.495a2.295 2.295 0 0 0-1.794-.006l-4.343 1.829v9.175Z" fill="#1D3557"/></svg>