<svg width="82" height="82" fill="none" xmlns="http://www.w3.org/2000/svg"><path fill-rule="evenodd" clip-rule="evenodd" d="M67.194 39.29c3.275.987 4.97 2.358 5.044 4.075.012.074.012.16.012.235v13.562c0 2.211-2.702 3.508-4.956 4.2-2.752.852-6.376 1.322-10.211 1.322-6.961 0-14.433-1.57-15.068-4.99-2.901-.025-5.64-.322-7.97-.865a14.895 14.895 0 0 1-9.389 3.31c-8.219 0-14.906-6.633-14.906-14.785 0-.926.087-1.84.262-2.755 1.531-8.016 9.34-13.29 17.434-11.759l-.138-5.632a2.257 2.257 0 0 1-.037-.408c0-2.21 2.702-3.495 4.956-4.187 2.752-.84 6.376-1.297 10.212-1.297 3.847 0 7.508.457 10.31 1.297 2.976.89 4.658 2.1 5.006 3.595.112.185.175.395.187.617v13.18c3.487.074 6.712.53 9.252 1.284ZM52.04 33.483c2.703-.816 3.3-1.668 3.3-1.828v-.04c0-.158-.001-.307.125-.467v-3.236c-.86.445-1.768.803-2.702 1.075-2.802.84-6.476 1.297-10.311 1.297-3.674 0-7.173-.42-9.875-1.198a13.873 13.873 0 0 1-2.69-1.026l.087 3.483a14.4 14.4 0 0 1 3.898 2.187c.019.006.034.009.05.012a.388.388 0 0 1 .05.012c2.39.606 5.404.927 8.48.927 3.561 0 7.06-.445 9.588-1.198Zm-9.6-11.685c-3.587 0-6.95.432-9.465 1.198-2.627.79-3.2 1.581-3.212 1.816 0 0 .012 0 .012.024.062.272.81 1.112 3.487 1.878 2.478.716 5.74 1.112 9.177 1.112 3.562 0 7.049-.433 9.577-1.186 2.702-.803 3.312-1.655 3.312-1.828 0-.16-.598-1-3.3-1.816-2.528-.766-6.027-1.198-9.589-1.198Zm-26.96 31.855c4.607 5.027 12.465 5.386 17.533.815 2.59-2.334 4.072-5.632 4.06-9.103 0-.827-.088-1.667-.25-2.483-.921-4.384-4.171-7.942-8.492-9.276a12.778 12.778 0 0 0-3.674-.543 12.458 12.458 0 0 0-8.356 3.199c-5.068 4.57-5.429 12.364-.822 17.391Zm23.087-2.977a14.886 14.886 0 0 1-2.391 4.064c1.905.31 3.835.482 5.765.507l-.074-4.188v-.222a46.5 46.5 0 0 1-3.3-.16Zm3.188-6.694a43.388 43.388 0 0 1-2.254-.087c.037.494.062.976.062 1.458 0 .963-.1 1.94-.286 2.89.821.062 1.68.099 2.552.111l-.074-4.372Zm.684-2.458h.125c2.042-2.224 7.534-3.335 12.876-3.483v-3.237c-.86.433-1.756.79-2.69 1.063-2.802.84-6.475 1.297-10.323 1.297-1.893 0-3.773-.124-5.641-.359a14.592 14.592 0 0 1 2.229 4.595c1.071.074 2.23.124 3.424.124Zm1.769 1.964.025.05c.074.258.81 1.11 3.486 1.877 2.478.704 5.741 1.099 9.178 1.099 3.55 0 6.911-.408 9.464-1.161 2.765-.815 3.387-1.668 3.4-1.853v-.012c-.013-.185-.635-1-3.288-1.791-2.54-.766-6.027-1.174-9.588-1.174h-.212c-3.313 0-6.463.37-8.879 1.05-2.578.717-3.462 1.532-3.574 1.865-.012.025-.012.037-.012.05Zm12.888 16.736c3.587 0 6.961-.432 9.477-1.21 2.627-.815 3.2-1.668 3.2-1.84h-.012v-3.706c-.835.42-1.706.778-2.615 1.05-2.79.84-6.438 1.297-10.286 1.297-3.412 0-6.737-.383-9.352-1.062a16.31 16.31 0 0 1-3.101-1.124l.062 3.582v.024c0 .186.548 1.013 3.176 1.816 2.49.754 5.852 1.173 9.451 1.173Zm12.677-10.301h.013v-3.285c-.872.444-1.781.802-2.727 1.062-2.778.815-6.389 1.26-10.174 1.26-3.674 0-7.173-.42-9.875-1.198a15.357 15.357 0 0 1-2.715-1.038l.05 2.84.012 1.038c.971 1.198 5.616 2.742 12.515 2.742 3.599 0 6.999-.42 9.551-1.185 2.69-.816 3.275-1.655 3.275-1.828 0-.07.02-.143.04-.214a.785.785 0 0 0 .035-.194Zm-45.116-6.213c2.105 0 3.96 1.383 4.533 3.397.71 2.483-.747 5.052-3.25 5.756v1.087c0 .68-.56 1.235-1.245 1.235a1.244 1.244 0 0 1-1.246-1.235v-1.075a4.699 4.699 0 0 1-3.487-4.508c0-.68.56-1.235 1.246-1.235.685 0 1.245.555 1.245 1.235 0 1.21.996 2.186 2.217 2.186 1.22 0 2.204-.988 2.204-2.199 0-1.21-.997-2.186-2.217-2.186a4.684 4.684 0 0 1-4.533-3.458c-.672-2.483.822-5.04 3.325-5.707v-.531c0-.68.56-1.235 1.245-1.235s1.246.556 1.246 1.235v.556a4.675 4.675 0 0 1 3.424 4.496c0 .68-.56 1.235-1.245 1.235a1.244 1.244 0 0 1-1.245-1.235c0-1.21-.997-2.199-2.217-2.199-1.22 0-2.204.976-2.216 2.199 0 1.21.996 2.186 2.216 2.186Z" fill="#1D3557"/></svg>