<svg xmlns="http://www.w3.org/2000/svg" viewBox="0 0 228 195" style="enable-background:new 0 0 228 195" xml:space="preserve"><style>.st0{display:none}.st1{display:inline}.st2{fill:#1d3557}.st3{fill:#cb170f}.st4{fill:#1d3557;stroke:#13007c;stroke-width:5.000000e-02;stroke-miterlimit:10}</style><g id="_x31_"><g id="Слой_3__x28_копия_x29_"><path class="st2" d="M57.4 195.4c-.8-.1-1.5-.1-2.2-.2-1.5-.1-3.1-.3-4.6-.5-4.9-.6-9.6-1.3-13.8-4.5-3-2.3-4.5-5.2-4.5-9.2.1-36.1 0-16.9 0-52.4v-3.1c0-1.4-.1-2.9-.2-4.3 0-.7-.1-1.4-.1-2.1v-10.5l.2-2c.1-1.4.3-2.8.4-4.2.2-2.3 1.1-4 2.7-5.1 1.2-.8 2.5-1.7 3.7-2.7.1-.1.3-.5.3-.6-.2-3.1-.4-5.9-.7-8.6 0-.3-.3-.7-.6-.9-.8-.6-1.6-1.1-2.5-1.7-.4-.3-.8-.5-1.2-.8-1.2-.8-1.8-1.9-1.7-3.4 0-1.2 0-2.5-.1-3.7l-.1-.9c-.2-4.1 1.3-6.3 4.9-7.3 1.2-.3 2.3-.6 3.5-.9l.7-.2-1.7-8.3 1-.2c.8-.2 1.5-.3 2.2-.5 1.7-.4 3.2-.8 4.9-1 2-.3 4.1-.4 6.1-.5.9-.1 1.7-.1 2.6-.2H81.5c.5 0 .7.1 1 .1 1 .1 1 .1 2.7.2 1.4.1 2.9.2 4.3.3 2.7.2 5 .9 7.1 2.1l.6.4-1.6 7.6c.3.1.6.2.9.2 1.4.4 2.7.7 4 1.1 2.7.8 4.2 3.1 4.1 6.2v1.7c0 1.4-.1 2.8-.2 4.2-.1.9-.6 2.2-1.4 2.9-.7.6-1.5 1.1-2.3 1.6-.6.4-1.2.7-1.7 1.1-.3.2-.6.7-.6.9-.3 2.7-.5 5.5-.7 8.6 0 .1.2.5.3.6 1.1.9 2.3 1.7 3.5 2.5 1.8 1.2 2.8 3 2.9 5.4.1 1.4.2 2.7.4 4.1.1.6.1 1.2.2 1.8V119c0 .7-.1 1.4-.1 2.1-.1 1.4-.2 2.9-.2 4.3v56c0 3.5-1.2 6.2-3.7 8.2-.6.5-1.2.9-2 1.4-3.8 2.6-8.1 3.1-12.3 3.6h-.3c-1.6.2-3.1.3-4.7.5-.7.1-1.4.1-2.1.2l-22.2.1zM42.1 58.9l1.7 8.2-2.5.6c-1.2.3-2.3.6-3.5.9-2.7.7-3.6 2.1-3.5 5.2l.1 1c.1 1.3.1 2.6.1 3.9 0 1 .3 1.4.8 1.7.4.3.8.5 1.2.8.9.5 1.8 1.1 2.6 1.8.6.4 1.3 1.4 1.4 2.3.3 2.7.6 5.6.7 8.7 0 .9-.5 1.8-1.1 2.3-1.3 1-2.6 2-3.9 2.8-1.1.7-1.7 1.8-1.8 3.5-.1 1.4-.3 2.8-.4 4.2l-.2 1.9V119c0 .6.1 1.3.1 2 .1 1.5.2 2.9.2 4.4v55.5c0 3.4 1.1 5.7 3.7 7.6 3.8 2.8 8 3.5 12.8 4.1 1.5.2 3.1.3 4.6.5.7.1 1.4.1 2.1.2h22c.6-.1 1.3-.1 2-.2 1.5-.1 3.1-.3 4.6-.5h.3c4.1-.5 7.9-1 11.4-3.3.7-.5 1.3-.9 1.8-1.3 2-1.6 3-3.7 3-6.6v-56c0-1.5.1-3 .2-4.5 0-.7.1-1.4.1-2v-10.3c-.1-.6-.1-1.2-.2-1.8-.1-1.4-.3-2.8-.4-4.1-.1-1.8-.8-3-2-3.9-1.2-.8-2.5-1.6-3.7-2.6-.6-.5-1.1-1.4-1.1-2.3.2-3.1.4-5.9.7-8.7.1-1 .8-1.9 1.4-2.3.6-.5 1.2-.9 1.8-1.2.7-.5 1.5-.9 2.1-1.4.3-.2.6-.9.6-1.5.1-1.3.2-2.7.2-4.1V73c.1-2.1-.9-3.7-2.7-4.2-1.3-.4-2.6-.7-4-1.1-.6-.2-1.2-.3-1.9-.5l-.5-.1 1.7-8c-1.7-.8-3.5-1.3-5.6-1.5-1.4-.1-2.9-.2-4.3-.3-1.8-.2-1.2-.2-2.4-.2-.4 0-.8 0-1.4-.1-.1 0-.7 0-.8-.1H56.5c-.8.1-1.7.1-2.5.2-1.9.1-4 .2-5.9.5-1.5.2-3.1.6-4.7 1-.4.1-.9.2-1.3.3z"/><path class="st3" d="m58.2 103.4-.1 1.8 9 7.5-7.1-9.2-1.8-.1zM68.8 99.4l-1.3 1.3 1 11.6 1.6-11.5-1.3-1.4zM53.5 113.6l1.3 1.3 11.8-1-11.7-1.6-1.4 1.3zM83.3 114.4l-1.3 1.3-11.7-1.6 11.8-1 1.2 1.3zM79.3 103.9l-1.8-.1-7.6 8.8 9.4-7v-1.7z"/><g><path class="st2" d="M76.5 110.6c-.1 0-.2.1-.3.1-.2 0-.4.1-.5.1-.1 0-.2.1-.3.1-.2.1-.4.1-.5.2-.5.2-1.1.4-1.6.6-.5.2-1 .5-1.5.8-.5.3-1 .7-1.4 1l.1.1v.1c.4-.3.8-.5 1.4-.8l1.5-.6c.4-.2 1-.3 1.6-.4.2-.1.4-.1.5-.1.1 0 .2-.1.3-.1.2 0 .4-.1.5-.1.1-.1.2-.1.3-.1h.1l.5-.5-.7-.4zM71.6 106.2l-.4-.5-.4.5v.1c.1.8-.1 1.8-.4 3-.1.5-.3.9-.4 1.5-.2.5-.4 1-.6 1.4h.1l.1.1c.2-.4.5-.8.8-1.5.3-.5.5-1 .7-1.4.1-.9.4-2 .5-3.2zM65.3 112.2c-.5-.3-1-.5-1.5-.8-.4-.2-1-.4-1.6-.6-.2-.1-.4-.1-.5-.2-.1 0-.2-.1-.3-.1-.2-.1-.4-.1-.5-.1-.1 0-.2-.1-.3-.1h-.1l-.7.3.5.5h.1c.1.1.2.1.3.1.2 0 .3.1.5.1.1 0 .2.1.3.1.2.1.4.1.5.1.5.1 1.1.3 1.6.4l1.5.6c.6.3 1 .5 1.4.8v-.1l.1-.2c-.3-.1-.7-.5-1.3-.8zM66.6 109.4c-.3-1.2-.4-2.1-.4-3v-.1l-.4-.5-.4.4v.1c.1 1.2.4 2.3.7 3.1.2.4.4.9.7 1.4.3.5.5 1 .8 1.4h.2c-.2-.4-.4-.9-.6-1.4-.3-.5-.5-1-.6-1.4z"/></g><g><path class="st2" d="M77.4 129.8H72v-2h5.4v-1.4H72v-2h5.4v-1.5h-6.7v8.3h6.7zM77.4 134.7l-6.7-3.1v1.4l1.5.8v2.9l-1.5.7v1.5l6.7-3.1v-1.1zm-3.9 1.5v-1.8l2.1.9-2.1.9zM77 141.9c-.2-2.1-1.3-3.3-3-3.3-1.8 0-2.9 1.2-3 3.3h-.7v1.4h.7c.2 2.1 1.2 3.3 3 3.3s2.9-1.2 3-3.3h.7v-1.4H77zm-1.3 1.4c-.1.9-.5 1.9-1.6 1.9-1 0-1.5-.7-1.6-1.9h3.2zm-3.3-1.4c.1-.9.4-1.9 1.6-1.9 1 0 1.5.7 1.6 1.9h-3.2zM74.9 152.9c1.5 0 2.4-1.1 2.4-2.9v-2.6h-6.7v1.4h1.9v1.2c0 1.8.9 2.9 2.4 2.9zm0-1.4c-.8 0-1.1-.4-1.1-1.4v-1.2H76v1.2c0 .9-.3 1.4-1.1 1.4zM70.7 158.1v1.5l6.7-3.1v-1.2l-6.7-3.1v1.5l1.5.8v2.9l-1.5.7zm2.8-1.3V155l2.1.9-2.1.9zM70.7 164.4v1.4h6.7v-1.4h-2.7v-3h2.7V160h-6.7v1.4h2.7v3zM71.5 168.8c-.5.6-.8 1.3-.8 2.2 0 1 .2 1.8.8 2.3.4.6 1.2.8 2.2.8h3.6v-2h-3.6c-.4 0-.8 0-1-.2-.2-.1-.3-.4-.3-.8 0-.6.1-1.1 1.3-1.1h3.6v-2h-3.6c-.8 0-1.6.2-2.2.8zM70.8 175.7l1.3.6v2.4l-1.3.6v2.1l6.6-3v-1.8l-6.6-3v2.1zm2.9 2.4V177l1.3.6-1.3.5zM70.7 166.2h1.4v1.4h-1.4zM62.2 127.1c1.1 0 1.3-1 1.5-1.8.2-.7.3-1.1.7-1.1.3 0 .5.3.5 1 0 .4-.1.9-.3 1.2l-.1.1.8.3v-.1c.3-.3.4-1 .4-1.5 0-1.3-.8-1.9-1.4-1.9-1 0-1.3.9-1.4 1.7-.2.7-.3 1.1-.7 1.1-.3 0-.5-.3-.5-1 0-.6.1-1.1.4-1.4l.2-.2-.8-.3-.1.1c-.4.4-.7 1.1-.7 1.9.1 1.4.8 1.9 1.5 1.9zm2.9-.5c.1-.1.1-.1 0 0 .1-.1.1 0 0 0zm.1-2.5zm.1.1s0 .1.1.1c-.1 0-.1 0-.1-.1zm.1.3c0 .1 0 .1.1.2-.1 0-.1-.1-.1-.2zm.1.4v.4-.4zm-.1 1.1zM65.7 129.2l-4.8-2.2v.9l1.1.6v2.3l-1.1.6v1l4.8-2.2v-1zm-3 1.2v-1.5l1.8.8-1.8.7zM65.7 132.5h-4.8v1h1.7v2.3h.9v-2.4h1.3v2.7H65.7zM65.7 136.7h-4.8v.9H62.6v2.3h.9v-2.3h1.3v2.6H65.7zM62.3 143.1l-1.4 1v1.1l1.5-1.2c.3.7.9 1 1.5 1 1.1 0 1.8-.8 1.8-2.1v-2h-4.8v1h1.4v1.2zm2.5-1.2v1c0 .4-.1 1.1-.9 1.1s-.9-.6-.9-1.1v-1h1.8zm-.9 2.9zM63.3 145.4c-1.4 0-2.5 1.2-2.5 2.6 0 1.4 1.1 2.5 2.5 2.6 1.4 0 2.5-1.2 2.5-2.6 0-1.5-1.1-2.6-2.5-2.6zm-1.8 2.7c0-.5.2-.9.5-1.2.3-.3.7-.4 1.2-.4 1 0 1.6.7 1.6 1.7 0 .9-.7 1.7-1.6 1.7-1-.2-1.7-.8-1.7-1.8zM60.9 152.3h3.2l-3.2 2.5v.8h4.8v-1h-3.2l3.2-2.6v-.7h-4.8zM61.3 161.3c.4.3 1 .6 1.6.6h2.7v-1.3H63c-.4 0-.7-.1-.9-.2-.1-.2-.2-.3-.2-.7 0-.4.1-.9 1.1-.9h2.6v-1.3H63c-.7 0-1.2.2-1.6.6-.3.3-.5.9-.5 1.5-.1.7.1 1.1.4 1.7zM60.9 163l1 .4v1.9l-1 .3v1.4l4.8-2.1v-1.2l-4.8-2.1v1.4zm3.6 1.5-.6.2.6-.2zm-.4 0-1.2.4v-1l1.2.6zM60.9 155.9h1v1h-1z"/></g><g><path class="st2" d="M198.3 143.5h-1v11.4h-49.6v13.9l.2.2.8-.5-.8.5c2.8 4.5 4.8 9.9 6.1 16.3l.2.8h12.4v-12h30.8v13.6h15.8v-44.2h-14.9zm-48.6 24.7v-11.3h49.6v-11.4h11.8v40.2h-11.8v-13.6h-34.8v12h-8.8c-1.3-6.1-3.3-11.4-6-15.9zM212.1 113.7h-35.4V95.5h-12.4V128h48.8v-14.4h-1zm-1 12.4h-44.8V97.5h8.4v18.1h36.4v10.5z"/></g></g></g></svg>
