<svg xmlns="http://www.w3.org/2000/svg" viewBox="0 0 228 195" style="enable-background:new 0 0 228 195"
     xml:space="preserve"><style>.st0{fill:#1d3557}.st1{fill:#cb170f}.st2{display:none}.st3{display:inline}.st4{fill:#1d3557;stroke:#13007c;stroke-width:5.000000e-02;stroke-miterlimit:10}</style>
    <g id="_x31_0"><path class="st0 st2a" d="M69.2 195h-1.6c-9.9-.5-18.6-1.3-26.5-2.5-5.9-.9-11.8-2.7-18-5.3-2.8-1.2-5.1-3.4-6.9-6.7-.3-.5-.3-1-.3-1.4 0-1.3 0-2.6-.1-4-.1-3.8-.1-7.8-.1-11.6V51.7c0-1.5.1-2.9.2-4.2.5-4.7 2.4-8 5.8-10.2 1-.6 2-1.4 2.9-2.1.2-.2.4-.3.6-.5.9-.6 1.2-1.4 1.2-2.4v-5.6c0-1.7-.5-2.5-1.7-2.9-.3-.1-.5-.2-.7-.4l-.1-.1c-1.2-.7-1.7-1.8-1.6-3.1V16c0-2.6 1.8-5.1 4.3-5.8.6-.2 1.2-.3 1.8-.5l-1.6-6 .7-.3.6-.3c.5-.2 1-.5 1.5-.6.6-.1 1.1-.2 1.7-.3 2-.4 4-.8 6-1C47.2.4 57.3 0 68.4 0c11.1 0 21.2.4 30.9 1.3 2 .2 4.1.6 6 1 .6.1 1.1.2 1.7.3.6.1 1 .3 1.5.6l.6.3.7.3-1.6 6c.6.1 1.2.3 1.8.5 2.5.8 4.3 3.2 4.3 5.8v4.2c.1 1.3-.5 2.4-1.6 3.1l-.1.1c-.2.1-.4.3-.7.4-1.2.4-1.7 1.2-1.7 2.9v5.6c0 1 .4 1.7 1.2 2.4.2.2.4.3.6.5.9.7 1.9 1.5 2.9 2.1 3.4 2.2 5.3 5.5 5.8 10.2.1 1.3.2 2.7.2 4.2v111.8c0 3.9-.1 7.8-.1 11.6 0 1.3 0 2.6-.1 3.9 0 .4 0 .9-.3 1.4-1.8 3.3-4 5.5-6.9 6.7-6.2 2.7-12.1 4.4-18 5.3-7.7 1.2-16.4 2-26.3 2.5zm-1.5-1.8h1.5c9.9-.5 18.5-1.3 26.3-2.5 5.8-.9 11.5-2.6 17.6-5.2 2.5-1.1 4.4-2.9 6-5.9 0 0 .1-.2.1-.5 0-1.3 0-2.6.1-3.9.1-3.8.1-7.8.1-11.6V51.8c0-1.4-.1-2.7-.2-4-.5-4.2-2.1-7-5-8.9-1.1-.7-2.1-1.5-3.1-2.2-.2-.2-.4-.3-.6-.5-1.3-1-2-2.3-1.9-3.9v-5.6c0-.9 0-3.6 2.9-4.6 0 0 .1-.1.2-.1l.2-.2c.6-.4.8-.8.8-1.5-.1-1 0-2 0-3v-1.2c0-1.8-1.3-3.5-3-4.1-.6-.2-1.2-.3-1.8-.5-.3-.1-.6-.1-.8-.2l-.9-.2 1.6-6.2c-.4-.2-.7-.4-1.1-.4-.6-.1-1.1-.2-1.7-.3-1.9-.4-3.9-.8-5.8-1-9.6-.9-19.7-1.3-30.7-1.3-11.1 0-21.1.4-30.7 1.3-1.9.2-3.9.6-5.8 1-.6.1-1.1.2-1.7.3-.3.1-.7.2-1.1.4l1.6 6.2-.9.2c-.3.1-.6.1-.9.2-.6.2-1.2.3-1.8.5-1.7.5-3 2.3-3 4.1v4.2c0 .7.2 1.1.8 1.5.1 0 .1.1.2.2.1 0 .2.1.2.1 2.9 1 2.9 3.7 2.9 4.6v5.6c0 1.6-.6 2.9-1.9 3.9-.2.2-.4.3-.6.5-1 .7-2 1.5-3.1 2.2-3 1.9-4.5 4.7-5 8.9-.1 1.2-.2 2.5-.2 4v111.8c0 3.9.1 7.8.1 11.6 0 1.3 0 2.6.1 4 0 .4.1.5.1.5 1.6 2.9 3.5 4.8 6 5.9 6 2.6 11.8 4.3 17.6 5.2 7.8 1.1 16.4 1.9 26.3 2.4zM210.8 81.5h1V67.1h-36.4V49H163v32.5h47.8zM165 51h8.4v18.1h36.4v10.4H165V51z"/>
        <path class="st0 st2a"
              d="M197 144.4h-1v11.4h-49.6v13.9l.2.2c2.8 4.5 4.8 9.9 6.1 16.3l1-.2-1 .2.2.8h12.4v-12H196v13.6h15.8v-44.2H197zm-48.6 24.8v-11.3H198v-11.4h11.8v40.2H198V173h-34.8v12h-8.8c-1.2-6.1-3.2-11.4-6-15.8z"/>
        <path class="st0 st2a"
              d="M160 124.2c.5.6 1.4 1.1 2.4 1.6 1 .4 2.3.9 3.8 1.2 3.1.8 7.3 1.1 12.6 1.1 3.9 0 7.2-.2 9.9-.5s4.8-.8 6.3-1.5c3-1.4 4.8-3.6 4.8-6.4 0-2.9-1.8-4.9-4.8-6.3-1.5-.7-3.7-1.2-6.3-1.6-2.7-.3-6-.5-9.9-.5-5.4 0-9.6.4-12.6 1.1-1.5.4-2.8.8-3.8 1.3-1 .4-1.8 1-2.3 1.6-1 1.1-1.5 2.6-1.5 4.3-.2 1.9.3 3.4 1.4 4.6zm.7-8.2.7.7c.3-.3.8-.7 1.7-1.1.9-.4 2-.8 3.5-1.1l-.2-1 .2 1c2.8-.7 6.9-1.1 12.2-1.1 3.8 0 7 .2 9.6.5 2.6.3 4.5.8 5.7 1.4 2.6 1.2 3.6 2.7 3.6 4.5 0 1.8-1 3.4-3.6 4.6-1.3.6-3.2 1-5.7 1.3-2.6.3-5.8.5-9.6.5-5.3 0-9.3-.4-12.2-1.1-1.5-.4-2.6-.7-3.5-1.1-.9-.4-1.4-.8-1.7-1.1l-.8.7.8-.7c-.7-.8-1.1-1.8-1.1-3.1s.4-2.3 1-3l-.6-.8zM160.7 123.5l.8-.6z"/>
        <path class="st0 st2a"
              d="M204 137.7c6-4.5 9-10.5 9-18s-3-13.5-9-18l-.3.4.3-.4c-6-4.4-14.5-6.6-25.2-6.6-10.6 0-19 2.2-24.8 6.6-5.9 4.5-8.8 10.5-8.8 18s2.9 13.5 8.8 18c5.8 4.5 14.1 6.6 24.8 6.6 10.8 0 19.2-2.1 25.2-6.6zm-1.2-1.6c-5.6 4.1-13.5 6.2-24 6.2s-18.3-2.1-23.6-6.2c-5.3-4.1-8-9.5-8-16.4s2.7-12.3 8-16.4c5.4-4.1 13.2-6.2 23.6-6.2 10.5 0 18.4 2.1 24 6.2 5.5 4.1 8.2 9.5 8.2 16.4 0 6.9-2.7 12.3-8.2 16.4z"/>
        <g><path class="st0" d="M32.2 136.2c.2-.1.3-.2.4-.3.1-.1.1-.3.1-.5 0-.3-.1-.5-.4-.7-.2-.2-.6-.3-1-.3h-1.7v3.7h1.8c.5 0 .8-.1 1-.3.2-.2.4-.4.4-.8 0-.2-.1-.4-.2-.6 0 0-.2-.2-.4-.2zm-1.8-1.3h.9c.2 0 .4 0 .5.1.1.1.2.2.2.4s-.1.3-.2.4c-.1.1-.3.1-.5.1h-.9v-1zm1.1 2.7h-1.1v-1.1h1.1c.5 0 .7.2.7.5 0 .4-.2.6-.7.6zM34 137v-2.6h-.7v3.7h.7l2-2.6v2.6h.6v-3.7H36zM42.3 134.6c-.3-.2-.6-.2-1-.2s-.7.1-1 .2c-.2.1-.3.2-.5.4v-.5h-2.5v3.7h.7v-3.1h1.8c-.1.1-.2.2-.2.3-.2.3-.3.6-.3 1s.1.7.3 1 .4.5.7.7c.3.2.6.2 1 .2s.7-.1 1-.2c.3-.2.5-.4.7-.7.2-.3.3-.6.3-1s-.1-.7-.3-1c-.1-.4-.4-.6-.7-.8zm.1 2.3c-.1.2-.3.4-.5.5-.2.1-.4.2-.7.2-.2 0-.5-.1-.7-.2-.2-.1-.4-.3-.5-.5-.1-.2-.2-.4-.2-.7 0-.2.1-.5.2-.7.1-.2.3-.4.5-.5.2-.1.4-.2.7-.2.2 0 .5.1.7.2.2.1.4.3.5.5.1.2.2.4.2.7 0 .3-.1.5-.2.7zM44.4 138.1h.7V135h1.2v-.6h-3.1v.6h1.2zM49.2 137.9c.3-.2.5-.4.7-.7.2-.3.3-.6.3-1s-.1-.7-.3-1c-.2-.3-.4-.5-.7-.7-.3-.2-.6-.2-1-.2s-.7.1-1 .2c-.3.2-.5.4-.7.7-.2.3-.3.6-.3 1s.1.7.3 1 .4.5.7.7c.3.2.6.2 1 .2.3.1.7 0 1-.2zm-2.2-1c-.1-.2-.2-.4-.2-.7 0-.2.1-.5.2-.7.1-.2.3-.4.5-.5.2-.1.4-.2.7-.2.2 0 .5.1.7.2.2.1.4.3.5.5.1.2.2.4.2.7 0 .2-.1.5-.2.7-.1.2-.3.4-.5.5-.2.1-.4.2-.7.2-.2 0-.5-.1-.7-.2-.2-.1-.4-.3-.5-.5zM53.4 137.8c.2-.2.4-.4.4-.8 0-.2-.1-.4-.2-.6-.1-.2-.3-.3-.5-.3.2-.1.3-.2.4-.3.1-.1.1-.3.1-.5 0-.3-.1-.5-.4-.7-.2-.2-.6-.3-1-.3h-1.7v3.7h1.8c.5.1.8 0 1.1-.2zm-2.2-2.9h.9c.2 0 .4 0 .5.1.1.1.2.2.2.4s-.1.3-.2.4c-.1.1-.3.1-.5.1h-.9v-1zm0 2.7v-1.1h1.1c.5 0 .7.2.7.5 0 .4-.2.6-.7.6h-1.1z"/>
            <path class="st0"
                  d="M53.7 138.1c.2 0 .3.1.4.1.3 0 .5-.1.6-.3.1-.2.3-.4.3-.7.1-.3.1-.7.1-1.3v-.9h1.5v3.1h.7v-3.7h-2.7l-.1 1.5c0 .6-.1 1-.2 1.2-.1.3-.2.4-.5.4h-.2l.1.6zM60.7 137.5h-2.1v-1h1.8v-.6h-1.8v-.9h2v-.6h-2.7v3.7h2.8zM61.8 136.5h1.9v1.6h.7v-3.7h-.7v1.5h-1.9v-1.5h-.7v3.7h.7zM65.7 137.9c.3.2.6.2 1 .2s.7-.1 1-.2c.3-.2.5-.4.7-.7.2-.3.3-.6.3-1s-.1-.7-.3-1c-.2-.3-.4-.5-.7-.7-.3-.2-.6-.2-1-.2s-.7.1-1 .2c-.3.2-.5.4-.7.7-.2.3-.3.6-.3 1s.1.7.3 1 .4.6.7.7zm-.1-2.3c.1-.2.3-.4.5-.5.2-.1.4-.2.7-.2.2 0 .5.1.7.2.2.1.4.3.5.5.1.2.2.4.2.7 0 .2-.1.5-.2.7-.1.2-.3.4-.5.5-.2.1-.4.2-.7.2-.2 0-.5-.1-.7-.2-.2-.1-.4-.3-.5-.5-.1-.2-.2-.4-.2-.7.1-.3.1-.5.2-.7zM72.6 137.7c.1-.2.2-.4.2-.6 0-.2-.1-.4-.2-.6-.1-.2-.3-.3-.5-.3.2-.1.3-.2.4-.3.1-.1.1-.3.1-.5s-.1-.4-.2-.6c-.1-.2-.3-.3-.6-.4-.2-.1-.5-.1-.8-.1-.2 0-.4 0-.6.1-.2.1-.4.1-.6.2l.2.6c.2-.1.3-.2.5-.2s.3-.1.5-.1.4 0 .6.1c.2.1.2.2.2.4 0 .1-.1.3-.2.3-.1.1-.3.1-.5.1h-.8v.5h.9c.2 0 .4 0 .6.1.1.1.2.2.2.4s-.1.3-.3.5c-.2.1-.4.2-.7.2-.2 0-.4 0-.6-.1-.2-.1-.4-.1-.5-.3l-.2.5c.2.1.4.2.7.3.2.1.5.1.7.1.3 0 .6 0 .8-.1.4 0 .6-.1.7-.2zM77.1 137.5H75v-1h1.8v-.6H75v-.9h2v-.6h-2.7v3.7h2.8zM78.2 136.5h.6l1.1 1.6h.8l-1.3-1.9 1.3-1.8h-.8l-1 1.5h-.7v-1.5h-.7v3.7h.7z"/>
            <path class="st0"
                  d="M80.8 137.2c.2.3.4.5.7.7.3.2.6.2 1 .2s.7-.1 1-.2c.3-.2.5-.4.7-.7.2-.3.3-.6.3-1s-.1-.7-.3-1c-.2-.3-.4-.5-.7-.7-.3-.2-.6-.2-1-.2s-.7.1-1 .2c-.3.2-.5.4-.7.7-.2.3-.3.6-.3 1s.1.7.3 1zm.6-1.6c.1-.2.3-.4.5-.5.2-.1.4-.2.7-.2.2 0 .5.1.7.2.2.1.4.3.5.5.1.2.2.4.2.7 0 .2-.1.5-.2.7-.1.2-.3.4-.5.5-.2.1-.4.2-.7.2-.2 0-.5-.1-.7-.2-.2-.1-.4-.3-.5-.5-.1-.2-.2-.4-.2-.7 0-.3.1-.5.2-.7zM87.3 138.1h.7v-3.7h-2.7l-.1 1.5c0 .6-.1 1-.2 1.2-.1.3-.2.4-.5.4h-.2v.6c.2 0 .3.1.4.1.3 0 .5-.1.6-.3.1-.2.3-.4.3-.7.1-.3.1-.7.1-1.3v-.9h1.5v3.1zM89.3 137.9c.3.2.6.2 1 .2s.7-.1 1-.2c.3-.2.5-.4.7-.7.2-.3.3-.6.3-1s-.1-.7-.3-1c-.2-.3-.4-.5-.7-.7-.3-.2-.6-.2-1-.2s-.7.1-1 .2c-.3.2-.5.4-.7.7-.2.3-.3.6-.3 1s.1.7.3 1 .4.6.7.7zm-.1-2.3c.1-.2.3-.4.5-.5.2-.1.4-.2.7-.2.2 0 .5.1.7.2.2.1.4.3.5.5.1.2.2.4.2.7 0 .2-.1.5-.2.7-.1.2-.3.4-.5.5-.2.1-.4.2-.7.2-.2 0-.5-.1-.7-.2-.2-.1-.4-.3-.5-.5-.1-.2-.2-.4-.2-.7 0-.3.1-.5.2-.7zM92.7 138.1h.7V135h1.8v-.6h-2.5zM95.4 134.4h.7v3.7h-.7zM98.8 136.1c-.3.1-.6.2-.9.2-.3 0-.5-.1-.7-.2-.2-.1-.2-.3-.2-.6v-1.1h-.7v1.2c0 .4.1.8.4 1 .3.2.6.3 1.1.3.3 0 .6-.1 1-.2v1.4h.7v-3.7h-.7v1.7zM102.8 135.9h-1.9v-1.5h-.7v3.7h.7v-1.6h1.9v1.6h.7v-3.7h-.7zM107.6 135.3c-.2-.3-.4-.5-.7-.7-.3-.2-.6-.2-1-.2s-.7.1-1 .2c-.3.2-.5.4-.7.7-.2.3-.3.6-.3 1s.1.7.3 1 .4.5.7.7c.3.2.6.2 1 .2s.7-.1 1-.2c.3-.2.5-.4.7-.7.2-.3.3-.6.3-1-.1-.4-.1-.7-.3-1zm-.6 1.6c-.1.2-.3.4-.5.5-.2.1-.4.2-.7.2-.2 0-.5-.1-.7-.2-.2-.1-.4-.3-.5-.5-.1-.2-.2-.4-.2-.7 0-.2.1-.5.2-.7.1-.2.3-.4.5-.5.2-.1.4-.2.7-.2.2 0 .5.1.7.2.2.1.4.3.5.5.1.2.2.4.2.7-.1.3-.1.5-.2.7zM45.9 142.5c-.3.1-.6.2-.9.2-.3 0-.5-.1-.7-.2-.2-.1-.2-.3-.2-.6v-1.1h-.7v1.2c0 .4.1.8.4 1 .3.2.6.3 1.1.3.3 0 .6-.1 1-.2v1.4h.7v-3.7h-.7v1.7zM47.9 143.4v-2.6h-.7v3.7h.7l2-2.6v2.6h.7v-3.7h-.7zM57.3 140.8h-3.1v.3c-.1-.1-.2-.2-.4-.2-.3-.1-.5-.2-.8-.2-.4 0-.7.1-1 .2-.3.2-.5.4-.7.7-.2.3-.3.6-.3 1s.1.7.3 1c.2.3.4.5.7.7.3.2.6.2 1 .2.3 0 .6-.1.8-.2.3-.1.5-.3.6-.5l-.4-.4c-.3.3-.6.4-1 .4-.3 0-.5-.1-.7-.2-.2-.1-.4-.3-.5-.5-.1-.2-.2-.4-.2-.7 0-.3.1-.5.2-.7.1-.2.3-.4.5-.5.2-.1.4-.2.7-.2.4 0 .7.1 1 .4l.4-.4h1v3.1h.7V141h1.2v-.2zM60.2 141c-.3-.2-.6-.2-1-.2s-.7.1-1 .2c-.3.2-.5.4-.7.7-.2.3-.3.6-.3 1s.1.7.3 1 .4.5.7.7c.3.2.6.2 1 .2s.7-.1 1-.2c.3-.2.5-.4.7-.7.2-.3.3-.6.3-1s-.1-.7-.3-1c-.2-.3-.4-.6-.7-.7zm.1 2.3c-.1.2-.3.4-.5.5-.2.1-.4.2-.7.2-.2 0-.5-.1-.7-.2-.2-.1-.4-.3-.5-.5-.1-.2-.2-.4-.2-.7 0-.2.1-.5.2-.7.1-.2.3-.4.5-.5.2-.1.4-.2.7-.2.2 0 .5.1.7.2.2.1.4.3.5.5.1.2.2.4.2.7 0 .3-.1.5-.2.7zM61.5 140.8h.7v3.7h-.7zM61.7 140.1c0-.1 0-.2-.1-.2-.1-.1-.1-.1-.2-.1s-.2 0-.2.1c-.1.1-.1.1-.1.2s0 .2.1.2c.1.1.1.1.2.1s.2 0 .2-.1c0 0 .1-.1.1-.2zM62.4 139.8c-.1 0-.2 0-.2.1-.1.1-.1.1-.1.2s0 .2.1.2c.1.1.1.1.2.1s.2 0 .2-.1c.1-.1.1-.1.1-.2s0-.2-.1-.2c-.1-.1-.1-.1-.2-.1zM65 141.5c.2-.1.4-.2.7-.2.4 0 .7.1 1 .4l.4-.4c-.2-.2-.4-.4-.6-.5-.3-.1-.5-.2-.8-.2-.4 0-.7.1-1 .2-.3.2-.5.4-.7.7-.2.3-.3.6-.3 1s.1.7.3 1c.2.3.4.5.7.7.3.2.6.2 1 .2.3 0 .6-.1.8-.2.3-.1.5-.3.6-.5l-.4-.4c-.3.3-.6.4-1 .4-.3 0-.5-.1-.7-.2-.2-.1-.4-.3-.5-.5-.1-.2-.2-.4-.2-.7 0-.3.1-.5.2-.7.1.2.3 0 .5-.1zM68 143.4v-2.6h-.7v3.7h.7l2-2.6v2.6h.7v-3.7H70zM73.7 140.9c-.2-.1-.5-.2-.8-.2h-1.5v3.7h.6v-1.1h.8c.3 0 .6-.1.8-.2.2-.1.4-.3.6-.5.1-.2.2-.4.2-.7 0-.3-.1-.5-.2-.7-.1 0-.3-.2-.5-.3zm-.2 1.7c-.2.1-.4.2-.7.2H72v-1.5h.8c.3 0 .5.1.7.2.2.1.2.3.2.5 0 .3-.1.5-.2.6zM77.5 141c-.3-.2-.6-.2-1-.2s-.7.1-1 .2c-.3.2-.5.4-.7.7-.2.3-.3.6-.3 1s.1.7.3 1 .4.5.7.7c.3.2.6.2 1 .2s.7-.1 1-.2c.3-.2.5-.4.7-.7.2-.3.3-.6.3-1s-.1-.7-.3-1c-.2-.3-.4-.6-.7-.7zm.1 2.3c-.1.2-.3.4-.5.5-.2.1-.4.2-.7.2-.2 0-.5-.1-.7-.2-.2-.1-.4-.3-.5-.5-.1-.2-.2-.4-.2-.7 0-.2.1-.5.2-.7.1-.2.3-.4.5-.5.2-.1.4-.2.7-.2.2 0 .5.1.7.2.2.1.4.3.5.5.1.2.2.4.2.7-.1.3-.1.5-.2.7zM81.3 142.6c.2-.1.3-.2.4-.3.1-.1.1-.3.1-.5 0-.3-.1-.5-.4-.7-.2-.2-.6-.3-1-.3h-1.7v3.7h1.8c.5 0 .8-.1 1-.3.2-.2.4-.4.4-.8 0-.2-.1-.4-.2-.6 0-.1-.2-.2-.4-.2zm-1.8-1.3h.9c.2 0 .4 0 .5.1.1.1.2.2.2.4s-.1.3-.2.4c-.1.1-.3.1-.5.1h-.9v-1zm1.1 2.7h-1.1v-1.1h1.1c.5 0 .7.2.7.5 0 .4-.3.6-.7.6zM83.1 143.4v-2.6h-.7v3.7h.6l2-2.6v2.6h.7v-3.7h-.6zM89 142.3h-2v-1.5h-.7v3.7h.7v-1.6h2v1.6h.6v-3.7H89zM91 143.4v-2.6h-.7v3.7h.6l2-2.6v2.6h.7v-3.7H93z"/></g>
        <g><path class="st1" d="m32.5 122.9 25.5-.5v1zM79.9 122.4l25.4.5-25.4.5z"/>
            <g><path class="st1" d="m75.8 123.7-6.1-.7 6.1-.7.7.7-.7.7zM61.5 123.7l6.1-.7-6.1-.7-.7.7.7.7zM64.1 128.5l3.9-4.8-4.8 3.9v1h.9zM73.2 128.5l-3.9-4.8 4.8 3.9v1h-.9zM69.3 130.1l-.7-6.1-.7 6.1.7.7.7-.7z"/></g></g>
        <g><path class="st1" d="m44.2 68.2-.2 4.3 21.5 17.9-17-22-4.3-.2zM69.6 58.6l-3.2 2.9 2.3 27.6 3.8-27.4-2.9-3.1zM33.1 92.7l3 3.1 28-2.3-27.9-3.7-3.1 2.9zM104.2 94.5l-3.2 2.9-27.9-3.7 28-2.3 3.1 3.1zM94.4 69.5l-4.3-.1-18.2 21.1 22.4-16.7.1-4.3z"/>
            <g><path class="st0" d="M87.7 85.2c-.3.1-.5.1-.8.2-.4.1-.9.2-1.3.3-.2.1-.4.1-.6.2-.4.1-.9.2-1.3.4-1.4.4-2.7 1-3.8 1.4-1.3.6-2.5 1.2-3.6 1.9-1.4.8-2.4 1.6-3.3 2.4l.3.4c.9-.7 2-1.3 3.4-2 1.2-.6 2.4-1.1 3.6-1.5 1.1-.4 2.5-.8 3.8-1 .4-.1.9-.2 1.3-.2.2 0 .4-.1.6-.1.4-.1.8-.1 1.3-.2.2 0 .5-.1.7-.1h.1l1.3-1.3-1.7-.8zM76 75.2v-.1L75 74l-1 1.1v.1c.1 2-.1 4.3-.9 7.1-.3 1.1-.6 2.2-1.1 3.5-.5 1.3-.9 2.4-1.4 3.4l.4.2c.6-1 1.2-2.1 1.8-3.3.6-1.2 1.1-2.4 1.5-3.5.8-1.9 1.6-4.5 1.7-7.4zM57.7 87.7c-1.1-.5-2.4-1-3.8-1.4-.4-.2-.9-.3-1.4-.4-.2-.1-.4-.1-.6-.2-.4-.1-.9-.2-1.3-.3-.2 0-.5-.1-.7-.1h-.1l-1.6.7 1.3 1.3h.1c.2 0 .5.1.7.1.4 0 .8.1 1.2.2.2 0 .4.1.6.1.4.1.9.1 1.3.2 1.3.3 2.7.7 3.8 1 1.3.4 2.5.9 3.6 1.5 1.4.7 2.5 1.3 3.4 2l.3-.4c-.9-.8-1.9-1.6-3.3-2.4-1-.7-2.2-1.4-3.5-1.9zM64.4 82.3c-.7-2.8-1-5-.9-7.1v-.1l-1-1.1-1.1 1.1v.1c.1 2.9 1 5.5 1.7 7.5.4 1.1.9 2.2 1.5 3.5.6 1.2 1.2 2.3 1.8 3.3l.4-.2c-.5-1-.9-2.1-1.4-3.4-.4-1.4-.7-2.5-1-3.6z"/></g>
            <g><path class="st0" d="M50.9 101.1h-1.2v4.8h-1.8v-4.8h-1.3v4.8h-1.8v-4.8h-1.2v6h7.3zM53.2 105.7h2.6l.6 1.4h1.4l-2.7-6H54l-2.7 6h1.4l.5-1.4zm.5-1.1.8-1.8.8 1.8h-1.6zM64.5 104.1c0-1.5-1.1-2.5-2.9-2.6v-.6h-1.2v.6c-1.8.1-2.9 1.1-2.9 2.6s1.1 2.5 2.9 2.6v.6h1.2v-.6c1.9-.2 2.9-1.1 2.9-2.6zm-2.9-1.5c.8.1 1.7.4 1.7 1.5 0 .9-.6 1.4-1.7 1.5v-3zm-1.2 0v3c-.8-.1-1.7-.5-1.7-1.5.1-.9.6-1.4 1.7-1.5zM66.5 105.4h1.1c1.6 0 2.5-.8 2.5-2.2 0-1.3-1-2.2-2.5-2.2h-2.4v6h1.3v-1.6zm2.4-2.2c0 .7-.4 1-1.3 1h-1.1v-2h1.1c.9.1 1.3.4 1.3 1zM73.4 101.1h-1.1l-2.7 6H71l.6-1.4h2.6l.6 1.4h1.4l-2.8-6zm-1.3 3.5.8-1.8.8 1.8h-1.6zM81.6 107.1v-6h-1.2v2.3h-2.7v-2.3h-1.3v6h1.3v-2.5h2.7v2.5zM86.3 107c.8 0 1.5-.2 2-.7.5-.5.7-1.1.7-2v-3.2h-1.7v3.2c0 .4-.1.7-.2.9-.2.2-.4.3-.7.3-.4 0-.9-.1-.9-1.2v-3.2h-1.7v3.2c0 .8.2 1.5.7 2 .3.5 1 .7 1.8.7zM92.9 101.1h-1.5l-2.6 5.8h1.8l.5-1.1h2.1l.5 1.1h1.9l-2.7-5.8zm-.3 3.3h-.9l.5-1.1.4 1.1zM82 105.8h1.3v1.3H82zM51.9 113.3c-.6-.1-1-.3-1-.6s.3-.5.9-.5c.4 0 .7.1 1.1.3l.1.1.3-.7-.1-.1c-.4-.2-.9-.4-1.4-.4-1.3 0-1.7.7-1.7 1.3 0 .9.9 1.1 1.5 1.3.6.1 1 .3 1 .6s-.3.5-.9.5c-.5 0-1-.2-1.3-.4l-.1-.1-.3.7.1.1c.4.3 1 .5 1.7.5 1.3 0 1.7-.7 1.7-1.3-.1-.9-.9-1.1-1.6-1.3zM55.3 111.5l-2 4.3h.9l.5-1h2l.5 1h.8l-2-4.3h-.7zm1.1 2.6H55l.7-1.6.7 1.6zM58.3 115.8h.8v-1.6h2.1v-.8h-2.1v-1.1h2.4v-.8h-3.2zM62 115.8h.9v-1.6h2v-.8h-2v-1.1h2.3v-.8H62zM69.3 113.1c0-1-.7-1.5-1.8-1.5h-1.7v4.3h.8v-1.2h1.1l.9 1.3h.9l-1-1.4c.5-.4.8-.9.8-1.5zm-.8 0c0 .7-.6.8-1 .8h-.9v-1.6h.9c.4 0 1 .1 1 .8zM72 111.5c-1.3 0-2.3 1-2.3 2.2s1 2.2 2.3 2.2c1.3 0 2.3-1 2.3-2.2s-1-2.2-2.3-2.2zm1.5 2.2c0 .8-.6 1.4-1.5 1.4s-1.5-.6-1.5-1.4c0-.8.6-1.4 1.5-1.4.9-.1 1.5.5 1.5 1.4zM77.9 114.3l-2.3-2.8H75v4.3h.8V113l2.2 2.8h.7v-4.3h-.8zM84.2 111.5H83v2.4c0 .3-.1.6-.2.7-.1.1-.3.2-.6.2s-.8-.1-.8-1v-2.4h-1.2v2.4c0 .6.2 1.1.5 1.5.3.3.8.5 1.4.5.6 0 1.1-.2 1.4-.5.3-.3.5-.8.5-1.5v-2.3zM86 111.5l-1.9 4.3h1.2l.3-.9h1.7l.3.9H89l-1.9-4.3H86zm1 2.5h-.9l.4-1.1.5 1.1zM79 115h.8v.8H79z"/></g></g></g></svg>