<svg xmlns="http://www.w3.org/2000/svg" viewBox="0 0 228 195" style="enable-background:new 0 0 228 195"
     xml:space="preserve"><style>.st0{display:inline}.st1{display:inline}.st2{fill:#1d3557}.st3{fill:#cb170f}.st4{fill:#1d3557;stroke:#13007c;stroke-width:5.000000e-02;stroke-miterlimit:10}</style>
    <g id="_x32_"><g id="Слой_3"><path class="st2 st2a" d="M57.4 195.4c-.8-.1-1.5-.1-2.2-.2-1.5-.1-3.1-.3-4.6-.5-4.9-.6-9.6-1.3-13.8-4.5-3-2.3-4.5-5.2-4.5-9.2.1-36.1 0-72.9 0-108.4v-3.1c0-1.4-.1-2.9-.2-4.3 0-.7-.1-1.4-.1-2.1V52.6l.2-2c.1-1.4.3-2.8.4-4.2.2-2.3 1.1-4 2.7-5.1 1.2-.8 2.5-1.7 3.7-2.7.1-.1.3-.5.3-.6-.2-3.1-.4-5.9-.7-8.6 0-.3-.3-.7-.6-.9-.8-.6-1.6-1.1-2.5-1.7-.4-.3-.8-.5-1.2-.8-1.2-.8-1.8-1.9-1.7-3.4 0-1.2 0-2.5-.1-3.7l-.1-.9c-.2-4.1 1.3-6.3 4.9-7.3 1.2-.3 2.3-.6 3.5-.9l.7-.2-1.7-8.3 1-.2c.8-.2 1.5-.3 2.2-.5 1.7-.4 3.2-.8 4.9-1 2-.3 4.1-.4 6.1-.5.9-.1 1.7-.1 2.6-.2h24.1c.2 0 .3.1.5.1.3.1.6.1.9.1 1 .1 2.1.1 3.1.2 1.4.1 2.9.1 4.3.2 2.7.2 5 .9 7.1 2.1l.4.5-1.6 7.6c.3.1.6.2.9.2 1.4.4 2.7.7 4 1.1 2.7.8 4.2 3.1 4.1 6.2v1.7c0 1.4-.1 2.8-.2 4.2-.1.9-.6 2.2-1.4 2.9-.7.6-1.5 1.1-2.3 1.6-.6.4-1.2.7-1.7 1.1-.3.2-.6.7-.6.9-.3 2.7-.5 5.5-.7 8.6 0 .1.2.5.3.6 1.1.9 2.3 1.7 3.5 2.5 1.8 1.2 2.8 3 2.9 5.4.1 1.4.2 2.7.4 4.1.1.6.1 1.2.2 1.8v10.5c0 .7-.1 1.4-.1 2.1-.1 1.4-.2 2.9-.2 4.3v112c0 3.5-1.2 6.2-3.7 8.2-.6.5-1.2.9-2 1.4-3.8 2.6-8.1 3.1-12.3 3.6h-.3c-1.6.2-3.1.3-4.7.5-.7.1-1.4.1-2.1.2h-22zM42.1 2.9l1.7 8.2-2.5.6c-1.2.3-2.3.6-3.5.9-2.7.7-3.6 2.1-3.5 5.2l.1 1c.1 1.3.1 2.6.1 3.9 0 1 .3 1.4.8 1.7.4.3.8.5 1.2.8.9.5 1.8 1.1 2.6 1.8.6.4 1.3 1.4 1.4 2.3.3 2.7.6 5.6.7 8.7 0 .9-.5 1.8-1.1 2.3-1.3 1-2.6 2-3.9 2.8-1.1.7-1.7 1.8-1.8 3.5-.1 1.4-.3 2.8-.4 4.2v12.3c0 .6.1 1.3.1 2 .1 1.5.2 2.9.2 4.4V181c0 3.4 1.1 5.7 3.7 7.6 3.8 2.8 8 3.5 12.8 4.1 1.5.2 3.1.3 4.6.5.7.1 1.4.1 2.1.2h22c.6-.1 1.3-.1 2-.2 1.5-.1 3.1-.3 4.6-.5h.3c4.1-.5 7.9-1 11.4-3.3.7-.5 1.3-.9 1.8-1.3 2-1.6 3-3.7 3-6.6v-112c0-1.5.1-3 .2-4.5 0-.7.1-1.4.1-2V52.7c-.1-.6-.1-1.2-.2-1.8-.1-1.4-.3-2.8-.4-4.1-.1-1.8-.8-3-2-3.9-1.2-.8-2.5-1.6-3.7-2.6-.6-.5-1.1-1.4-1.1-2.3.2-3.1.4-5.9.7-8.7.1-1 .8-1.9 1.4-2.3.6-.5 1.2-.9 1.8-1.2.7-.5 1.5-.9 2.1-1.4.3-.2.6-.9.6-1.5.1-1.3.2-2.7.2-4.1v-1.7c.1-2.1-.9-3.7-2.7-4.2-1.3-.4-2.6-.7-4-1.1-.6-.2-1.2-.3-1.9-.5l-.7-.2 1.7-8c-1.7-.8-3.5-1.3-5.6-1.5-1.4-.1-2.8-.2-4.2-.2-1-.1-2.1-.1-3.1-.2-.4 0-.8-.1-1.2-.2H56.5c-.8.1-1.7.1-2.5.2-1.9.1-4 .2-5.9.5-1.5.2-3.1.6-4.7 1-.4 0-.9.1-1.3.2zM212.4 110.6H177V92.5h-12.4V125h48.8v-14.4h-1zm-1 12.4h-44.8V94.5h8.4v18.1h36.4V123zM198 139.6h-1v11.6c0 2.2.2 4.9.5 8-5.4-5.1-10.5-9.1-15-11.9-5.1-3.1-9.7-4.7-13.9-4.7-6.5 0-11.8 2.1-15.8 6.4-4 4.2-6 9.7-6 16.4 0 4.7.8 8.8 2.5 12.3s4.4 6.9 8 10.4l.7.7.7-.7 9.2-9.2.7-.7-.7-.7c-4-4-5.7-7.2-5.7-9.7 0-2.2.7-3.8 1.9-5 1.2-1.1 2.9-1.8 5.5-1.8 1.5 0 3.2.4 5.2 1.4 1.9 1 3.8 2.1 5.4 3.3l.6-.8-.6.8c1.7 1.1 3.9 3.1 6.8 6 2.9 2.8 5.2 5.1 6.9 6.9 1.7 1.8 4.3 4.7 8 8.7l.3.3H213.4v-48H198zm13.4 46H203c-3.5-3.8-6.1-6.6-7.7-8.4-1.7-1.8-4.1-4.1-6.9-6.9-2.9-2.9-5.2-4.9-7-6.2-1.8-1.3-3.7-2.5-5.7-3.5l-.4.9.4-.9-.4.9.4-.9c-2.2-1-4.2-1.6-6-1.6-2.9 0-5.2.7-6.9 2.4-1.7 1.6-2.5 3.8-2.5 6.4 0 3.2 2 6.6 5.6 10.4L158 186c-3.2-3.1-5.5-6.2-6.9-9.1-1.5-3.2-2.3-7-2.3-11.5 0-6.3 1.8-11.2 5.4-15 3.6-3.8 8.3-5.8 14.4-5.8 3.6 0 7.9 1.4 12.8 4.4 4.9 3 10.5 7.5 16.7 13.5l2 2-.4-2.8-1 .1 1-.1c-.5-4.2-.8-7.7-.8-10.5v-9.6h12.4v44z"/><g><path class="st3" d="m53.5 51.8-.1 2.7 13.3 11-10.6-13.6-2.6-.1zM69.2 45.9l-1.9 1.9 1.5 17.1L71 48l-1.8-2.1zM46.6 67l1.9 1.9 17.3-1.5-17.3-2.3-1.9 1.9zM90.5 68.1 88.6 70l-17.3-2.3 17.3-1.5 1.9 1.9zM84.6 52.7l-2.7-.1-11.3 13 13.8-10.3.2-2.6z"/>
        <g><path class="st2" d="M80.4 62.4c-.2 0-.3.1-.5.1s-.6.1-.8.2c-.2 0-.2.1-.4.1-.2.1-.6.2-.8.2-.8.2-1.6.6-2.3.9-.8.3-1.5.7-2.3 1.1-.8.5-1.5 1-2 1.5l.1.1.1.1c.6-.4 1.2-.8 2-1.2.7-.3 1.5-.6 2.3-.9.6-.2 1.5-.5 2.3-.6.2-.1.6-.1.8-.2.2 0 .2-.1.4-.1.3 0 .6-.1.8-.1.1-.1.2-.1.4-.1h.1l.8-.8-1-.3zM73.2 56l-.6-.7-.7.7v.1c.1 1.2-.1 2.7-.6 4.4-.2.7-.4 1.4-.6 2.2-.3.8-.6 1.5-.9 2.1l.1.1.2.1c.3-.6.7-1.2 1.1-2.2.4-.7.7-1.5 1-2.1.4-1.3.9-2.9 1-4.7zM64 64.9c-.7-.4-1.5-.8-2.3-1.1-.6-.3-1.5-.6-2.3-.9-.2-.1-.6-.2-.8-.2-.2 0-.2-.1-.4-.1-.2-.1-.6-.1-.8-.2-.1 0-.2-.1-.4-.1h-.1l-1 .5.8.8h.1c.1.1.2.1.4.1s.5.1.7.1c.2 0 .2.1.4.1.2.1.6.1.8.2.8.2 1.6.4 2.3.6.8.2 1.5.6 2.3.9.9.4 1.5.8 2.1 1.2v-.1l.1-.3c-.5-.6-1.1-1.1-1.9-1.5zM65.9 60.7c-.5-1.7-.6-3.2-.6-4.4v-.1l-.6-.7-.6.6v.1c.1 1.8.6 3.4 1.1 4.6.3.6.6 1.3 1 2.1.4.7.8 1.5 1.1 2h.2c-.3-.6-.6-1.3-.9-2.1-.3-.8-.5-1.5-.7-2.1z"/></g>
        <g><path class="st2" d="M81.7 90.8h-7.9v-3h7.9v-2.1h-7.9v-2.9h7.9v-2.1h-9.8v12.2h9.8zM81.7 98.1l-9.9-4.5v2.1l2.3 1.1v4.2l-2.3 1v2.3l9.9-4.5v-1.7zm-5.6 2.1v-2.6l3.1 1.3-3.1 1.3zM81.3 108.6c-.3-3.1-1.9-4.9-4.4-4.9-2.6 0-4.2 1.8-4.4 4.9h-1v2.1h1c.3 3.1 1.8 4.9 4.4 4.9s4.2-1.8 4.4-4.9h1v-2.1h-1zm-2 2.1c-.2 1.3-.8 2.8-2.4 2.8-1.5 0-2.3-1-2.4-2.8h4.8zm-4.9-2.1c.2-1.3.6-2.8 2.4-2.8 1.5 0 2.3 1 2.4 2.8h-4.8zM71.9 118.9h2.8v1.8c0 2.6 1.3 4.2 3.6 4.2s3.6-1.6 3.6-4.2v-3.9H72v2.1zm7.9 0v1.8c0 1.5-.5 2.1-1.6 2.1s-1.6-.6-1.6-2.1v-1.8h3.2zM71.9 126.2l2.3 1.1v4.2l-2.3 1v2.3l9.9-4.5v-1.8l-9.9-4.5v2.2zm4.2 4.4V128l3.1 1.3-3.1 1.3zM71.9 137.4h4v4.4h-4v2.1h9.8v-2.1h-3.8v-4.4h3.8v-2.1h-9.8zM73.2 148.3c-.8.8-1.1 2-1.1 3.2 0 1.5.3 2.6 1.1 3.4.6.8 1.8 1.1 3.2 1.1h5.4v-2.9h-5.4c-.6 0-1.1 0-1.5-.3-.3-.2-.5-.7-.5-1.1 0-.8.2-1.6 1.9-1.6h5.4v-2.9h-5.4c-1.2-.1-2.3.3-3.1 1.1zM72 158.5l1.9.8v3.6l-1.9.8v3.1l9.7-4.4v-2.6l-9.7-4.4v3.1zm4.4 3.6v-1.6l1.9.8-1.9.8zM71.9 144.5H74v2.1h-2.1zM59.4 86.9c1.6 0 1.9-1.5 2.3-2.6.3-1 .5-1.6 1-1.6s.8.5.8 1.5c0 .6-.2 1.3-.5 1.8l-.2.2 1.1.5v-.2c.5-.5.6-1.5.6-2.3 0-1.9-1.1-2.8-2.1-2.8-1.5 0-1.9 1.3-2.1 2.4-.3 1-.5 1.6-1 1.6s-.8-.5-.8-1.5c0-.8.2-1.6.6-2.1l.3-.3-1-.5-.2.2c-.6.6-1 1.6-1 2.8.1 2.1 1.2 2.9 2.2 2.9zm4.3-.9.2-.2c-.1.1-.1.2-.2.2zm.2-.2c.1-.1.1-.2.1-.4 0 .1 0 .2-.1.4zm.3-1.1v-1.2 1.2zm-.1.5c0-.1.1-.3.1-.4 0 .2-.1.3-.1.4zm-.3-2.9zm.1.3c0 .1.1.1.1.2 0 0 0-.1-.1-.2zm.2.4c0 .1.1.2.1.3-.1-.1-.1-.2-.1-.3zM64.6 90l-7.1-3.2V88l1.6.8v3.4l-1.7.8v1.5l7.1-3.2V90zm-4.4 1.7v-2.3l2.6 1.1-2.6 1.2zM64.6 94.8h-7.2v1.5H60v3.4h1.3v-3.6h2v3.9h1.3zM64.6 101h-7.2v1.3H60v3.4h1.3v-3.4h2v3.9h1.3zM59.5 110.4l-2.1 1.5v1.6l2.3-1.8c.5 1 1.3 1.5 2.3 1.5 1.6 0 2.6-1.1 2.6-3.1v-2.9h-7.1v1.5h2.1v1.5c-.1.1-.1.1-.1.2zm1.2-1.8h2.6v1.5c0 .7-.2 1.6-1.3 1.6s-1.3-.8-1.3-1.6v-1.5zM61 113.8c-2.1 0-3.7 1.8-3.7 3.9 0 2.1 1.6 3.7 3.7 3.9 2.1 0 3.7-1.8 3.7-3.9 0-2.2-1.6-3.9-3.7-3.9zm-2.6 3.9c0-.7.3-1.3.7-1.8.4-.4 1-.6 1.7-.6 1.5 0 2.4 1 2.4 2.4 0 1.3-1 2.4-2.4 2.4-1.4.1-2.4-.9-2.4-2.4zM57.4 128.8h7.2v-1.5h-4.7l4.7-3.7v-1.2h-7.2v1.5h4.7l-4.7 3.7zM58.1 132.4c-.5.5-.8 1.3-.8 2.3 0 1.1.3 1.8.8 2.6.6.5 1.5.8 2.4.8h4.1v-1.9H60.7c-.6 0-1-.2-1.3-.3-.2-.3-.3-.5-.3-1 0-.6.2-1.3 1.6-1.3h3.9v-1.9h-4.1c-1-.2-1.8.2-2.4.7zM57.4 139.8l1.5.7v2.8l-1.5.5v2.1l7.1-3.1V141l-7.1-3.1v1.9zm5.4 2.1-.9.3.9-.3zm-.7 0-1.8.6V141l1.8.9zM57.4 129.3h1.5v1.5h-1.5z"/></g></g></g></g></svg>