<svg xmlns="http://www.w3.org/2000/svg" viewBox="0 0 228 195" style="enable-background:new 0 0 228 195" xml:space="preserve"><style>.st0{display:none}.st1{display:inline}.st2{fill:#1d3557}.st3{fill:#18223b}.st4{fill:#cb170f}.st5{fill:#1d3557;stroke:#13007c;stroke-width:5.000000e-02;stroke-miterlimit:10}</style><g id="_x35_"><path class="st2 st2a" d="M69.1 195.5h-1.8l-.3-.1c-.1 0-.3-.1-.4-.1-1.9-.1-3.7-.2-5.6-.3-4-.2-8.1-.5-12.2-.8-6.7-.6-14.5-1.6-21.9-4.6-3.8-1.5-6.8-3.8-8.9-6.8-.4-.6-.9-1.4-1-2.4-.1-1-.2-2-.3-3.1-.3-3.4-.6-7-.7-10.5-.2-15.2-.4-31.8-.5-52.2 0-2.9.3-5.7.6-8.5.5-3.8 2.3-6.7 5.4-8.7l.3-.2c.9-.5 1.7-1.1 2.7-1.5 2.3-1.2 3-2.3 2.7-4.9l-.1-.7c-.1-1-.2-2-.2-3 0-1.3-.5-2.1-1.6-2.5-1.5-.6-2.4-1.9-2.5-3.5-.1-2-.1-3.9 0-5.8s1.1-3.3 2.9-4.1c.4-.2.8-.4 1.2-.5.8-.4 1.6-.7 2.4-1-.5-2.9-.9-5.8-1.4-8.7l-.6-4 1.1-.1c26.5-1.6 53.3-1.6 79.7 0l1.1.1-.6 4.1c-.4 2.9-.9 5.8-1.4 8.6 1.4.6 2.7 1.2 4 1.9 1.3.7 2.2 1.8 2.3 3.3.1 1 .1 2 .2 3 0 .4 0 .9.1 1.3.2 3-.9 5-3.4 6-.5.2-.8.6-.8 1.2-.1 1.7-.3 3.3-.5 5v.2c-.2 1.8.5 3 2.1 3.9.2.1.5.3.7.4.3.1.6.3.9.5 3.2 1.9 6.2 3.9 6.9 8 .6 3.2 1.1 6.2 1.1 9.1 0 13.8-.2 27.9-.3 41.5V162.7c0 5.5 0 11.1-.8 16.7v.2c-.1.9-.3 1.9-.8 2.7-2 3.2-4.5 5.4-7.6 6.7-3.2 1.3-5.7 2.2-8 2.8-8.9 2.3-18 2.9-26.5 3.4l-5.4.3h-2.3zm-1.6-2H69l2.3-.1 5.4-.3c8.4-.5 17.4-1.1 26.1-3.3 2.3-.6 4.7-1.4 7.8-2.7 2.6-1.1 4.9-3.1 6.7-5.9.3-.5.4-1.2.5-1.9v-.2c.8-5.4.8-11 .8-16.4V155c.2-13.6.3-27.7.3-41.5 0-2.8-.5-5.6-1-8.8-.6-3.2-3-4.9-6-6.6-.2-.1-.5-.3-.8-.4-.3-.1-.6-.3-.9-.4-2.4-1.4-3.4-3.4-3.1-5.9v-.2c.2-1.6.4-3.2.5-4.8.1-1.4.8-2.5 2-3 1.6-.7 2.3-1.9 2.2-4.1 0-.5 0-.9-.1-1.4 0-1-.1-1.9-.2-2.8-.1-.8-.5-1.4-1.2-1.7-1.3-.6-2.6-1.3-3.9-1.8-1-.4-1.4-1.1-1.2-2.2.5-2.9.9-5.7 1.4-8.6l.3-1.9c-25.7-1.5-51.7-1.5-77.4 0l.3 1.9c.4 2.9.9 5.8 1.4 8.6.2 1.1-.2 1.8-1.2 2.2-.8.3-1.5.7-2.3 1l-1.2.6c-1.1.5-1.7 1.3-1.7 2.4-.1 1.8-.1 3.7 0 5.6.1 1 .7 1.5 1.3 1.8 1.9.8 2.8 2.3 2.8 4.4 0 .9.1 1.8.2 2.7l.1.7c.4 3.4-.7 5.4-3.7 6.9-.8.4-1.7.9-2.5 1.4l-.3.2c-2.6 1.6-4.1 4-4.5 7.2-.3 2.7-.7 5.5-.6 8.3.1 20.4.3 37 .5 52.2.1 3.4.4 6.9.7 10.3.1 1 .2 2 .3 3.1 0 .4.3.9.6 1.4 1.9 2.8 4.6 4.8 8 6.1 7.2 2.9 14.9 3.9 21.4 4.5 4 .4 8.1.6 12.1.8 1.9.1 3.7.2 5.6.3.2 0 .4.1.7.1v-.1zM207.7 148.1c-4.3-4.9-10-7.3-17.2-7.3-6.6 0-11.8 2-15.4 6.1-3.5 4.1-5.2 9.2-5.2 15.3 0 1.7.2 3.4.6 4.9l-6.8-.6v-22.9h-16.4v39.6h1l32.6 1.6h.6l.3-.5 4.8-7.4.3-.5-.3-.5-.9.5.9-.5c-1.2-1.9-1.9-3.4-2.3-4.4-.4-1-.5-2.3-.5-3.9 0-2.4.7-4.2 1.9-5.5 1.2-1.3 2.9-2.1 5.2-2.1 2.5 0 4.3.7 5.4 2 1.1 1.3 1.8 3.4 1.8 6.4 0 3.7-1.8 7.8-5.7 12.1l-.8.8.9.6 10.8 7.6.7.5.6-.6c6.2-6.2 9.3-14.1 9.3-23.7 0-6.9-2-12.8-6.2-17.6zm-3.9 39.4-9.2-6.5c3.6-4.3 5.5-8.5 5.5-12.6 0-3.3-.7-5.9-2.3-7.7-1.6-1.8-4-2.7-6.9-2.7-2.8 0-5.1.9-6.7 2.7-1.7 1.8-2.4 4.1-2.4 6.9 0 1.7.2 3.3.7 4.5.4 1.1 1.1 2.5 2.2 4.2l-4.1 6.4-31.1-1.5v-35.6h12.4v22.7l.9.1.1-1-.1 1 9.2.8.1-1-.1 1 1.6.1-.5-1.5c-.6-1.7-.9-3.6-.9-5.7 0-5.7 1.6-10.3 4.8-13.9 3.1-3.6 7.7-5.5 13.8-5.5 6.6 0 11.8 2.2 15.6 6.7 3.8 4.4 5.8 9.8 5.8 16.3-.3 8.9-3 16.1-8.4 21.8zM211.7 125.8h1v-14.4h-36.4V93.3h-12.4v32.5h47.8zm-45.8-30.5h8.4v18.1h36.4v10.4h-44.8V95.3z"/><g><path class="st4" d="m28.2 151.1 2.2.1 9.3-11.1-11.4 8.8-.1 2.2zM23.3 137.9l1.5 1.6 14.3-1.2-14.2-2-1.6 1.6zM40.9 156.8l1.6-1.6-1.2-14.5-1.9 14.4 1.5 1.7zM41.9 120l1.5 1.6-1.9 14.4-1.2-14.5 1.6-1.5zM28.9 125l-.1 2.3 10.9 9.4-8.7-11.6-2.1-.1z"/><g><path class="st2" d="M37.2 128.9c0 .2.1.4.1.7 0 .1.1.2.1.3.1.2.1.5.2.7.2.7.5 1.4.7 2 .3.7.6 1.3 1 1.9.4.7.8 1.2 1.2 1.7l.2-.2c-.4-.5-.7-1-1-1.8-.3-.6-.6-1.2-.8-1.9-.2-.6-.4-1.3-.5-2-.1-.2-.1-.4-.1-.7 0-.1 0-.2-.1-.3 0-.2-.1-.4-.1-.6v-.4l-.7-.7-.4.8c.1.3.1.4.2.5zM31.9 135.6c1-.1 2.2.1 3.7.5.6.1 1.2.3 1.8.6.7.2 1.2.5 1.8.7l.1-.2c-.5-.3-1.1-.6-1.7-.9-.7-.3-1.2-.6-1.8-.8-1-.4-2.4-.8-3.9-.9h-.1l-.6.6.7.4zM39.3 142.2c-.4.6-.7 1.2-1 1.9-.2.6-.5 1.3-.7 2-.1.2-.1.5-.2.7 0 .1-.1.2-.1.3-.1.2-.1.4-.1.7 0 .1-.1.2-.1.4l.4.8.7-.7v-.4c0-.2 0-.4.1-.6 0-.1 0-.2.1-.3 0-.2.1-.4.1-.7.1-.7.3-1.4.5-2 .2-.7.5-1.3.8-1.9.4-.7.7-1.3 1-1.8l-.2-.2c-.5.6-.9 1.1-1.3 1.8zM39.3 139.5l-.1-.2c-.5.2-1.1.5-1.8.7-.7.2-1.3.4-1.8.6-1.5.4-2.6.5-3.7.5h-.1l-.6.5.6.6h.1c1.5-.1 2.9-.5 3.9-.9.6-.2 1.1-.5 1.8-.8.6-.4 1.2-.7 1.7-1z"/></g><g><path class="st5" d="M48.2 146c.1-.1.3-.2.3-.3.1-.1.1-.3.1-.4 0-.3-.1-.4-.3-.6-.2-.1-.5-.2-.8-.2h-1.4v3.1h1.5c.4 0 .7-.1.9-.2.2-.1.3-.4.3-.6 0-.2-.1-.3-.2-.5 0-.1-.2-.2-.4-.3zm-1.4-1h.8c.2 0 .3 0 .4.1.1.1.1.2.1.3 0 .1 0 .3-.1.3-.1.1-.2.1-.4.1h-.8v-.8zm.9 2.2h-.9v-.9h.9c.4 0 .6.1.6.4 0 .3-.2.5-.6.5zM51.4 145.4v2.2h.6v-3.1h-.5l-1.7 2.2v-2.2h-.5v3.1h.5zM54.7 144.5h-2v3.1h.5V145h1.5zM55.2 147.4c.3.1.5.2.8.2.3 0 .6-.1.8-.2.3-.1.4-.3.6-.6.1-.2.2-.5.2-.8 0-.3-.1-.6-.2-.8-.1-.2-.3-.4-.6-.6-.3-.1-.5-.2-.8-.2-.3 0-.6.1-.8.2-.3.1-.4.3-.6.6-.1.2-.2.5-.2.8 0 .3.1.6.2.8.2.3.4.5.6.6zm-.1-1.9c.1-.2.2-.3.4-.4s.3-.1.6-.1c.2 0 .4 0 .6.1s.3.2.4.4c.1.2.1.3.1.6 0 .2 0 .4-.1.6-.1.2-.2.3-.4.4-.2.1-.3.1-.6.1-.2 0-.4 0-.6-.1-.2-.1-.3-.2-.4-.4-.1-.2-.1-.3-.1-.6 0-.2 0-.4.1-.6zM59.3 147.6V145h1v-.5h-2.6v.5h1v2.6zM62.8 144.7c-.3-.1-.5-.2-.8-.2-.3 0-.6.1-.8.2-.3.1-.4.3-.6.6-.1.2-.2.5-.2.8 0 .3.1.6.2.8.1.2.3.4.6.6.3.1.5.2.8.2.3 0 .6-.1.8-.2.3-.1.4-.3.6-.6.1-.2.2-.5.2-.8 0-.3-.1-.6-.2-.8-.2-.3-.4-.5-.6-.6zm.1 1.9c-.1.2-.2.3-.4.4-.2.1-.3.1-.6.1-.2 0-.4 0-.6-.1-.2-.1-.3-.2-.4-.4-.1-.2-.1-.3-.1-.6 0-.2 0-.4.1-.6.1-.2.2-.3.4-.4s.3-.1.6-.1c.2 0 .4 0 .6.1s.3.2.4.4c.1.2.1.3.1.6s0 .5-.1.6zM66 146c.1-.1.3-.2.3-.3.1-.1.1-.3.1-.4 0-.3-.1-.4-.3-.6-.2-.1-.5-.2-.8-.2H64v3.1h1.5c.4 0 .7-.1.9-.2.2-.1.3-.4.3-.6 0-.2-.1-.3-.2-.5-.1-.1-.3-.2-.5-.3zm-1.4-1h.8c.2 0 .3 0 .4.1.1.1.1.2.1.3 0 .1 0 .3-.1.3-.1.1-.2.1-.4.1h-.8v-.8zm.8 2.2h-.9v-.9h.9c.4 0 .6.1.6.4 0 .3-.2.5-.6.5zM67.4 145.8c0 .5-.1.8-.1 1-.1.2-.2.3-.4.3h-.1v.5h.3c.2 0 .4-.1.5-.2.1-.1.2-.3.3-.6.1-.3.1-.6.1-1v-.8h1.2v2.6h.6v-3.1h-2.3l-.1 1.3zM72.6 147.1h-1.7v-.8h1.5v-.5h-1.5v-.8h1.6v-.5h-2.2v3.1h2.3zM75.7 147.6v-3.1h-.5v1.3h-1.6v-1.3H73v3.1h.6v-1.3h1.6v1.3zM78.7 144.7c-.3-.1-.5-.2-.8-.2-.3 0-.6.1-.8.2-.3.1-.4.3-.6.6-.1.2-.2.5-.2.8 0 .3.1.6.2.8.1.2.3.4.6.6.3.1.5.2.8.2.3 0 .6-.1.8-.2.3-.1.4-.3.6-.6.1-.2.2-.5.2-.8 0-.3-.1-.6-.2-.8-.2-.3-.4-.5-.6-.6zm0 1.9c-.1.2-.2.3-.4.4-.2.1-.3.1-.6.1-.2 0-.4 0-.6-.1-.2-.1-.3-.2-.4-.4-.1-.2-.1-.3-.1-.6 0-.2 0-.4.1-.6.1-.2.2-.3.4-.4s.3-.1.6-.1c.2 0 .4 0 .6.1.2.1.3.2.4.4.1.2.1.3.1.6.1.3 0 .5-.1.6zM82.9 146.3c-.1-.1-.2-.2-.4-.3.1-.1.3-.1.3-.3.1-.1.1-.2.1-.4s-.1-.3-.2-.5c-.1-.1-.3-.2-.5-.3-.2-.1-.4-.1-.6-.1-.2 0-.4 0-.5.1-.2 0-.3.1-.5.2l.2.5c.1-.1.3-.1.4-.2.1 0 .3-.1.4-.1.2 0 .4 0 .5.1.1.1.2.2.2.3 0 .1 0 .2-.1.3-.1.1-.2.1-.4.1h-.7v.4h.7c.2 0 .3 0 .5.1.1.1.2.2.2.3 0 .2-.1.3-.2.4s-.3.1-.6.1c-.2 0-.3 0-.5-.1-.2 0-.3-.1-.4-.2l-.2.4.6.3c.2.1.4.1.6.1.2 0 .5 0 .7-.1.2-.1.4-.2.5-.3.1-.1.2-.3.2-.5-.1 0-.2-.2-.3-.3zM86.7 145v-.5h-2.2v3.1h2.3v-.5H85v-.8h1.5v-.5H85v-.8zM89.8 144.5h-.6l-.9 1.3h-.6v-1.3h-.5v3.1h.5v-1.3h.6l.9 1.3h.7l-1.1-1.6zM92.9 145.3c-.1-.2-.3-.4-.6-.6-.3-.1-.5-.2-.8-.2-.3 0-.6.1-.8.2-.3.1-.4.3-.6.6-.1.2-.2.5-.2.8 0 .3.1.6.2.8.1.2.3.4.6.6.3.1.5.2.8.2.3 0 .6-.1.8-.2.3-.1.4-.3.6-.6.1-.2.2-.5.2-.8 0-.3-.1-.6-.2-.8zm-.5 1.3c-.1.2-.2.3-.4.4-.2.1-.3.1-.6.1-.2 0-.4 0-.6-.1-.2-.1-.3-.2-.4-.4-.1-.2-.1-.3-.1-.6 0-.2 0-.4.1-.6.1-.2.2-.3.4-.4s.3-.1.6-.1c.2 0 .4 0 .6.1.2.1.3.2.4.4.1.2.1.3.1.6s0 .5-.1.6zM93.7 145.8c0 .5-.1.8-.1 1-.1.2-.2.3-.4.3h-.1v.5h.3c.2 0 .4-.1.5-.2.1-.1.2-.3.3-.6.1-.3.1-.6.1-1v-.8h1.2v2.6h.5v-3.1h-2.3v1.3zM98.9 144.7c-.3-.1-.5-.2-.8-.2-.3 0-.6.1-.8.2-.3.1-.4.3-.6.6-.1.2-.2.5-.2.8 0 .3.1.6.2.8.1.2.3.4.6.6.3.1.5.2.8.2.3 0 .6-.1.8-.2.3-.1.4-.3.6-.6.1-.2.2-.5.2-.8 0-.3-.1-.6-.2-.8-.1-.3-.3-.5-.6-.6zm.1 1.9c-.1.2-.2.3-.4.4-.2.1-.3.1-.6.1-.2 0-.4 0-.6-.1-.2-.1-.3-.2-.4-.4-.1-.2-.1-.3-.1-.6 0-.2 0-.4.1-.6.1-.2.2-.3.4-.4s.3-.1.6-.1c.2 0 .4 0 .6.1.2.1.3.2.4.4.1.2.1.3.1.6.1.3 0 .5-.1.6zM100.2 147.6h.5V145h1.5v-.5h-2zM102.5 144.5h.6v3.1h-.6zM105.4 146c-.2.1-.5.2-.8.2-.2 0-.4-.1-.5-.2-.1-.1-.2-.3-.2-.5v-.9h-.6v1c0 .4.1.6.3.8.2.2.5.3.9.3.3 0 .5-.1.8-.2v1.2h.6v-3.1h-.6v1.4zM108.8 145.8h-1.6v-1.3h-.6v3.1h.6v-1.3h1.6v1.3h.6v-3.1h-.6zM112.9 145.3c-.1-.2-.3-.4-.6-.6-.3-.1-.5-.2-.8-.2-.3 0-.6.1-.8.2-.3.1-.4.3-.6.6-.1.2-.2.5-.2.8 0 .3.1.6.2.8.1.2.3.4.6.6.3.1.5.2.8.2.3 0 .6-.1.8-.2.3-.1.4-.3.6-.6.1-.2.2-.5.2-.8 0-.3-.1-.6-.2-.8zm-.5 1.3c-.1.2-.2.3-.4.4-.2.1-.3.1-.6.1-.2 0-.4 0-.6-.1-.2-.1-.3-.2-.4-.4-.1-.2-.1-.3-.1-.6 0-.2 0-.4.1-.6.1-.2.2-.3.4-.4.2-.1.3-.1.6-.1.2 0 .4 0 .6.1.2.1.3.2.4.4.1.2.1.3.1.6s-.1.5-.1.6zM48.3 151.2c-.2.1-.5.2-.8.2-.2 0-.4-.1-.5-.2-.1-.1-.2-.3-.2-.5v-.9h-.6v1c0 .4.1.6.3.8.2.2.5.3.9.3.3 0 .5-.1.8-.2v1.2h.6v-3.1h-.6v1.4zM50 152v-2.2h-.5v3.1h.5l1.7-2.2v2.2h.5v-3.1h-.5zM58 149.8h-2.6v.4c-.1-.1-.3-.2-.4-.3-.2-.1-.4-.1-.7-.1-.3 0-.6.1-.8.2-.2.1-.4.3-.6.6-.1.2-.2.5-.2.8 0 .3.1.6.2.8.1.2.3.4.6.6.2.1.5.2.8.2.3 0 .5 0 .7-.1.2-.1.4-.2.5-.4l-.4-.4c-.2.2-.5.4-.8.4-.2 0-.4 0-.6-.1-.2-.1-.3-.2-.4-.4-.1-.2-.1-.3-.1-.6 0-.2 0-.4.1-.6.1-.2.2-.3.4-.4.2-.1.4-.1.6-.1.3 0 .6.1.8.4l.4-.3h.9v2.6h.6v-2.6h1v-.6zM60.5 150c-.3-.1-.5-.2-.8-.2-.3 0-.6.1-.8.2-.3.1-.4.3-.6.6-.1.2-.2.5-.2.8 0 .3.1.6.2.8.1.2.3.4.6.6.3.1.5.2.8.2.3 0 .6-.1.8-.2.3-.1.4-.3.6-.6.1-.2.2-.5.2-.8 0-.3-.1-.6-.2-.8-.2-.3-.4-.5-.6-.6zm.1 1.9c-.1.2-.2.3-.4.4s-.3.1-.6.1c-.2 0-.4 0-.6-.1s-.3-.2-.4-.4c-.1-.2-.1-.3-.1-.6 0-.2 0-.4.1-.6.1-.2.2-.3.4-.4s.3-.1.6-.1c.2 0 .4 0 .6.1s.3.2.4.4c.1.2.1.3.1.6 0 .2 0 .4-.1.6zM61.7 149.8h.6v3.1h-.6zM62.4 149c-.1 0-.1 0-.2.1-.1 0-.1.1-.1.2s0 .1.1.2c.1 0 .1.1.2.1s.1 0 .2-.1c.1 0 .1-.1.1-.2s0-.1-.1-.2-.1-.1-.2-.1zM61.8 149.2c0-.1 0-.1-.1-.2-.1 0-.1-.1-.2-.1s-.1 0-.2.1c-.1 0-.1.1-.1.2s0 .1.1.2c.1 0 .1.1.2.1s.1 0 .2-.1c.1 0 .1-.1.1-.2zM64.7 150.4c.2-.1.4-.1.6-.1.3 0 .6.1.8.4l.4-.3c-.1-.2-.3-.3-.5-.4-.2-.1-.4-.1-.7-.1-.3 0-.6.1-.8.2-.2.1-.4.3-.6.6-.1.2-.2.5-.2.8 0 .3.1.6.2.8.1.2.3.4.6.6.2.1.5.2.8.2.3 0 .5 0 .7-.1.2-.1.4-.2.5-.4l-.4-.4c-.2.2-.5.4-.8.4-.2 0-.4 0-.6-.1-.2-.1-.3-.2-.4-.4-.1-.2-.1-.3-.1-.6 0-.2 0-.4.1-.6.1-.3.3-.4.4-.5zM67.4 152v-2.2h-.6v3.1h.5l1.7-2.2v2.2h.5v-3.1H69zM72.1 149.9c-.2-.1-.4-.1-.7-.1h-1.3v3.1h.6v-.9h.7c.3 0 .5 0 .7-.1.2-.1.3-.2.5-.4.1-.2.2-.4.2-.6 0-.2-.1-.4-.2-.6-.1-.2-.3-.3-.5-.4zm-.1 1.4c-.1.1-.3.2-.6.2h-.7v-1.2h.7c.2 0 .4.1.6.2.1.1.2.3.2.5 0 .1-.1.2-.2.3zM75.4 150c-.3-.1-.5-.2-.8-.2-.3 0-.6.1-.8.2-.3.1-.4.3-.6.6-.1.2-.2.5-.2.8 0 .3.1.6.2.8.1.2.3.4.6.6.3.1.5.2.8.2.3 0 .6-.1.8-.2.3-.1.4-.3.6-.6.1-.2.2-.5.2-.8 0-.3-.1-.6-.2-.8-.2-.3-.4-.5-.6-.6zm.1 1.9c-.1.2-.2.3-.4.4s-.3.1-.6.1c-.2 0-.4 0-.6-.1s-.3-.2-.4-.4c-.1-.2-.1-.3-.1-.6 0-.2 0-.4.1-.6.1-.2.2-.3.4-.4s.3-.1.6-.1c.2 0 .4 0 .6.1s.3.2.4.4c.1.2.1.3.1.6 0 .2-.1.4-.1.6zM78.6 151.3c.1-.1.3-.2.3-.3.1-.1.1-.3.1-.4 0-.3-.1-.4-.3-.6-.2-.1-.5-.2-.8-.2h-1.4v3.1H78c.4 0 .7-.1.9-.2.2-.1.3-.4.3-.6 0-.2-.1-.3-.2-.5s-.2-.3-.4-.3zm-1.5-1.1h.8c.2 0 .3 0 .4.1.1.1.1.2.1.3 0 .1 0 .3-.1.3-.1.1-.2.1-.4.1h-.8v-.8zm.9 2.2h-.9v-.9h.9c.4 0 .6.1.6.4 0 .4-.2.5-.6.5zM80.2 152v-2.2h-.6v3.1h.6l1.6-2.2v2.2h.6v-3.1h-.6zM85.2 151.1h-1.6v-1.3H83v3.1h.6v-1.4h1.6v1.4h.5v-3.1h-.5zM86.9 152v-2.2h-.5v3.1h.5l1.6-2.2v2.2h.6v-3.1h-.5z"/><path class="st2" d="M53.7 124.1h-1.3v5.1h-1.9v-5.1h-1.3v5.1h-1.9v-5.1H46v6.3h7.7zM56.1 129h2.8l.6 1.4h1.4l-2.9-6.3h-1.1l-2.8 6.3h1.4l.6-1.4zm.5-1.2.9-2 .9 2h-1.8zM63.8 130v.6H65v-.6c2-.1 3.1-1.1 3.1-2.7s-1.1-2.6-3.1-2.8v-.6h-1.3v.6c-2 .1-3.1 1.1-3.1 2.8.1 1.5 1.2 2.5 3.2 2.7zm-1.8-2.8c0-.9.6-1.5 1.8-1.6v3.2c-.9-.1-1.8-.4-1.8-1.6zm3-1.5c.9.1 1.8.5 1.8 1.6 0 .9-.6 1.5-1.8 1.6v-3.2zM70.2 128.6h1.2c1.6 0 2.7-.9 2.7-2.3s-1-2.3-2.7-2.3h-2.5v6.3h1.3v-1.7zm0-3.3h1.2c.9 0 1.4.4 1.4 1s-.5 1-1.4 1h-1.2v-2zM74.9 130.4l.6-1.4h2.8l.6 1.4h1.4l-2.9-6.3h-1.1l-2.8 6.3h1.4zm1.1-2.6.9-2 .9 2H76zM82 127.8h2.8v2.6h1.4v-6.3h-1.4v2.5H82v-2.5h-1.3v6.3H82zM91.1 130.4c.9 0 1.6-.3 2.1-.7.5-.5.7-1.2.7-2.1v-3.4h-1.8v3.4c0 .5-.1.8-.3 1-.2.2-.4.3-.7.3-.5 0-1-.1-1-1.3v-3.4h-1.8v3.4c0 .9.3 1.6.7 2.1.5.4 1.2.7 2.1.7zM98.8 130.3h1.9l-2.7-6.1h-1.6l-2.7 6.1h1.9l.5-1.2h2.3l.4 1.2zm-1.1-2.7h-1l.5-1.3.5 1.3zM86.6 129.1h1.3v1.3h-1.3zM48.1 137c-.6-.2-1-.3-1-.6 0-.4.3-.6.9-.6.4 0 .8.1 1.1.3l.1.1.3-.7-.1-.1c-.4-.3-.9-.4-1.5-.4-1.3 0-1.8.7-1.8 1.4 0 1 .9 1.2 1.6 1.4.6.2 1 .3 1 .6s-.3.5-.9.5c-.5 0-1-.2-1.3-.5l-.1-.1-.3.7.1.1c.4.3 1.1.6 1.7.6 1.3 0 1.8-.7 1.8-1.4 0-.9-.9-1.1-1.6-1.3zM53.6 139.7h.9l-2.1-4.6h-.8l-2.1 4.6h.9l.5-1.1H53l.6 1.1zm-.8-1.8h-1.5l.7-1.7.8 1.7zM58.2 135.9v-.8h-3.3v4.6h.8v-1.8h2.2v-.8h-2.2v-1.2zM62.1 135.9v-.8h-3.3v4.6h.9v-1.8h2.1v-.8h-2.1v-1.2zM66.5 136.7c0-1-.7-1.6-1.9-1.6h-1.8v4.6h.9v-1.3h1.1l.9 1.3h1l-1.1-1.5c.6-.3.9-.8.9-1.5zm-2.9-.8h.9c.5 0 1.1.1 1.1.8 0 .7-.6.8-1.1.8h-.9v-1.6zM71.7 137.4c0-1.3-1-2.3-2.4-2.3s-2.4 1-2.4 2.3 1 2.3 2.4 2.3 2.4-1 2.4-2.3zm-.8 0c0 .9-.7 1.5-1.6 1.5-.9 0-1.6-.6-1.6-1.5s.7-1.5 1.6-1.5c.9 0 1.6.6 1.6 1.5zM76.4 135.1h-.8v3l-2.4-2.9-.1-.1h-.7v4.6h.9v-3l2.4 2.9v.1h.7zM78.2 135.1v2.5c0 .7.2 1.2.5 1.5.4.4.8.5 1.5.5.6 0 1.1-.2 1.5-.5.4-.4.5-.9.5-1.5v-2.5H81v2.5c0 .4-.1.6-.2.8-.1.2-.3.2-.6.2s-.8-.1-.8-1v-2.5h-1.2zM85.3 135.1h-1.1l-2 4.5h1.3l.4-.9h1.8l.4.9h1.3l-2.1-4.5zm-.1 2.6h-.9l.5-1.2.4 1.2zM76.7 138.8h.9v.9h-.9z"/></g></g></g></svg>